<mxfile host="app.diagrams.net" modified="2020-12-19T20:28:45.817Z" agent="5.0 (X11; Linux x86_64) AppleWebKit/537.36 (KHTML, like Gecko) Chrome/87.0.4280.88 Safari/537.36" etag="uie32EmaU-CjUOo_9QjY" version="14.0.5" type="github">
  <diagram id="a3qhtCxRFw_-zrkIkCwv" name="Page-1">
    <mxGraphModel dx="1364" dy="806" grid="1" gridSize="10" guides="1" tooltips="1" connect="1" arrows="1" fold="1" page="1" pageScale="1" pageWidth="827" pageHeight="1169" math="0" shadow="0">
      <root>
        <mxCell id="0" />
        <mxCell id="1" parent="0" />
        <mxCell id="r_LDuMVwWnfsW8-giX2U-10" style="edgeStyle=orthogonalEdgeStyle;rounded=0;orthogonalLoop=1;jettySize=auto;html=1;entryX=0.5;entryY=0;entryDx=0;entryDy=0;fillColor=#1ba1e2;strokeColor=#006EAF;dashed=1;" parent="1" source="r_LDuMVwWnfsW8-giX2U-1" target="r_LDuMVwWnfsW8-giX2U-2" edge="1">
          <mxGeometry relative="1" as="geometry" />
        </mxCell>
        <mxCell id="r_LDuMVwWnfsW8-giX2U-1" value="User" style="html=1;verticalLabelPosition=bottom;align=center;labelBackgroundColor=#ffffff;verticalAlign=top;strokeWidth=2;shadow=0;dashed=0;shape=mxgraph.ios7.icons.user;strokeColor=#007FFF;" parent="1" vertex="1">
          <mxGeometry x="375" y="10" width="50" height="50" as="geometry" />
        </mxCell>
        <mxCell id="r_LDuMVwWnfsW8-giX2U-11" style="edgeStyle=orthogonalEdgeStyle;rounded=0;orthogonalLoop=1;jettySize=auto;html=1;entryX=0.5;entryY=0;entryDx=0;entryDy=0;dashed=1;fillColor=#1ba1e2;strokeColor=#006EAF;" parent="1" source="r_LDuMVwWnfsW8-giX2U-2" target="r_LDuMVwWnfsW8-giX2U-3" edge="1">
          <mxGeometry relative="1" as="geometry">
            <Array as="points">
              <mxPoint x="400" y="180" />
              <mxPoint x="160" y="180" />
            </Array>
          </mxGeometry>
        </mxCell>
        <mxCell id="r_LDuMVwWnfsW8-giX2U-13" style="edgeStyle=orthogonalEdgeStyle;rounded=0;orthogonalLoop=1;jettySize=auto;html=1;dashed=1;fillColor=#1ba1e2;strokeColor=#006EAF;" parent="1" source="r_LDuMVwWnfsW8-giX2U-2" target="r_LDuMVwWnfsW8-giX2U-5" edge="1">
          <mxGeometry relative="1" as="geometry">
            <Array as="points">
              <mxPoint x="400" y="180" />
              <mxPoint x="250" y="180" />
            </Array>
          </mxGeometry>
        </mxCell>
        <mxCell id="r_LDuMVwWnfsW8-giX2U-14" style="edgeStyle=orthogonalEdgeStyle;rounded=0;orthogonalLoop=1;jettySize=auto;html=1;entryX=0.5;entryY=0;entryDx=0;entryDy=0;dashed=1;fillColor=#1ba1e2;strokeColor=#006EAF;" parent="1" source="r_LDuMVwWnfsW8-giX2U-2" target="r_LDuMVwWnfsW8-giX2U-6" edge="1">
          <mxGeometry relative="1" as="geometry">
            <Array as="points">
              <mxPoint x="400" y="180" />
              <mxPoint x="345" y="180" />
            </Array>
          </mxGeometry>
        </mxCell>
        <mxCell id="r_LDuMVwWnfsW8-giX2U-15" style="edgeStyle=orthogonalEdgeStyle;rounded=0;orthogonalLoop=1;jettySize=auto;html=1;entryX=0.5;entryY=0;entryDx=0;entryDy=0;dashed=1;fillColor=#1ba1e2;strokeColor=#006EAF;" parent="1" source="r_LDuMVwWnfsW8-giX2U-2" target="r_LDuMVwWnfsW8-giX2U-7" edge="1">
          <mxGeometry relative="1" as="geometry">
            <Array as="points">
              <mxPoint x="400" y="180" />
              <mxPoint x="620" y="180" />
            </Array>
          </mxGeometry>
        </mxCell>
        <mxCell id="r_LDuMVwWnfsW8-giX2U-16" style="edgeStyle=orthogonalEdgeStyle;rounded=0;orthogonalLoop=1;jettySize=auto;html=1;entryX=0.5;entryY=0;entryDx=0;entryDy=0;dashed=1;fillColor=#1ba1e2;strokeColor=#006EAF;" parent="1" source="r_LDuMVwWnfsW8-giX2U-2" target="r_LDuMVwWnfsW8-giX2U-8" edge="1">
          <mxGeometry relative="1" as="geometry">
            <Array as="points">
              <mxPoint x="400" y="180" />
              <mxPoint x="530" y="180" />
            </Array>
          </mxGeometry>
        </mxCell>
        <mxCell id="r_LDuMVwWnfsW8-giX2U-25" style="edgeStyle=orthogonalEdgeStyle;rounded=0;orthogonalLoop=1;jettySize=auto;html=1;dashed=1;fillColor=#1ba1e2;strokeColor=#006EAF;" parent="1" source="r_LDuMVwWnfsW8-giX2U-2" target="r_LDuMVwWnfsW8-giX2U-23" edge="1">
          <mxGeometry relative="1" as="geometry">
            <Array as="points">
              <mxPoint x="400" y="180" />
              <mxPoint x="445" y="180" />
            </Array>
          </mxGeometry>
        </mxCell>
        <mxCell id="r_LDuMVwWnfsW8-giX2U-2" value="&lt;span style=&quot;font-size: 11px&quot;&gt;&lt;b&gt;&lt;font color=&quot;#007fff&quot;&gt;Frontend&lt;/font&gt;&lt;/b&gt;&lt;/span&gt;" style="ellipse;whiteSpace=wrap;html=1;aspect=fixed;strokeWidth=2;strokeColor=#007FFF;" parent="1" vertex="1">
          <mxGeometry x="370" y="100" width="60" height="60" as="geometry" />
        </mxCell>
        <mxCell id="r_LDuMVwWnfsW8-giX2U-3" value="&lt;span style=&quot;font-size: 11px&quot;&gt;&lt;b&gt;&lt;font color=&quot;#007fff&quot;&gt;Profile&lt;/font&gt;&lt;/b&gt;&lt;/span&gt;" style="ellipse;whiteSpace=wrap;html=1;aspect=fixed;strokeWidth=2;strokeColor=#007FFF;" parent="1" vertex="1">
          <mxGeometry x="130" y="250.00000000000003" width="60" height="60" as="geometry" />
        </mxCell>
        <mxCell id="r_LDuMVwWnfsW8-giX2U-4" value="&lt;span style=&quot;font-size: 11px&quot;&gt;&lt;b&gt;&lt;font color=&quot;#007fff&quot;&gt;Geo&lt;/font&gt;&lt;/b&gt;&lt;/span&gt;" style="ellipse;whiteSpace=wrap;html=1;aspect=fixed;strokeWidth=2;strokeColor=#007FFF;" parent="1" vertex="1">
          <mxGeometry x="690" y="250" width="60" height="60" as="geometry" />
        </mxCell>
        <mxCell id="r_LDuMVwWnfsW8-giX2U-5" value="&lt;span style=&quot;font-size: 11px&quot;&gt;&lt;b&gt;&lt;font color=&quot;#007fff&quot;&gt;Rate&lt;/font&gt;&lt;/b&gt;&lt;/span&gt;" style="ellipse;whiteSpace=wrap;html=1;aspect=fixed;strokeWidth=2;strokeColor=#007FFF;" parent="1" vertex="1">
          <mxGeometry x="220" y="250.00000000000003" width="60" height="60" as="geometry" />
        </mxCell>
        <mxCell id="r_LDuMVwWnfsW8-giX2U-6" value="&lt;span style=&quot;font-size: 11px&quot;&gt;&lt;b&gt;&lt;font color=&quot;#007fff&quot;&gt;Recomme-ndation&lt;/font&gt;&lt;/b&gt;&lt;/span&gt;" style="ellipse;whiteSpace=wrap;html=1;aspect=fixed;strokeWidth=2;strokeColor=#007FFF;" parent="1" vertex="1">
          <mxGeometry x="315" y="250.00000000000003" width="60" height="60" as="geometry" />
        </mxCell>
        <mxCell id="r_LDuMVwWnfsW8-giX2U-17" style="edgeStyle=orthogonalEdgeStyle;rounded=0;orthogonalLoop=1;jettySize=auto;html=1;dashed=1;fillColor=#1ba1e2;strokeColor=#006EAF;" parent="1" source="r_LDuMVwWnfsW8-giX2U-7" target="r_LDuMVwWnfsW8-giX2U-4" edge="1">
          <mxGeometry relative="1" as="geometry" />
        </mxCell>
        <mxCell id="fTiR-MOlgRT7hQ4pnlI5-1" style="edgeStyle=orthogonalEdgeStyle;rounded=0;orthogonalLoop=1;jettySize=auto;html=1;dashed=1;strokeColor=#006EAF;" edge="1" parent="1" source="r_LDuMVwWnfsW8-giX2U-7" target="r_LDuMVwWnfsW8-giX2U-5">
          <mxGeometry relative="1" as="geometry">
            <Array as="points">
              <mxPoint x="620" y="350" />
              <mxPoint x="250" y="350" />
            </Array>
          </mxGeometry>
        </mxCell>
        <mxCell id="r_LDuMVwWnfsW8-giX2U-7" value="&lt;span style=&quot;font-size: 11px&quot;&gt;&lt;b&gt;&lt;font color=&quot;#007fff&quot;&gt;Search&lt;/font&gt;&lt;/b&gt;&lt;/span&gt;" style="ellipse;whiteSpace=wrap;html=1;aspect=fixed;strokeWidth=2;strokeColor=#007FFF;" parent="1" vertex="1">
          <mxGeometry x="590" y="250" width="60" height="60" as="geometry" />
        </mxCell>
        <mxCell id="r_LDuMVwWnfsW8-giX2U-8" value="&lt;span style=&quot;font-size: 11px&quot;&gt;&lt;b&gt;&lt;font color=&quot;#007fff&quot;&gt;User&lt;br&gt;&lt;/font&gt;&lt;/b&gt;&lt;/span&gt;" style="ellipse;whiteSpace=wrap;html=1;aspect=fixed;strokeWidth=2;strokeColor=#007FFF;" parent="1" vertex="1">
          <mxGeometry x="500" y="250" width="60" height="60" as="geometry" />
        </mxCell>
        <mxCell id="r_LDuMVwWnfsW8-giX2U-18" value="Memcached" style="shape=image;verticalLabelPosition=bottom;labelBackgroundColor=#ffffff;verticalAlign=top;aspect=fixed;imageAspect=0;image=data:image/png,iVBORw0KGgoAAAANSUhEUgAAAJcAAACdCAYAAAC5BOofAAAABHNCSVQICAgIfAhkiAAAIABJREFUeJztfWmQXNd13nfufe/1Mt09+75gB7gB4CpxFykqpCjKpESRFiV5keJKZCt2bCcuJ5arEkeVOHZV7HIcp+I4sePQtsqypEiyZVGWTZGSKYqiSBEkdgyAAWbfuqf35S335sfti+6eDTNAN14PgK/qYQYzPW+577vnnHvuWYDruI7ruI7ruI7rKIM2/QdEvcFY6z3tI7veGx3ZddAOtnTLSznROpAAmHTtoF2Ix8+dPVZYmHkrszD3fSnEOIBcHS+1FcCJsYFQrPVd4Z6Bu9pHdt6MWMeQSyxQ7wtJEAU9O1OYPnc0MTb63ezi/HellGMABNQrlps532Y4EW4bGP5U3wOP/iwN7blFQoIAmJxv5nobhgTguB4Yqbs07UIic+i1Fyd++MrzTiH/IoACAFb+6KYeeqvAsAJ3dd+w/1MddzzwQXT2DUtICCFgcA5G9ZzOFbhCwBMSnAAzn5qc/OaX/yJ+7vQfQMpJABxqrMVGzrWhO2SMDfffef9vRR/4wMcJsmGEWo7qqeIJAVdKhDnPTX79819YPP72b0opz0ERzMMGH3iLINK9a98vd77nic9Qe3cfgcAZgYg2Lz4uAfoajifATAPOsTe+d+aFL/+a5zg/LP/KhRrvdW/loiwhxgZ3P/bh54O3P/ikyRk4Y/W4/02DEcFgDK6QVuym22+LtbbelRo7dUoKMQ81Hldi3BsOYmxw5J6H/qDj0Wd+gYLhiMk5WJlYVxqcEZiUcNt7Rwb23vhQ4tihI8Lz5qEm9EUn88XIxXbd89B/x4F7nwpapi8PuOKGiCCFB+oeHO7dc8N7l46/c1647kT511pF+n+jlwDG+fbt/+RDz4dvf/CDjPk3kZfDYAQ3FGuPtsZuXjp9/AeQMgc1zh7WmdDrkqujb+CnzYc+/NlIKMiagVgaRARGgBeKtvXsvem+zOiRGde2T5d/vWGboJnAON9zy4c//udyz8EHAobRFBO5GowA3jfST4vTkdzi3BuoVY+rjvea5CLG+nf82Mf+yGjv6r1SNtZmwYjgBSPR3hsP3LN09K0pz3HOoaIet4yhT4xt2/nEc38pd9387qBh+H07a0JKifZde3bED71+1nOdKVQItqoEW5M1/Tt3f0YcuP9jkWCgqd8QI8CxQi3tu268O3Xi0DnhupOoiOymB+d857ZHn37euuHWewJNTCxAzVrHCFlmLhnMzEwcA1AEYKMiwWqwOrmIWrc/8dwfGq3tnY1a8tYTDADC0Uj37hvenT75zhnXcaoJ1rQSjBjrv/GDzz5P+25/T8BoTu2wHJ7w0LltZ8/8j149LVx3FoCDCsFqsKrFGIrGHsHgjj3Nqg5XA4eE19nfv/cjP/UbphV4N4BQ+eBoTgM/vPc9j/5+Ycf+h6wtQiwAMImQ48GW2MDInQD6AbSiMs41WPWpBg7e9RvmyL6bWTO+knXAAJRa2tu7ujpuiI8ee0tKmSz/at1VjQ/gu+68+3e8u973yUjAakrmrwUC4AmJWNAKLpx45ziANIA8gBKUFLuAFZKLGBvsuuP+uyG2hMmyAhZJsH13HOzaf+evgGgEQBRAEOpZm+I9Du7Z9yt0/4/9fItlNscNbQISAGcAjewdDkWiOwF0Qo1xAECN0biCXFYwdC/v7OtlW01slUFEIOGh57FnH2/bvuczUA8fg3p43x8qGG19MvrYR/990FBbOM0kTjcKAuCZAaNtcHgfgHZUVKOBqjFeQa7YwNDBfMkONJufZTNQ7nqJ7c/+04/Hunt/HGpmtQCwsIFdiUbBsAJ3DD758d+jQCjEGduSxLoAKREd2rkNilgxAGEAJqo4tZxcvG377v1CCP+n+GWCpIQLbu58+pOftoKh+wFEoAbAwBoLmYbeD1H3vg888/u8Z3iHyfnWJhbU1pDRO9TNOW9H7eRdnVxE1Bcb3jUi5VZ/dAUGiVJrV9fAg4//AmNsH9QM82MFyXsP3Pk5d+ct9wbN5vZlbRREBMTaWoItkT4oYoWhTI8LmqGWXIyNmF39Q1tZJS6HKQWitz9wsO+W2z4NtXSO4Qob+J3D2z4TfuAD/2yr+LI2BCnBQ1ErGGvthiKWJtcFzbCMXLxLRGIdfIsa86uCCBAOOh/76JPR3v5noAzQCNRANFw9WqHQfb0feO7fhYPhq4hZaiuIAhYLtXZ0Qk3WEJatGGsGt7W7ZySbzTbHVnwdQQAkEdvxoZ/8pBUM3Y2KjdBQ+4uIerY98uRvO+HWrq26+l4LBICIweFWCxS5qiUXAcsGlrVEByBl0+3I1wMMEm5rT0fvPY98mhjbhYqd0DD7a3D/7Z+lPQfvC10ldtZySBCCba1hIgpBEUyTiwO15DI6unt7So575ZdSVwhcCnTf/+htXbtv+CSAPij1GEQD3BOxzq5nzPs+8OmAwbf8ynstECNYHT1RYqwFilgm1rC5giza2mvwLe5/WQdEQKlYRO8Tn/hQpL3jUVTsL72ErgsPuGHs7n7smd8Ot7QEt6qjdCMQQgCmZXJuBKGIZUJN1BXksvLgUavJwz4uF5wAaZrWwPue+iTj/EYoJ6D2f9UDbNf97/3PrHd455Z3lF4EnicRiraawWBAj1+15KIacrW3d0RKrnfVinENDsDccdOOwVvf9SkAvaj1f10Wor0D/5zf+uCHmjnor15gBJBlGUKluVnlYxW1SBQKdfV0X71CvBZEQOyBJx5u7e79ANTqUavHSyaYaVn7ex79yK+TYRhX46JoORgAQQbzJGmJpY35FatFw2VGgF3lolyDSQkEg9bw+z/yCW4Yt+Ly3ROhkfve9x9ZV/+Q0SSJFQ0HAY4EeRVbS5OLAagZBeYxbvFrYMZpMCEgBncPDhy862NENIiK937T7omu4W0/g/33Pnm1uh1Wg+cJBAMWhQIWw0UkFxeMm9cOtdQIMOGi7aEPvjcUa30PgDYoCWaikgt5UZimdXP7Ix/+bDBgNu5mmxBCSgRbooYVDFjlH2lirTDoyQPj14KtUA1OgEuGueOxp3+Ccb4XimBaPW5kMKxt9z78H6i9u/9akvpAeeeDSZKSGMqqEBWC1ZKruSKBrwykBCzOILbfuGPg5ts+TkRdUO4Jvbm9Ltp6+j4qDtz95NXuwlkNRAAkJ0moJpc+lm1cCymuPXqpTViDgI6Hn3xfIBJ9EEo1RrEsPmk5GGMjQ+978t8YZsDcCllSjYAgoCy5LqhD/bvqgZOMhLhaYrk2C5ISTqglOPLAo89yzndBkUtHV67KnL6bb/2lQs+2m0PXoNQCKtnHomKfanKtUIvXPAzhIXTbfbfE+gYfRyXxYNWtoVAk8nD7w0/9XMjY+lGllw5tScnyf2qOq3aP+pLAANglGyMffO4p0wochDLuI1i2eiSi1r73fPA/CcMKNkuxEF9BFwz66+RaCxKAxQilWFdn/4E7PwIVOdGOyt6jBIC+3ft+lu+55R7zmpZaq6JmgXidXMsgobKKow88/mCkreMBqJWj3hoC4/zWocd//OeNLZSNfoWxdmrZdai0NBYIGb33PvI0Y2wEynNvArD23v/wLyXIGrKuk2s5Vix6rpNrLQiB6IG798QGhh+Hsr1CVij0Y+btDz8Tsq4tT/yl4jq51gBBwpaSjbz/6Se4YRwgou03PPWxXysBLdeN+I3h2nTQbBCGEHC7hrr6brntSZnLHCwO7LkjZHBcq77AzeI6udYDAcxz0fv+Zx8lkCx58vrqcBO4Tq6LgBHB8UCAoGt1i+dS0RTkkgAE42CcQwoB5q0oUucrFKeajFhEEMRAXKlpcp1mu0P/ySWJwCCke+z1+cWx0XTr8I6Ise9gDzNDV3Ee0uVBguC5jsS5E/Gl08eXWrp6QsGb7+yVwYjZTGPmL7nKaVez3/rKWPzIm2Oe47jx4++I2JEfdQw/8dwB0dYdoiaTYn5DEgNzi97it75yeuHE4WnPtUuccTc2Njow9OGfPigNi1OTLDh8XVN7EpDnTyUTh9845zpOUQI513UTifGxI2e/+McveoszWXndWXkBghjIK3rjX3n++OzhN8+5jp2XEjnX85Lpc6OHkq+9NApqnvHylVwkPRn/4XfOO65bgqqrGQcwDWAyszj/2tkv/slXkU0W5HW/EgQIXNje/Df+6tTS2VNTUlVQTgNYADDlCjm2eOSNl9z0Yr5ZdvV8uwsPAFuczcYnziegOpAtAZgCcBrAcQCjxWT8W2f/8n99QZZypeYQ9P5AEsHgkPEX/3ps7tg741DESgGYATAG4CSAU/lU8uXiqcOnmqV9iG/kIm4gc/pownPsHFQPxUUocp0DcAbAKIBzuYXZr05+5c++zgyziUzVKwgiSCIsvvri9PSh18eqJNY8gHFUxuoUgFOZ08e+K2Vz0MsXcoly3Hp66lxKSFkAkIEi13TVMQVgAsB4emLsC7nX/uENwZrHnrgSIACCCJg+m1l643tnhBAlAFkoVTgJNRHPQ43TNICZ9OzUP5oMTRFR7A+5CGD5lFNMLqWhWnykoeytRQAJAMnyEQewIDxvdOyVv//f7tTYvLiG7C8BgNm2mH7x66dyuUwWFbt0CkpqTQKYRWXMUnaxdFRMj4971yq5iHGU4osFaZfyUPZWGmpwMqgUzHfLv0sCiHu2/YPZv/9/n0eTiPwrAQ+E9Pf/7nxianwBahImoOysifIxBzU+eajxsgG5lJ04fUJI/92+vpCLcY5CfK7glIo5KCJly0ceyqbQbda88u9TAFLpuZmvOW+/+rotJK72nRiPcdDMWHr27TfGocZA21mT5WMealyKqIyXAJAtxRfOM+Z/1Q9fyGUwhmIyXnRdpwg1cHlUiOWikkCpW64VACSllOfPfedbf2q5dt69ipPgJAgGPDn3vX84X8rnMlDPH4eSWtNQNlcSiljLW88U8otzZ5pAK155cqk2rhIylytKCRtqgArlrw5WZubq7mMFAJlSIf+9xW9/7e+uauPeMFA8fXQpM3V+TqrJl4Qi1CyUxFqCGo/qiajhFfO5xaBl+h4a5IPkIgjXRS6VLEBJKhtqoNbs24dyP28oAs4snDz81VavmHauRulFDGQXZPLNV8dLpVIeyk0ThyLWHJTdpW2sVQfALRTmDJK+D8+V7yQBgEkBJl0XaoBKqHS88rA2uYT+nFMqvTL2wpe+ZZhXn+/LkxL2qSOL8Ymzc6hIrXkoci1CLXpKWKfVsuvY8VImk/G7gvQVJ5cAID3HsypkcsqHbme7FrT9VQSQSJw+8SXKLKX8XxPVEwSSrpz/0fcmXNcrQREpDiWxFqGM+tXsrFpIuHBKpWtOLUoA0rUFXMdGhVxaHW5kNFwAwikVX0u+/vKr4ipZNhIAlwB5fnQpNTO5iMoqeaF8LKGiDi8CWbKkKHk+68UrTi7OGEq5okhlMtrGqpZcF2sZrI17G0Bu4dihL5JwvKtBNQoAFoecf/PVKeF5BSjXzBKUxFoq/1+rw4s9ssOFe+2Ri4jK3UaF9stUd3ff6Gg4AEqFbOb73sm333KF3PLKUTAOd+p8Nj09viiV6ktBESuOWkfpRuByKRy/u8/5oBYlCFLwiir0UDHkN+J+18a9A2Bh4tUXv7TV67hKAJZhIHH0zXm7WNB+LS21ElBSSzuXL/qoEiiWsulMA295Q/BltVg1OppQmjAbhXZN5HOJ+PfDmYXJkrd1e0QKYhCZuFOaGl+QUhahDPkkFMHSqPi0NgYp7fnFeDEU8Hc17c/2D4EkpFaD1cTazFgIAEIKcWr6e//wEnFjy0ovzjlyZ06lUgtzCVRCarQ6zGF15/J6IFdI8rsEaTOEGMhlXzfzdx6A+MLoiZejJvPdgL1USNdBaXx0wXXdAhSZtNTKQNlfazpM10IzSHEfyUVaQ27GkF8ODwCcYvEHhdF3Tsmt6JYgBpleKiXGRuegJFQailgp1Npam4FohpZDzSC5LhdSSnF29s3XXrcCAf9HdBMgAK6QcCZGE7lMWhvy1eFHer91S2Krk0vba25ubuo7zCkUmiEaYKOQUG0mUqNHF6BIlIMiV6r8fQkX88Y3MbY6uYDyOyrmsq9mz56cIL51VKMHwCpk7aXJiTiUlMpCESsN5dfaslILaA5yXS4bJAAhpZzPHn/7B0JSUxizFwNBRZo646eXPLuQhyKXdkFkcYmGfDOhGchVD3gA3NTE2Le3ArGAcnlMw8Di6NG454kClKSqllo2tjCxgKuHXBKAm08n32CJudmtEKXqgWDZBTczO50sO05zUJKrWmpt6YSBq4lcQkq5UDh9+A3X5z21jUAyjuL0+axXyGagpFQWtQkq64UfbQlcLeQCFMHSCycOv8K3QAlvy+BInTuVLBUKWlKtlqSypXE1kUsAKKQX5t4MuXa6mb31kgjkFGVhemKpnBScx1WmEgGfyNXI1y4872zhzNEjzZAUuiaIwU0lSl42mYEiUh61UuuyVaJoguf3jVyiMdtfBClnl0aPHjEs6+Kf9gnECKW56VwumUyhYm/lUElUuWypZTImVcicf/An+0cyaqDWyifGx94OmNxrhtm7GsgTKE6dTzpqo1pHnV7yJvXKC5DV29MVKtruNRYsKAUMgxC2ajoe13UM3GLxOJYWF5vS7CKC5zkoLUwvQXngdSRE3bZ7CAiY4WjU7338K04uTwhY4RYejrSYqL/5JQGQ8NyTxYkz55sx519KCcpl7ezCXBJKBWp7q4g62VsADJeY5XeErg+RqATGDSaIGRd+VPv1siGlnJk58tYRswntLk8CSMxm8tmMllSaXAUoSVYPQ8n0mGH5XdrcnzBnRuRKutBoG/UnmLQTC+8w6TVVZpB+uPzk2WS5iFsJFUNeV/a5bEjAsLkR5NdaUiwR4ElGjpSaXNWNIOsBCYCK2fQhWcjn63TOukACMDhDenpC21s6Xb9aal32fGCMmUYgFPJ7PeODQS/BGINlWQZWdnSvF8HIte2TztTYpGgis8uTgGHnnPT8XBpKUumVonZB1GXLxwoE2hEIRK65jGsAADcQjLaFCOBQR3UL23ohlT03ehyyOdhFADwiyPhc1nNKmkw51Ba7qwsbyLDapAS/5mpFAGUnqhmwUCGWPup5CS83Pf6GkM2xia2iThky58+kpOvqumTaz6WlVp3IZUZdV+CaNOiFkDCCIZMxZkJ18dAqsp52l5tJLLxjcfhtegBQNxQ0OOLj59KeELommS7bubzo3WUh1traVXT97zzii+TyhIdoV3fIMM0gau2teqpGYRcKp9lSfLYZQnA8ANwrekJlQuuid7ny13VLIm0SRJHYsGX43tbJp6RYKLUoiLRqNMpf68oBKeWSPXHmuNsEDgliHPmp8Zydz+h0MV2qs95REEYgEu3whOe7D9kXcrmei1Bru2WYVgAVtajtr3oikzp/+rDvYguAwTkKc7N5u1DQkQ9aJWpjvl7ksqJ9Q9svKxu0TvCnVDgAHmsPgbEgFKlM1N8dAQCFpanxw8GgBT+Fl4RqCpqbn856nqdXh9V1YOsZvmA4oUiX0QQNBX1SiwRhmZxVJJdZPuquGguZ9NmAXUwKH+vXSxCYW5I8n86gUttVq8S6Rp0yzjuDXb199Trf5cAfP5eUAA9QsLU9BsCCIpZeMdb3UkJMOVNjZ/2MTGWMoZhcsjOLc0lUSm9W+7fqRy7D7EdLrJU1QacRv6rcoOi6iHR0RZgy6hvhjgCgNrGzE2fPko8ORSKCnZgrFFIpLbkaZcwjGA5vcxsUiblZ+BfmLCQCHd1REAWgpFc1weqJzMKZk8eCwZCPDi8JNz6fLVex0ZEQ9QyxuYBga8c+v7d9NHwz6KXnIdDW3ULKqG+UzUUAUEgunQ6QtP2KTPVcD/b8dAqV0ujVxnxda0GEunv3Ate45GKQMHt6Y8RYAICWXnqvsZ6XgmvbJ5z43IIv1CICeY7IL85oe0t75huxUuRWV+8wCeH7ShHws5knAWiJBYORaCsUsfRR731GCM89U5w6O+GHV1FICZmKFzMLiylUpFbdN6sBgBjraRncvl02BbV8JBcjgiM5WZHWNihSabdEvZv6EIDEwvHDx0zzykamqqrVABKzGc91Sqj1zOuuIXVjAjeM7UZrZ9TvcpUavq5XPeEh2tPXjgq5tN1V7wgJlBILh0iKK+qQkAAYZ8hOjesUsmp7a8PVmTcKIxjah2A41Cx1fnwlF2MEs6O7HYpY1avGeo8Oy6eSP5KFTK7O510XEoABIZMTYwlZaaClN6u1MV83hNo693oSpu/7PmX47mkL9A62cc7DqCVXve+LXMcZLZ0/c/5KLhgFCCy9VMwll6ojIRplzKN9+659drGI62oRAEmAt3a3BCOR1VRjPUdIAsimTh953avzidcCAZDEUJoaS0M1LW1Y5Km6IHW2b9u9vTlkloK/5CJAWgEjFGvvQEU1anLVExKAk52eeJ1fofa8kgDTNBA/O7rkOk6187TukacAwBjbyXv6B5pFagF+q0UpQVaAhTq7u6EkVwiNUY0q7DmZOGQUc2nvCtRQ8CQQdG1hJxfSsmLIV9eDqKu9xa3AkBuIdPidTlYN320uEMHs6OkgohCAIJT0qnt0BAAhPG/SOXPskHMlWrkwjuzMuayTXtL+La0SG2JvdQ6N3JzNF3xPhK2G7+SSkAj2DbdbgUAHFLl0lERD/F2LR9/8LrsCrVwMzpEaPZ7MZbJpVOwtnbZfb3JZ0cFtNzfJluIF+E4u4QlYXb3hUCTaBSW1QqgED9bbqC8sToy/1gIn3cj6XZIIKBaEMz8Vl1JW5yfqFP56V2nubtm2+ya/U8mWw3dyESSMWFuQhSKdUFKrWjXW/XLCc4/lThw60sjIVCKG4uJsITM7FYcikpZaWi3WVSWaltXntXbtNLjvr7MGvt+NShZlCHb3dBIQQcWo19KrnmBSysmZH33/u+FQCI0JTSF40gNNno7ns9nqeqe6mG7dnafhtvZbHCMY4eT766yB73dDAGzHQ2x4R5dhmm1Q5NIuiXrfnwAgs/Oz3/Bmx6e8Bpj1QkpQoeAuHH5zErUtV3TfxLruJwKgWP/wHVJK37N9lsN3cgGA9Fy0DGxvZ6bVDqUWg2hQZCoA5rnu4amXv/FNVufcPiKVsl88/sZsYmE2iUpXjBTqWTmwFlZwZPddvAm75TYFuRgB1N4ZYYGgllxaNTbCmeoBEEtjp/6CZsenqvUTXcYBAA4YQsV0afbN709IecH9kCofdSumWw3G+VBgZPeNzWbMA81CLgAlGBTrH+oH0IKKamxE2rAE4Hmue/Lc1/7sv5qunRfcgCMJRSHLBzZ1lCQBVhCW54rJF758Ore0uASlAlNQvRN1A/S6t1wJRWN3UKyjtZn8Wxr+53yjbHfZNrr33DiwcOJwTAihN7J1fFc9Cx/o5uvFTCL+t6f/9Pdi7bff81TXtl394XAoIARoM72pCIDjujI1OlNcOvzD2fjZU1NSXuibuFg+NLnqbW8h2NV3b3NUw1iJpiCXBMCJYA5s6ybGo1Dk0g7VepML5fPZADLZxOLf5l/6xtScZd1oGmYvYywKlZFE2ED9JQJBSIliIW+7tq03qFMAZsvHAhTR6u6CAGB133TwHuG6aKZtH42mIBcAcALcaGck0t7Rl1qYCwMIo0Iu3bK4XpCoRIWmhOedtQsFz0ZhCUA7lFq+lMWEKJ8zDmAKilwJVKRWXcnFON8R3Xnj9qYqn1iFpiEXAXAl0D60bSi1MBeCIlf1PmO9yaWTJZKouD1KADrK167e31yPZNUN4LXrYQmKWDPl7wtoQKMoMxS+3QtH25jTnD0/m4ZcgEoeNXoG+6BebrXdxVB/lSKhyJQp/9+FUmdRKMlVXRB4I+fSK9E8Kn2qk1Bkq7utBQDtQ9vuKDqOxX0La5brjk41uQQDhF992FTlPYLZN9JlWlanY9thVFwSjVjV6v7Y2hayoUih8yg3qxb1+XQ4c8Ni5ctoGThwx50Z24ER8Kckuiz/w9Z4tmpySRLSk1LCN1evlOCdXS2xrp6h+PTkMdS6JBox+7W00Z0r8ri8ck4CSgJ6VV8bUsyIGNtjDOzYbbBGbMFuHIwAWiOXrYZcTHiukI3ZMd4QpAQPtPBgd/8QpieDUD6vRtldF66KisQBLr+64XL13RA/QaSt/YacERr0k1pSqp1Uxuii5BImPN9S3gHdAIHB7BnoYUStQkodQNiIjKBqyDW+b1ZQ+9D2O23XRcgyfbsJCYJnO0J6rlfz4zIqol/KkptJJYWUvma9ea6L6MiuzlBLpB+VraAAmmQ3oUnQGtm+93a/t3wMzlDMZt1CoaD3S6ultqx+YcX43OySxf1t4UtSwurpi1K4pRe15Gq09Noy4IYxZG7bcxsnf+0tACApJITQvhBRddRIA8f07KzfPQoJEh4PULizpxfKLaBdEv7J/yZDa2f3bQUj0GZwf+eakACzi64hvWrJpRcwNZIr72WS847PZbUJQMlx0L37hgHDNDqhJFd1CM41j1Df4D1EzHcxzjlDNp1yCoViEVURJ+Xva15WKRVfXAyajU9eWA8EgIRAaGRPN+NmBypREo0IwdmKCLftO/CAz0ILgHJ6UyFne46jo2v1sYJcsJPxCW4YvjbflgAMAtzWtpZga1sfFLmqvfVNMKz+wbCsvdb2vXuMZggOlALFxfm8lELHqWmSCSinfAW5VHLaMgy/nPQ1sAWjjpGdQwTEcJ1cFxCKtd3rGoGA3zHNEoAUAmTni7LiNNaHh2U2F4TrzohUfPHKFhpaCQIgXRctwzt7wVgESnpVb8tcswj3D98LH8ueaxARpF0SbjqZRWVnolpy1b4oKcScE59baIZZwQkwBnb0GKbZjordda2TK9qz/45bXLsZoiAIwil6RUUuD2qHw0ZVU9Jackk5WZwZP98MLQoZEbxwJBjr7h1GbZREI9q4bAlw0zwYHNwx4rfzFFBhlCKVKGaTiQwq+7M64dcDIJeH3BTnThzG9vLQAAALD0lEQVQ9vvO+x55wiyXfjRsJINw7OBifHA+jss9oorIPuC44o6HeSOihGKd+IlDalbMzmcK3hZSTVR9r1J4liKi9uyX4SIdJ2xljRtoRc7PZ4iuuEKOXcv1QrP1Wm1utzPO/3Z0QEiI+l3HsC+U4dZmCC3X1V8RzldJLR7nwbEdKy+9yPIwxBPtGeolea5FS6tBnExc36sP7+zt+8V/e0PMvhizZbXIySQI2pHs+587/txOL//PofOoPoUKQq2PF6kUyPtIe+elfPDj8q3ssb1uLwQIESSUBZ6bgxf/wVPzzP5xN/p6Ucqr8LBu6ft++G+8slEosaPobhkdQ+Zn23JSuUF1CreRa6YoAADufO+QszsWbZVEW6B/psILBTlRU47r+LgJiz+zq/pPfP9D1m7stMRhkZHEQMSIKgsx9Lebg/7ij73OfOrjtzwjYjUoN/HrlSAYeGOr4L//3Xf1/fFvA3RflLMhARGAIMmbuCPG+37mt+1/923fv/pLB2B3lZ9F7p+tdvyO6bc+eOtzfZUMAMOHKxXNnEqit9aqLCHvASnIx4Xmnk0fePIIm6B1DAGRL2ApEYnqfUUuutUos8Ue2d//WZ3bEPgrOAc5rY9OIACJ4xPAz/eZjT9809DtEGIQqI2Ctc94N3/L+/o5f/o29sV8C5yBurIyNYwwuON4fcd/1s3fu+l0i2odKfYw1CUaMbTP7hnf4nUJGULXHMD+dySl7qzo4sqbj7XIGSQCl5JnjLzWD3JJCwAzHzFBHVy/UC9CqcVV/V3es5alf29f+adpAGIoDjl/d2/7kYFv0J6H2MKOoRL1e0uOHA9Y9nzvQ/1kyL665hRXEJzrp/v197T8HoB/Kn6c75674YzMU3uYGo71GE0x6GAZyZ48vSs/TkbbV5c9X99DrH2YX5r9DhUwTbGID4AZ4a0cHajOxVyOX8dFdXT9PUrANcYMxuMUintvb+yznbD+AVqhFw6UaNPyB7T0/EbOzUeIb2WMnFD2Bf31g8FmDs1sBdEJJ0FVVdFtv/95sscD8XikKEIKeK+ZPHV8UUupe3bqw3bqSCwCk5zpjhWNvvnZFKvBdBEIIhDp7WjnnrahVjTX3bhn8tieGYrfTJsJ+XRAe7gnvjFrmuwB0oSI9Nq0eCeh9ejD2uJJaG5mUEjBM7GRO10Cs5W4AfVAE12lt1SfhVnvX7mZocycYgz11NmOriom6qJ2u4KMlF4A1yAUgPfvWa1/nhgm/W31IKRHo7G4xrUArKrbJik4bbUHrjg4uI5txAEvG0EEi2BEw90CppnYo1btp6dUSDOzcFfC2bYbcACClh12d0ZsADEARvAUrJ0+kdWBkpxT+BnJKACbjWDrx9qJTLFSXh8qiYnNd2D5YjVwCgJ1NxF8Oz505WnQbUWho4/A8D6FYR8AKBqKoVMBZYRsFSXZyEN8UuQBwKTHU1jII0ABUzmJL+fybemyLZLfJGF3K7sb21pYBAD1QqlHbftUnCqO1a4D73FpYMg4vMVPMjJ2cFpVCKxmorKk8lvWOXEtykZTy7PG/+eJfhsIt8HOrkRNBhkKWYIZ2Q1SvGC9AgFxJwKbqJqjm0wgwCkNJrTZUyLUpHSRBYvN+QfV5g5FVvr62+2oqKzLGwsGOzm5/+ygSCBLZw6/PZJeWlqCkls7P1FKsxru71gB6ALxCMvGCd/KtI66Py19GgC2JOULqJgjVBXkv3FgJlPBA3mb8oHpZvViwbUDqbKNLCkwseGLB9UhsriiIUnPTmWKhfO3lG/Tq+YgMZlj+JCeWIYjgzE3m5995Y1xIqTPLk1AZ5VmsUh5qrQEUAKQQYnz0hS//UVA6JV/nDHECkXZ2VmdhXyBXqlB6e8FFZjN6g0Ni0YO7ULALWNlkYVMzqmg7k6dcOic3mVYsGMPppUwa6pmW9/uWACA8zybPKfqhEyt7U55Mv/r3Y7lMRttXSag6GNW1x2rucL3Z6QLwStnMtya/8vznBXF4PmQGeRIwhO1ZRB4qhvwKctmud+yvx5OH+Cay/g1GeDOeTy8WnAwq7o1LzVtc+NK5pRfVvt8G/pwIXHg4VuLZ84lMsvxH+pnksvso5Rdn53zpFwkA3EDhtW9PzJw6NgW1IkxDFVuJQ5Fr1VoYa5FLx0MXAWQXz5z8k6UXPv+1QMBCI6sgrwrGUZiZyLr5TBa1LfOq750AlL58euH/CG56G5nhHBJ5kPz6dHayWCoVoMZRh+leSsBU4ZVzc19NtrQmyLt4SAxJAYMzfGEsMVFyPR2DXr3xW10CIJ468c4P3StscwkQJHGkXvnm5PirL41K5ddKQ+3JzkHVHtPloVa0m9nIupkBENn52bHcmWNuuHdghEdaQ0TU8O1HSYBIJ+3kP35zNDk/O4PKg81DzRhd54EAGAXHnZ9wMPBIV2C/pLUFEANgQOLPpwozL5yZOy2lzEEN1CzUoCWgZuNmSGa6QiwcWizEPjIcu0di7R5DBCAkBf4m4S7+1ej8qOu6mfI1Z8rX18XitDTwcgtzmaGb9j/khCJtrLyN1TAQwZMSPJsspr77t2OTb7xy1nPdPNTKcB7ARPmYQUVyrRiri90hg7JD2qCWyjsNK3Bb58j2uygY6iQiixEzIEGocwdJCcCA9BYmzqWKyURCSiwCOA/gOICTACahHkyvUCwAYSK66SN7ej/3Kzd2PiIcF45U/iygnBPJCK6Q+Kt5Z+6P3h4/XnKcFNSAjZXPfQpq0DLYXNE5A0ALAdvuHer89c/d2vN0SEjDkbLm+iYBYISX4vbS774zfTyeLcShJsw5ACfKxwwUwdyqc0cM07yvfWD4cQRCO7hhtDPGI8So/iESxMgr5krJyYlkKZfJS2VPZVEh1pny/c5CvYNVa49djBAEJd1CUD6gfgAjAIZR8ShX17Kq93TSk78EJVnGoV7+WagH01GQQPnlAmhnRLcc7Gv7qU/s6njw7u5IL3ccgAhFIvn2UjH79Yn07MsT8QnX83Td0kkAp6FIe758rc1KLgY1Fl1EtGN7a+i5T+zpef97B1qHQsJlBIkSMZxM27m/mUrPvzydmsjkClkoaTxVfqYTUC9tAbWSi0P5v3oB7ACwF+oddENN/kaMPVAxFQpQq8IZqHdwHpUJoFXiCmzkhgjK1tG+oD4okvVCOf3CaFw7FUA9YAFKbUxDPdg0lDFZqPocg5JebeV7HA5b5rv7I8GDIel2cKKAyw1M5Ox0Ol/ModLZQkuNM1DSaw7qhW+2qg6Vrx8rX3/QMo3bByLBuyLwug2ioMs4zZREJp7J6ejNQvn64+Xrn0XlpVVfn6DGuQPAEIBtUO9A77k2glza7nOgJnEcakJPo6K61y19vhGRqg1NXR1Rv+wU1IvUzs1GkqtYvp4uYFstsVD1OX2fSQDhvO28cybhxKEmgt4+Msrn1stpPRtnUWvrbNZ61uOkzxu0HffEuaVsGops1VtLuvBcCupFaftlaZ3ra9/SPNQ458rP1KhWNnpRp1ViEopgS1CTryYCYjVsRl/rF6dfdga1TsdGqUVdv1Q3Z8pg7U4U+t6030hHedrlvwtDTQL9LAlUyksulD9zObVL9b2mUVnV6syYHCrk0rXAlqDIpQ153eFstTJMWtJR+ft01fkaJbn0hCmh0hireoN63XHaKLn0S9QDr2OmU6iEHTdKcumBdVDJMFmvC4WLipTVLySJ2ogD/RntCEygPh0udK3VYvncOnEhjVr7VBfm1R7uBCrtW9ZaROhx1y9cu2aqx73e41+tGnVmz4Xsnoud4P8DThd/ZewonbIAAAAASUVORK5CYII=;fontSize=7;spacing=-3;" parent="1" vertex="1">
          <mxGeometry x="130" y="296" width="21" height="21.83" as="geometry" />
        </mxCell>
        <mxCell id="r_LDuMVwWnfsW8-giX2U-19" value="Memcached" style="shape=image;verticalLabelPosition=bottom;labelBackgroundColor=#ffffff;verticalAlign=top;aspect=fixed;imageAspect=0;image=data:image/png,iVBORw0KGgoAAAANSUhEUgAAAJcAAACdCAYAAAC5BOofAAAABHNCSVQICAgIfAhkiAAAIABJREFUeJztfWmQXNd13nfufe/1Mt09+75gB7gB4CpxFykqpCjKpESRFiV5keJKZCt2bCcuJ5arEkeVOHZV7HIcp+I4sePQtsqypEiyZVGWTZGSKYqiSBEkdgyAAWbfuqf35S335sfti+6eDTNAN14PgK/qYQYzPW+577vnnHvuWYDruI7ruI7ruI7rKIM2/QdEvcFY6z3tI7veGx3ZddAOtnTLSznROpAAmHTtoF2Ix8+dPVZYmHkrszD3fSnEOIBcHS+1FcCJsYFQrPVd4Z6Bu9pHdt6MWMeQSyxQ7wtJEAU9O1OYPnc0MTb63ezi/HellGMABNQrlps532Y4EW4bGP5U3wOP/iwN7blFQoIAmJxv5nobhgTguB4Yqbs07UIic+i1Fyd++MrzTiH/IoACAFb+6KYeeqvAsAJ3dd+w/1MddzzwQXT2DUtICCFgcA5G9ZzOFbhCwBMSnAAzn5qc/OaX/yJ+7vQfQMpJABxqrMVGzrWhO2SMDfffef9vRR/4wMcJsmGEWo7qqeIJAVdKhDnPTX79819YPP72b0opz0ERzMMGH3iLINK9a98vd77nic9Qe3cfgcAZgYg2Lz4uAfoajifATAPOsTe+d+aFL/+a5zg/LP/KhRrvdW/loiwhxgZ3P/bh54O3P/ikyRk4Y/W4/02DEcFgDK6QVuym22+LtbbelRo7dUoKMQ81Hldi3BsOYmxw5J6H/qDj0Wd+gYLhiMk5WJlYVxqcEZiUcNt7Rwb23vhQ4tihI8Lz5qEm9EUn88XIxXbd89B/x4F7nwpapi8PuOKGiCCFB+oeHO7dc8N7l46/c1647kT511pF+n+jlwDG+fbt/+RDz4dvf/CDjPk3kZfDYAQ3FGuPtsZuXjp9/AeQMgc1zh7WmdDrkqujb+CnzYc+/NlIKMiagVgaRARGgBeKtvXsvem+zOiRGde2T5d/vWGboJnAON9zy4c//udyz8EHAobRFBO5GowA3jfST4vTkdzi3BuoVY+rjvea5CLG+nf82Mf+yGjv6r1SNtZmwYjgBSPR3hsP3LN09K0pz3HOoaIet4yhT4xt2/nEc38pd9387qBh+H07a0JKifZde3bED71+1nOdKVQItqoEW5M1/Tt3f0YcuP9jkWCgqd8QI8CxQi3tu268O3Xi0DnhupOoiOymB+d857ZHn37euuHWewJNTCxAzVrHCFlmLhnMzEwcA1AEYKMiwWqwOrmIWrc/8dwfGq3tnY1a8tYTDADC0Uj37hvenT75zhnXcaoJ1rQSjBjrv/GDzz5P+25/T8BoTu2wHJ7w0LltZ8/8j149LVx3FoCDCsFqsKrFGIrGHsHgjj3Nqg5XA4eE19nfv/cjP/UbphV4N4BQ+eBoTgM/vPc9j/5+Ycf+h6wtQiwAMImQ48GW2MDInQD6AbSiMs41WPWpBg7e9RvmyL6bWTO+knXAAJRa2tu7ujpuiI8ee0tKmSz/at1VjQ/gu+68+3e8u973yUjAakrmrwUC4AmJWNAKLpx45ziANIA8gBKUFLuAFZKLGBvsuuP+uyG2hMmyAhZJsH13HOzaf+evgGgEQBRAEOpZm+I9Du7Z9yt0/4/9fItlNscNbQISAGcAjewdDkWiOwF0Qo1xAECN0biCXFYwdC/v7OtlW01slUFEIOGh57FnH2/bvuczUA8fg3p43x8qGG19MvrYR/990FBbOM0kTjcKAuCZAaNtcHgfgHZUVKOBqjFeQa7YwNDBfMkONJufZTNQ7nqJ7c/+04/Hunt/HGpmtQCwsIFdiUbBsAJ3DD758d+jQCjEGduSxLoAKREd2rkNilgxAGEAJqo4tZxcvG377v1CCP+n+GWCpIQLbu58+pOftoKh+wFEoAbAwBoLmYbeD1H3vg888/u8Z3iHyfnWJhbU1pDRO9TNOW9H7eRdnVxE1Bcb3jUi5VZ/dAUGiVJrV9fAg4//AmNsH9QM82MFyXsP3Pk5d+ct9wbN5vZlbRREBMTaWoItkT4oYoWhTI8LmqGWXIyNmF39Q1tZJS6HKQWitz9wsO+W2z4NtXSO4Qob+J3D2z4TfuAD/2yr+LI2BCnBQ1ErGGvthiKWJtcFzbCMXLxLRGIdfIsa86uCCBAOOh/76JPR3v5noAzQCNRANFw9WqHQfb0feO7fhYPhq4hZaiuIAhYLtXZ0Qk3WEJatGGsGt7W7ZySbzTbHVnwdQQAkEdvxoZ/8pBUM3Y2KjdBQ+4uIerY98uRvO+HWrq26+l4LBICIweFWCxS5qiUXAcsGlrVEByBl0+3I1wMMEm5rT0fvPY98mhjbhYqd0DD7a3D/7Z+lPQfvC10ldtZySBCCba1hIgpBEUyTiwO15DI6unt7So575ZdSVwhcCnTf/+htXbtv+CSAPij1GEQD3BOxzq5nzPs+8OmAwbf8ynstECNYHT1RYqwFilgm1rC5giza2mvwLe5/WQdEQKlYRO8Tn/hQpL3jUVTsL72ErgsPuGHs7n7smd8Ot7QEt6qjdCMQQgCmZXJuBKGIZUJN1BXksvLgUavJwz4uF5wAaZrWwPue+iTj/EYoJ6D2f9UDbNf97/3PrHd455Z3lF4EnicRiraawWBAj1+15KIacrW3d0RKrnfVinENDsDccdOOwVvf9SkAvaj1f10Wor0D/5zf+uCHmjnor15gBJBlGUKluVnlYxW1SBQKdfV0X71CvBZEQOyBJx5u7e79ANTqUavHSyaYaVn7ex79yK+TYRhX46JoORgAQQbzJGmJpY35FatFw2VGgF3lolyDSQkEg9bw+z/yCW4Yt+Ly3ROhkfve9x9ZV/+Q0SSJFQ0HAY4EeRVbS5OLAagZBeYxbvFrYMZpMCEgBncPDhy862NENIiK937T7omu4W0/g/33Pnm1uh1Wg+cJBAMWhQIWw0UkFxeMm9cOtdQIMOGi7aEPvjcUa30PgDYoCWaikgt5UZimdXP7Ix/+bDBgNu5mmxBCSgRbooYVDFjlH2lirTDoyQPj14KtUA1OgEuGueOxp3+Ccb4XimBaPW5kMKxt9z78H6i9u/9akvpAeeeDSZKSGMqqEBWC1ZKruSKBrwykBCzOILbfuGPg5ts+TkRdUO4Jvbm9Ltp6+j4qDtz95NXuwlkNRAAkJ0moJpc+lm1cCymuPXqpTViDgI6Hn3xfIBJ9EEo1RrEsPmk5GGMjQ+978t8YZsDcCllSjYAgoCy5LqhD/bvqgZOMhLhaYrk2C5ISTqglOPLAo89yzndBkUtHV67KnL6bb/2lQs+2m0PXoNQCKtnHomKfanKtUIvXPAzhIXTbfbfE+gYfRyXxYNWtoVAk8nD7w0/9XMjY+lGllw5tScnyf2qOq3aP+pLAANglGyMffO4p0wochDLuI1i2eiSi1r73fPA/CcMKNkuxEF9BFwz66+RaCxKAxQilWFdn/4E7PwIVOdGOyt6jBIC+3ft+lu+55R7zmpZaq6JmgXidXMsgobKKow88/mCkreMBqJWj3hoC4/zWocd//OeNLZSNfoWxdmrZdai0NBYIGb33PvI0Y2wEynNvArD23v/wLyXIGrKuk2s5Vix6rpNrLQiB6IG798QGhh+Hsr1CVij0Y+btDz8Tsq4tT/yl4jq51gBBwpaSjbz/6Se4YRwgou03PPWxXysBLdeN+I3h2nTQbBCGEHC7hrr6brntSZnLHCwO7LkjZHBcq77AzeI6udYDAcxz0fv+Zx8lkCx58vrqcBO4Tq6LgBHB8UCAoGt1i+dS0RTkkgAE42CcQwoB5q0oUucrFKeajFhEEMRAXKlpcp1mu0P/ySWJwCCke+z1+cWx0XTr8I6Ise9gDzNDV3Ee0uVBguC5jsS5E/Gl08eXWrp6QsGb7+yVwYjZTGPmL7nKaVez3/rKWPzIm2Oe47jx4++I2JEfdQw/8dwB0dYdoiaTYn5DEgNzi97it75yeuHE4WnPtUuccTc2Njow9OGfPigNi1OTLDh8XVN7EpDnTyUTh9845zpOUQI513UTifGxI2e/+McveoszWXndWXkBghjIK3rjX3n++OzhN8+5jp2XEjnX85Lpc6OHkq+9NApqnvHylVwkPRn/4XfOO65bgqqrGQcwDWAyszj/2tkv/slXkU0W5HW/EgQIXNje/Df+6tTS2VNTUlVQTgNYADDlCjm2eOSNl9z0Yr5ZdvV8uwsPAFuczcYnziegOpAtAZgCcBrAcQCjxWT8W2f/8n99QZZypeYQ9P5AEsHgkPEX/3ps7tg741DESgGYATAG4CSAU/lU8uXiqcOnmqV9iG/kIm4gc/pownPsHFQPxUUocp0DcAbAKIBzuYXZr05+5c++zgyziUzVKwgiSCIsvvri9PSh18eqJNY8gHFUxuoUgFOZ08e+K2Vz0MsXcoly3Hp66lxKSFkAkIEi13TVMQVgAsB4emLsC7nX/uENwZrHnrgSIACCCJg+m1l643tnhBAlAFkoVTgJNRHPQ43TNICZ9OzUP5oMTRFR7A+5CGD5lFNMLqWhWnykoeytRQAJAMnyEQewIDxvdOyVv//f7tTYvLiG7C8BgNm2mH7x66dyuUwWFbt0CkpqTQKYRWXMUnaxdFRMj4971yq5iHGU4osFaZfyUPZWGmpwMqgUzHfLv0sCiHu2/YPZv/9/n0eTiPwrAQ+E9Pf/7nxianwBahImoOysifIxBzU+eajxsgG5lJ04fUJI/92+vpCLcY5CfK7glIo5KCJly0ceyqbQbda88u9TAFLpuZmvOW+/+rotJK72nRiPcdDMWHr27TfGocZA21mT5WMealyKqIyXAJAtxRfOM+Z/1Q9fyGUwhmIyXnRdpwg1cHlUiOWikkCpW64VACSllOfPfedbf2q5dt69ipPgJAgGPDn3vX84X8rnMlDPH4eSWtNQNlcSiljLW88U8otzZ5pAK155cqk2rhIylytKCRtqgArlrw5WZubq7mMFAJlSIf+9xW9/7e+uauPeMFA8fXQpM3V+TqrJl4Qi1CyUxFqCGo/qiajhFfO5xaBl+h4a5IPkIgjXRS6VLEBJKhtqoNbs24dyP28oAs4snDz81VavmHauRulFDGQXZPLNV8dLpVIeyk0ThyLWHJTdpW2sVQfALRTmDJK+D8+V7yQBgEkBJl0XaoBKqHS88rA2uYT+nFMqvTL2wpe+ZZhXn+/LkxL2qSOL8Ymzc6hIrXkoci1CLXpKWKfVsuvY8VImk/G7gvQVJ5cAID3HsypkcsqHbme7FrT9VQSQSJw+8SXKLKX8XxPVEwSSrpz/0fcmXNcrQREpDiWxFqGM+tXsrFpIuHBKpWtOLUoA0rUFXMdGhVxaHW5kNFwAwikVX0u+/vKr4ipZNhIAlwB5fnQpNTO5iMoqeaF8LKGiDi8CWbKkKHk+68UrTi7OGEq5okhlMtrGqpZcF2sZrI17G0Bu4dihL5JwvKtBNQoAFoecf/PVKeF5BSjXzBKUxFoq/1+rw4s9ssOFe+2Ri4jK3UaF9stUd3ff6Gg4AEqFbOb73sm333KF3PLKUTAOd+p8Nj09viiV6ktBESuOWkfpRuByKRy/u8/5oBYlCFLwiir0UDHkN+J+18a9A2Bh4tUXv7TV67hKAJZhIHH0zXm7WNB+LS21ElBSSzuXL/qoEiiWsulMA295Q/BltVg1OppQmjAbhXZN5HOJ+PfDmYXJkrd1e0QKYhCZuFOaGl+QUhahDPkkFMHSqPi0NgYp7fnFeDEU8Hc17c/2D4EkpFaD1cTazFgIAEIKcWr6e//wEnFjy0ovzjlyZ06lUgtzCVRCarQ6zGF15/J6IFdI8rsEaTOEGMhlXzfzdx6A+MLoiZejJvPdgL1USNdBaXx0wXXdAhSZtNTKQNlfazpM10IzSHEfyUVaQ27GkF8ODwCcYvEHhdF3Tsmt6JYgBpleKiXGRuegJFQailgp1Npam4FohpZDzSC5LhdSSnF29s3XXrcCAf9HdBMgAK6QcCZGE7lMWhvy1eFHer91S2Krk0vba25ubuo7zCkUmiEaYKOQUG0mUqNHF6BIlIMiV6r8fQkX88Y3MbY6uYDyOyrmsq9mz56cIL51VKMHwCpk7aXJiTiUlMpCESsN5dfaslILaA5yXS4bJAAhpZzPHn/7B0JSUxizFwNBRZo646eXPLuQhyKXdkFkcYmGfDOhGchVD3gA3NTE2Le3ArGAcnlMw8Di6NG454kClKSqllo2tjCxgKuHXBKAm08n32CJudmtEKXqgWDZBTczO50sO05zUJKrWmpt6YSBq4lcQkq5UDh9+A3X5z21jUAyjuL0+axXyGagpFQWtQkq64UfbQlcLeQCFMHSCycOv8K3QAlvy+BInTuVLBUKWlKtlqSypXE1kUsAKKQX5t4MuXa6mb31kgjkFGVhemKpnBScx1WmEgGfyNXI1y4872zhzNEjzZAUuiaIwU0lSl42mYEiUh61UuuyVaJoguf3jVyiMdtfBClnl0aPHjEs6+Kf9gnECKW56VwumUyhYm/lUElUuWypZTImVcicf/An+0cyaqDWyifGx94OmNxrhtm7GsgTKE6dTzpqo1pHnV7yJvXKC5DV29MVKtruNRYsKAUMgxC2ajoe13UM3GLxOJYWF5vS7CKC5zkoLUwvQXngdSRE3bZ7CAiY4WjU7338K04uTwhY4RYejrSYqL/5JQGQ8NyTxYkz55sx519KCcpl7ezCXBJKBWp7q4g62VsADJeY5XeErg+RqATGDSaIGRd+VPv1siGlnJk58tYRswntLk8CSMxm8tmMllSaXAUoSVYPQ8n0mGH5XdrcnzBnRuRKutBoG/UnmLQTC+8w6TVVZpB+uPzk2WS5iFsJFUNeV/a5bEjAsLkR5NdaUiwR4ElGjpSaXNWNIOsBCYCK2fQhWcjn63TOukACMDhDenpC21s6Xb9aal32fGCMmUYgFPJ7PeODQS/BGINlWQZWdnSvF8HIte2TztTYpGgis8uTgGHnnPT8XBpKUumVonZB1GXLxwoE2hEIRK65jGsAADcQjLaFCOBQR3UL23ohlT03ehyyOdhFADwiyPhc1nNKmkw51Ba7qwsbyLDapAS/5mpFAGUnqhmwUCGWPup5CS83Pf6GkM2xia2iThky58+kpOvqumTaz6WlVp3IZUZdV+CaNOiFkDCCIZMxZkJ18dAqsp52l5tJLLxjcfhtegBQNxQ0OOLj59KeELommS7bubzo3WUh1traVXT97zzii+TyhIdoV3fIMM0gau2teqpGYRcKp9lSfLYZQnA8ANwrekJlQuuid7ny13VLIm0SRJHYsGX43tbJp6RYKLUoiLRqNMpf68oBKeWSPXHmuNsEDgliHPmp8Zydz+h0MV2qs95REEYgEu3whOe7D9kXcrmei1Bru2WYVgAVtajtr3oikzp/+rDvYguAwTkKc7N5u1DQkQ9aJWpjvl7ksqJ9Q9svKxu0TvCnVDgAHmsPgbEgFKlM1N8dAQCFpanxw8GgBT+Fl4RqCpqbn856nqdXh9V1YOsZvmA4oUiX0QQNBX1SiwRhmZxVJJdZPuquGguZ9NmAXUwKH+vXSxCYW5I8n86gUttVq8S6Rp0yzjuDXb199Trf5cAfP5eUAA9QsLU9BsCCIpZeMdb3UkJMOVNjZ/2MTGWMoZhcsjOLc0lUSm9W+7fqRy7D7EdLrJU1QacRv6rcoOi6iHR0RZgy6hvhjgCgNrGzE2fPko8ORSKCnZgrFFIpLbkaZcwjGA5vcxsUiblZ+BfmLCQCHd1REAWgpFc1weqJzMKZk8eCwZCPDi8JNz6fLVex0ZEQ9QyxuYBga8c+v7d9NHwz6KXnIdDW3ULKqG+UzUUAUEgunQ6QtP2KTPVcD/b8dAqV0ujVxnxda0GEunv3Ate45GKQMHt6Y8RYAICWXnqvsZ6XgmvbJ5z43IIv1CICeY7IL85oe0t75huxUuRWV+8wCeH7ShHws5knAWiJBYORaCsUsfRR731GCM89U5w6O+GHV1FICZmKFzMLiylUpFbdN6sBgBjraRncvl02BbV8JBcjgiM5WZHWNihSabdEvZv6EIDEwvHDx0zzykamqqrVABKzGc91Sqj1zOuuIXVjAjeM7UZrZ9TvcpUavq5XPeEh2tPXjgq5tN1V7wgJlBILh0iKK+qQkAAYZ8hOjesUsmp7a8PVmTcKIxjah2A41Cx1fnwlF2MEs6O7HYpY1avGeo8Oy6eSP5KFTK7O510XEoABIZMTYwlZaaClN6u1MV83hNo693oSpu/7PmX47mkL9A62cc7DqCVXve+LXMcZLZ0/c/5KLhgFCCy9VMwll6ojIRplzKN9+659drGI62oRAEmAt3a3BCOR1VRjPUdIAsimTh953avzidcCAZDEUJoaS0M1LW1Y5Km6IHW2b9u9vTlkloK/5CJAWgEjFGvvQEU1anLVExKAk52eeJ1fofa8kgDTNBA/O7rkOk6187TukacAwBjbyXv6B5pFagF+q0UpQVaAhTq7u6EkVwiNUY0q7DmZOGQUc2nvCtRQ8CQQdG1hJxfSsmLIV9eDqKu9xa3AkBuIdPidTlYN320uEMHs6OkgohCAIJT0qnt0BAAhPG/SOXPskHMlWrkwjuzMuayTXtL+La0SG2JvdQ6N3JzNF3xPhK2G7+SSkAj2DbdbgUAHFLl0lERD/F2LR9/8LrsCrVwMzpEaPZ7MZbJpVOwtnbZfb3JZ0cFtNzfJluIF+E4u4QlYXb3hUCTaBSW1QqgED9bbqC8sToy/1gIn3cj6XZIIKBaEMz8Vl1JW5yfqFP56V2nubtm2+ya/U8mWw3dyESSMWFuQhSKdUFKrWjXW/XLCc4/lThw60sjIVCKG4uJsITM7FYcikpZaWi3WVSWaltXntXbtNLjvr7MGvt+NShZlCHb3dBIQQcWo19KrnmBSysmZH33/u+FQCI0JTSF40gNNno7ns9nqeqe6mG7dnafhtvZbHCMY4eT766yB73dDAGzHQ2x4R5dhmm1Q5NIuiXrfnwAgs/Oz3/Bmx6e8Bpj1QkpQoeAuHH5zErUtV3TfxLruJwKgWP/wHVJK37N9lsN3cgGA9Fy0DGxvZ6bVDqUWg2hQZCoA5rnu4amXv/FNVufcPiKVsl88/sZsYmE2iUpXjBTqWTmwFlZwZPddvAm75TYFuRgB1N4ZYYGgllxaNTbCmeoBEEtjp/6CZsenqvUTXcYBAA4YQsV0afbN709IecH9kCofdSumWw3G+VBgZPeNzWbMA81CLgAlGBTrH+oH0IKKamxE2rAE4Hmue/Lc1/7sv5qunRfcgCMJRSHLBzZ1lCQBVhCW54rJF758Ore0uASlAlNQvRN1A/S6t1wJRWN3UKyjtZn8Wxr+53yjbHfZNrr33DiwcOJwTAihN7J1fFc9Cx/o5uvFTCL+t6f/9Pdi7bff81TXtl394XAoIARoM72pCIDjujI1OlNcOvzD2fjZU1NSXuibuFg+NLnqbW8h2NV3b3NUw1iJpiCXBMCJYA5s6ybGo1Dk0g7VepML5fPZADLZxOLf5l/6xtScZd1oGmYvYywKlZFE2ED9JQJBSIliIW+7tq03qFMAZsvHAhTR6u6CAGB133TwHuG6aKZtH42mIBcAcALcaGck0t7Rl1qYCwMIo0Iu3bK4XpCoRIWmhOedtQsFz0ZhCUA7lFq+lMWEKJ8zDmAKilwJVKRWXcnFON8R3Xnj9qYqn1iFpiEXAXAl0D60bSi1MBeCIlf1PmO9yaWTJZKouD1KADrK167e31yPZNUN4LXrYQmKWDPl7wtoQKMoMxS+3QtH25jTnD0/m4ZcgEoeNXoG+6BebrXdxVB/lSKhyJQp/9+FUmdRKMlVXRB4I+fSK9E8Kn2qk1Bkq7utBQDtQ9vuKDqOxX0La5brjk41uQQDhF992FTlPYLZN9JlWlanY9thVFwSjVjV6v7Y2hayoUih8yg3qxb1+XQ4c8Ni5ctoGThwx50Z24ER8Kckuiz/w9Z4tmpySRLSk1LCN1evlOCdXS2xrp6h+PTkMdS6JBox+7W00Z0r8ri8ck4CSgJ6VV8bUsyIGNtjDOzYbbBGbMFuHIwAWiOXrYZcTHiukI3ZMd4QpAQPtPBgd/8QpieDUD6vRtldF66KisQBLr+64XL13RA/QaSt/YacERr0k1pSqp1Uxuii5BImPN9S3gHdAIHB7BnoYUStQkodQNiIjKBqyDW+b1ZQ+9D2O23XRcgyfbsJCYJnO0J6rlfz4zIqol/KkptJJYWUvma9ea6L6MiuzlBLpB+VraAAmmQ3oUnQGtm+93a/t3wMzlDMZt1CoaD3S6ultqx+YcX43OySxf1t4UtSwurpi1K4pRe15Gq09Noy4IYxZG7bcxsnf+0tACApJITQvhBRddRIA8f07KzfPQoJEh4PULizpxfKLaBdEv7J/yZDa2f3bQUj0GZwf+eakACzi64hvWrJpRcwNZIr72WS847PZbUJQMlx0L37hgHDNDqhJFd1CM41j1Df4D1EzHcxzjlDNp1yCoViEVURJ+Xva15WKRVfXAyajU9eWA8EgIRAaGRPN+NmBypREo0IwdmKCLftO/CAz0ILgHJ6UyFne46jo2v1sYJcsJPxCW4YvjbflgAMAtzWtpZga1sfFLmqvfVNMKz+wbCsvdb2vXuMZggOlALFxfm8lELHqWmSCSinfAW5VHLaMgy/nPQ1sAWjjpGdQwTEcJ1cFxCKtd3rGoGA3zHNEoAUAmTni7LiNNaHh2U2F4TrzohUfPHKFhpaCQIgXRctwzt7wVgESnpVb8tcswj3D98LH8ueaxARpF0SbjqZRWVnolpy1b4oKcScE59baIZZwQkwBnb0GKbZjordda2TK9qz/45bXLsZoiAIwil6RUUuD2qHw0ZVU9Jackk5WZwZP98MLQoZEbxwJBjr7h1GbZREI9q4bAlw0zwYHNwx4rfzFFBhlCKVKGaTiQwq+7M64dcDIJeH3BTnThzG9vLQAAALD0lEQVQ9vvO+x55wiyXfjRsJINw7OBifHA+jss9oorIPuC44o6HeSOihGKd+IlDalbMzmcK3hZSTVR9r1J4liKi9uyX4SIdJ2xljRtoRc7PZ4iuuEKOXcv1QrP1Wm1utzPO/3Z0QEiI+l3HsC+U4dZmCC3X1V8RzldJLR7nwbEdKy+9yPIwxBPtGeolea5FS6tBnExc36sP7+zt+8V/e0PMvhizZbXIySQI2pHs+587/txOL//PofOoPoUKQq2PF6kUyPtIe+elfPDj8q3ssb1uLwQIESSUBZ6bgxf/wVPzzP5xN/p6Ucqr8LBu6ft++G+8slEosaPobhkdQ+Zn23JSuUF1CreRa6YoAADufO+QszsWbZVEW6B/psILBTlRU47r+LgJiz+zq/pPfP9D1m7stMRhkZHEQMSIKgsx9Lebg/7ij73OfOrjtzwjYjUoN/HrlSAYeGOr4L//3Xf1/fFvA3RflLMhARGAIMmbuCPG+37mt+1/923fv/pLB2B3lZ9F7p+tdvyO6bc+eOtzfZUMAMOHKxXNnEqit9aqLCHvASnIx4Xmnk0fePIIm6B1DAGRL2ApEYnqfUUuutUos8Ue2d//WZ3bEPgrOAc5rY9OIACJ4xPAz/eZjT9809DtEGIQqI2Ctc94N3/L+/o5f/o29sV8C5yBurIyNYwwuON4fcd/1s3fu+l0i2odKfYw1CUaMbTP7hnf4nUJGULXHMD+dySl7qzo4sqbj7XIGSQCl5JnjLzWD3JJCwAzHzFBHVy/UC9CqcVV/V3es5alf29f+adpAGIoDjl/d2/7kYFv0J6H2MKOoRL1e0uOHA9Y9nzvQ/1kyL665hRXEJzrp/v197T8HoB/Kn6c75674YzMU3uYGo71GE0x6GAZyZ48vSs/TkbbV5c9X99DrH2YX5r9DhUwTbGID4AZ4a0cHajOxVyOX8dFdXT9PUrANcYMxuMUintvb+yznbD+AVqhFw6UaNPyB7T0/EbOzUeIb2WMnFD2Bf31g8FmDs1sBdEJJ0FVVdFtv/95sscD8XikKEIKeK+ZPHV8UUupe3bqw3bqSCwCk5zpjhWNvvnZFKvBdBEIIhDp7WjnnrahVjTX3bhn8tieGYrfTJsJ+XRAe7gnvjFrmuwB0oSI9Nq0eCeh9ejD2uJJaG5mUEjBM7GRO10Cs5W4AfVAE12lt1SfhVnvX7mZocycYgz11NmOriom6qJ2u4KMlF4A1yAUgPfvWa1/nhgm/W31IKRHo7G4xrUArKrbJik4bbUHrjg4uI5txAEvG0EEi2BEw90CppnYo1btp6dUSDOzcFfC2bYbcACClh12d0ZsADEARvAUrJ0+kdWBkpxT+BnJKACbjWDrx9qJTLFSXh8qiYnNd2D5YjVwCgJ1NxF8Oz505WnQbUWho4/A8D6FYR8AKBqKoVMBZYRsFSXZyEN8UuQBwKTHU1jII0ABUzmJL+fybemyLZLfJGF3K7sb21pYBAD1QqlHbftUnCqO1a4D73FpYMg4vMVPMjJ2cFpVCKxmorKk8lvWOXEtykZTy7PG/+eJfhsIt8HOrkRNBhkKWYIZ2Q1SvGC9AgFxJwKbqJqjm0wgwCkNJrTZUyLUpHSRBYvN+QfV5g5FVvr62+2oqKzLGwsGOzm5/+ygSCBLZw6/PZJeWlqCkls7P1FKsxru71gB6ALxCMvGCd/KtI66Py19GgC2JOULqJgjVBXkv3FgJlPBA3mb8oHpZvViwbUDqbKNLCkwseGLB9UhsriiIUnPTmWKhfO3lG/Tq+YgMZlj+JCeWIYjgzE3m5995Y1xIqTPLk1AZ5VmsUh5qrQEUAKQQYnz0hS//UVA6JV/nDHECkXZ2VmdhXyBXqlB6e8FFZjN6g0Ni0YO7ULALWNlkYVMzqmg7k6dcOic3mVYsGMPppUwa6pmW9/uWACA8zybPKfqhEyt7U55Mv/r3Y7lMRttXSag6GNW1x2rucL3Z6QLwStnMtya/8vznBXF4PmQGeRIwhO1ZRB4qhvwKctmud+yvx5OH+Cay/g1GeDOeTy8WnAwq7o1LzVtc+NK5pRfVvt8G/pwIXHg4VuLZ84lMsvxH+pnksvso5Rdn53zpFwkA3EDhtW9PzJw6NgW1IkxDFVuJQ5Fr1VoYa5FLx0MXAWQXz5z8k6UXPv+1QMBCI6sgrwrGUZiZyLr5TBa1LfOq750AlL58euH/CG56G5nhHBJ5kPz6dHayWCoVoMZRh+leSsBU4ZVzc19NtrQmyLt4SAxJAYMzfGEsMVFyPR2DXr3xW10CIJ468c4P3StscwkQJHGkXvnm5PirL41K5ddKQ+3JzkHVHtPloVa0m9nIupkBENn52bHcmWNuuHdghEdaQ0TU8O1HSYBIJ+3kP35zNDk/O4PKg81DzRhd54EAGAXHnZ9wMPBIV2C/pLUFEANgQOLPpwozL5yZOy2lzEEN1CzUoCWgZuNmSGa6QiwcWizEPjIcu0di7R5DBCAkBf4m4S7+1ej8qOu6mfI1Z8rX18XitDTwcgtzmaGb9j/khCJtrLyN1TAQwZMSPJsspr77t2OTb7xy1nPdPNTKcB7ARPmYQUVyrRiri90hg7JD2qCWyjsNK3Bb58j2uygY6iQiixEzIEGocwdJCcCA9BYmzqWKyURCSiwCOA/gOICTACahHkyvUCwAYSK66SN7ej/3Kzd2PiIcF45U/iygnBPJCK6Q+Kt5Z+6P3h4/XnKcFNSAjZXPfQpq0DLYXNE5A0ALAdvuHer89c/d2vN0SEjDkbLm+iYBYISX4vbS774zfTyeLcShJsw5ACfKxwwUwdyqc0cM07yvfWD4cQRCO7hhtDPGI8So/iESxMgr5krJyYlkKZfJS2VPZVEh1pny/c5CvYNVa49djBAEJd1CUD6gfgAjAIZR8ShX17Kq93TSk78EJVnGoV7+WagH01GQQPnlAmhnRLcc7Gv7qU/s6njw7u5IL3ccgAhFIvn2UjH79Yn07MsT8QnX83Td0kkAp6FIe758rc1KLgY1Fl1EtGN7a+i5T+zpef97B1qHQsJlBIkSMZxM27m/mUrPvzydmsjkClkoaTxVfqYTUC9tAbWSi0P5v3oB7ACwF+oddENN/kaMPVAxFQpQq8IZqHdwHpUJoFXiCmzkhgjK1tG+oD4okvVCOf3CaFw7FUA9YAFKbUxDPdg0lDFZqPocg5JebeV7HA5b5rv7I8GDIel2cKKAyw1M5Ox0Ol/ModLZQkuNM1DSaw7qhW+2qg6Vrx8rX3/QMo3bByLBuyLwug2ioMs4zZREJp7J6ejNQvn64+Xrn0XlpVVfn6DGuQPAEIBtUO9A77k2glza7nOgJnEcakJPo6K61y19vhGRqg1NXR1Rv+wU1IvUzs1GkqtYvp4uYFstsVD1OX2fSQDhvO28cybhxKEmgt4+Msrn1stpPRtnUWvrbNZ61uOkzxu0HffEuaVsGops1VtLuvBcCupFaftlaZ3ra9/SPNQ458rP1KhWNnpRp1ViEopgS1CTryYCYjVsRl/rF6dfdga1TsdGqUVdv1Q3Z8pg7U4U+t6030hHedrlvwtDTQL9LAlUyksulD9zObVL9b2mUVnV6syYHCrk0rXAlqDIpQ153eFstTJMWtJR+ft01fkaJbn0hCmh0hireoN63XHaKLn0S9QDr2OmU6iEHTdKcumBdVDJMFmvC4WLipTVLySJ2ogD/RntCEygPh0udK3VYvncOnEhjVr7VBfm1R7uBCrtW9ZaROhx1y9cu2aqx73e41+tGnVmz4Xsnoud4P8DThd/ZewonbIAAAAASUVORK5CYII=;fontSize=7;spacing=-3;" parent="1" vertex="1">
          <mxGeometry x="219" y="296" width="21" height="21.83" as="geometry" />
        </mxCell>
        <mxCell id="r_LDuMVwWnfsW8-giX2U-23" value="&lt;span style=&quot;font-size: 11px&quot;&gt;&lt;b&gt;&lt;font color=&quot;#007fff&quot;&gt;Reserva-tion&lt;/font&gt;&lt;/b&gt;&lt;/span&gt;" style="ellipse;whiteSpace=wrap;html=1;aspect=fixed;strokeWidth=2;strokeColor=#007FFF;" parent="1" vertex="1">
          <mxGeometry x="415" y="250.00000000000003" width="60" height="60" as="geometry" />
        </mxCell>
        <mxCell id="r_LDuMVwWnfsW8-giX2U-26" value="Memcached" style="shape=image;verticalLabelPosition=bottom;labelBackgroundColor=#ffffff;verticalAlign=top;aspect=fixed;imageAspect=0;image=data:image/png,iVBORw0KGgoAAAANSUhEUgAAAJcAAACdCAYAAAC5BOofAAAABHNCSVQICAgIfAhkiAAAIABJREFUeJztfWmQXNd13nfufe/1Mt09+75gB7gB4CpxFykqpCjKpESRFiV5keJKZCt2bCcuJ5arEkeVOHZV7HIcp+I4sePQtsqypEiyZVGWTZGSKYqiSBEkdgyAAWbfuqf35S335sfti+6eDTNAN14PgK/qYQYzPW+577vnnHvuWYDruI7ruI7ruI7rKIM2/QdEvcFY6z3tI7veGx3ZddAOtnTLSznROpAAmHTtoF2Ix8+dPVZYmHkrszD3fSnEOIBcHS+1FcCJsYFQrPVd4Z6Bu9pHdt6MWMeQSyxQ7wtJEAU9O1OYPnc0MTb63ezi/HellGMABNQrlps532Y4EW4bGP5U3wOP/iwN7blFQoIAmJxv5nobhgTguB4Yqbs07UIic+i1Fyd++MrzTiH/IoACAFb+6KYeeqvAsAJ3dd+w/1MddzzwQXT2DUtICCFgcA5G9ZzOFbhCwBMSnAAzn5qc/OaX/yJ+7vQfQMpJABxqrMVGzrWhO2SMDfffef9vRR/4wMcJsmGEWo7qqeIJAVdKhDnPTX79819YPP72b0opz0ERzMMGH3iLINK9a98vd77nic9Qe3cfgcAZgYg2Lz4uAfoajifATAPOsTe+d+aFL/+a5zg/LP/KhRrvdW/loiwhxgZ3P/bh54O3P/ikyRk4Y/W4/02DEcFgDK6QVuym22+LtbbelRo7dUoKMQ81Hldi3BsOYmxw5J6H/qDj0Wd+gYLhiMk5WJlYVxqcEZiUcNt7Rwb23vhQ4tihI8Lz5qEm9EUn88XIxXbd89B/x4F7nwpapi8PuOKGiCCFB+oeHO7dc8N7l46/c1647kT511pF+n+jlwDG+fbt/+RDz4dvf/CDjPk3kZfDYAQ3FGuPtsZuXjp9/AeQMgc1zh7WmdDrkqujb+CnzYc+/NlIKMiagVgaRARGgBeKtvXsvem+zOiRGde2T5d/vWGboJnAON9zy4c//udyz8EHAobRFBO5GowA3jfST4vTkdzi3BuoVY+rjvea5CLG+nf82Mf+yGjv6r1SNtZmwYjgBSPR3hsP3LN09K0pz3HOoaIet4yhT4xt2/nEc38pd9387qBh+H07a0JKifZde3bED71+1nOdKVQItqoEW5M1/Tt3f0YcuP9jkWCgqd8QI8CxQi3tu268O3Xi0DnhupOoiOymB+d857ZHn37euuHWewJNTCxAzVrHCFlmLhnMzEwcA1AEYKMiwWqwOrmIWrc/8dwfGq3tnY1a8tYTDADC0Uj37hvenT75zhnXcaoJ1rQSjBjrv/GDzz5P+25/T8BoTu2wHJ7w0LltZ8/8j149LVx3FoCDCsFqsKrFGIrGHsHgjj3Nqg5XA4eE19nfv/cjP/UbphV4N4BQ+eBoTgM/vPc9j/5+Ycf+h6wtQiwAMImQ48GW2MDInQD6AbSiMs41WPWpBg7e9RvmyL6bWTO+knXAAJRa2tu7ujpuiI8ee0tKmSz/at1VjQ/gu+68+3e8u973yUjAakrmrwUC4AmJWNAKLpx45ziANIA8gBKUFLuAFZKLGBvsuuP+uyG2hMmyAhZJsH13HOzaf+evgGgEQBRAEOpZm+I9Du7Z9yt0/4/9fItlNscNbQISAGcAjewdDkWiOwF0Qo1xAECN0biCXFYwdC/v7OtlW01slUFEIOGh57FnH2/bvuczUA8fg3p43x8qGG19MvrYR/990FBbOM0kTjcKAuCZAaNtcHgfgHZUVKOBqjFeQa7YwNDBfMkONJufZTNQ7nqJ7c/+04/Hunt/HGpmtQCwsIFdiUbBsAJ3DD758d+jQCjEGduSxLoAKREd2rkNilgxAGEAJqo4tZxcvG377v1CCP+n+GWCpIQLbu58+pOftoKh+wFEoAbAwBoLmYbeD1H3vg888/u8Z3iHyfnWJhbU1pDRO9TNOW9H7eRdnVxE1Bcb3jUi5VZ/dAUGiVJrV9fAg4//AmNsH9QM82MFyXsP3Pk5d+ct9wbN5vZlbRREBMTaWoItkT4oYoWhTI8LmqGWXIyNmF39Q1tZJS6HKQWitz9wsO+W2z4NtXSO4Qob+J3D2z4TfuAD/2yr+LI2BCnBQ1ErGGvthiKWJtcFzbCMXLxLRGIdfIsa86uCCBAOOh/76JPR3v5noAzQCNRANFw9WqHQfb0feO7fhYPhq4hZaiuIAhYLtXZ0Qk3WEJatGGsGt7W7ZySbzTbHVnwdQQAkEdvxoZ/8pBUM3Y2KjdBQ+4uIerY98uRvO+HWrq26+l4LBICIweFWCxS5qiUXAcsGlrVEByBl0+3I1wMMEm5rT0fvPY98mhjbhYqd0DD7a3D/7Z+lPQfvC10ldtZySBCCba1hIgpBEUyTiwO15DI6unt7So575ZdSVwhcCnTf/+htXbtv+CSAPij1GEQD3BOxzq5nzPs+8OmAwbf8ynstECNYHT1RYqwFilgm1rC5giza2mvwLe5/WQdEQKlYRO8Tn/hQpL3jUVTsL72ErgsPuGHs7n7smd8Ot7QEt6qjdCMQQgCmZXJuBKGIZUJN1BXksvLgUavJwz4uF5wAaZrWwPue+iTj/EYoJ6D2f9UDbNf97/3PrHd455Z3lF4EnicRiraawWBAj1+15KIacrW3d0RKrnfVinENDsDccdOOwVvf9SkAvaj1f10Wor0D/5zf+uCHmjnor15gBJBlGUKluVnlYxW1SBQKdfV0X71CvBZEQOyBJx5u7e79ANTqUavHSyaYaVn7ex79yK+TYRhX46JoORgAQQbzJGmJpY35FatFw2VGgF3lolyDSQkEg9bw+z/yCW4Yt+Ly3ROhkfve9x9ZV/+Q0SSJFQ0HAY4EeRVbS5OLAagZBeYxbvFrYMZpMCEgBncPDhy862NENIiK937T7omu4W0/g/33Pnm1uh1Wg+cJBAMWhQIWw0UkFxeMm9cOtdQIMOGi7aEPvjcUa30PgDYoCWaikgt5UZimdXP7Ix/+bDBgNu5mmxBCSgRbooYVDFjlH2lirTDoyQPj14KtUA1OgEuGueOxp3+Ccb4XimBaPW5kMKxt9z78H6i9u/9akvpAeeeDSZKSGMqqEBWC1ZKruSKBrwykBCzOILbfuGPg5ts+TkRdUO4Jvbm9Ltp6+j4qDtz95NXuwlkNRAAkJ0moJpc+lm1cCymuPXqpTViDgI6Hn3xfIBJ9EEo1RrEsPmk5GGMjQ+978t8YZsDcCllSjYAgoCy5LqhD/bvqgZOMhLhaYrk2C5ISTqglOPLAo89yzndBkUtHV67KnL6bb/2lQs+2m0PXoNQCKtnHomKfanKtUIvXPAzhIXTbfbfE+gYfRyXxYNWtoVAk8nD7w0/9XMjY+lGllw5tScnyf2qOq3aP+pLAANglGyMffO4p0wochDLuI1i2eiSi1r73fPA/CcMKNkuxEF9BFwz66+RaCxKAxQilWFdn/4E7PwIVOdGOyt6jBIC+3ft+lu+55R7zmpZaq6JmgXidXMsgobKKow88/mCkreMBqJWj3hoC4/zWocd//OeNLZSNfoWxdmrZdai0NBYIGb33PvI0Y2wEynNvArD23v/wLyXIGrKuk2s5Vix6rpNrLQiB6IG798QGhh+Hsr1CVij0Y+btDz8Tsq4tT/yl4jq51gBBwpaSjbz/6Se4YRwgou03PPWxXysBLdeN+I3h2nTQbBCGEHC7hrr6brntSZnLHCwO7LkjZHBcq77AzeI6udYDAcxz0fv+Zx8lkCx58vrqcBO4Tq6LgBHB8UCAoGt1i+dS0RTkkgAE42CcQwoB5q0oUucrFKeajFhEEMRAXKlpcp1mu0P/ySWJwCCke+z1+cWx0XTr8I6Ise9gDzNDV3Ee0uVBguC5jsS5E/Gl08eXWrp6QsGb7+yVwYjZTGPmL7nKaVez3/rKWPzIm2Oe47jx4++I2JEfdQw/8dwB0dYdoiaTYn5DEgNzi97it75yeuHE4WnPtUuccTc2Njow9OGfPigNi1OTLDh8XVN7EpDnTyUTh9845zpOUQI513UTifGxI2e/+McveoszWXndWXkBghjIK3rjX3n++OzhN8+5jp2XEjnX85Lpc6OHkq+9NApqnvHylVwkPRn/4XfOO65bgqqrGQcwDWAyszj/2tkv/slXkU0W5HW/EgQIXNje/Df+6tTS2VNTUlVQTgNYADDlCjm2eOSNl9z0Yr5ZdvV8uwsPAFuczcYnziegOpAtAZgCcBrAcQCjxWT8W2f/8n99QZZypeYQ9P5AEsHgkPEX/3ps7tg741DESgGYATAG4CSAU/lU8uXiqcOnmqV9iG/kIm4gc/pownPsHFQPxUUocp0DcAbAKIBzuYXZr05+5c++zgyziUzVKwgiSCIsvvri9PSh18eqJNY8gHFUxuoUgFOZ08e+K2Vz0MsXcoly3Hp66lxKSFkAkIEi13TVMQVgAsB4emLsC7nX/uENwZrHnrgSIACCCJg+m1l643tnhBAlAFkoVTgJNRHPQ43TNICZ9OzUP5oMTRFR7A+5CGD5lFNMLqWhWnykoeytRQAJAMnyEQewIDxvdOyVv//f7tTYvLiG7C8BgNm2mH7x66dyuUwWFbt0CkpqTQKYRWXMUnaxdFRMj4971yq5iHGU4osFaZfyUPZWGmpwMqgUzHfLv0sCiHu2/YPZv/9/n0eTiPwrAQ+E9Pf/7nxianwBahImoOysifIxBzU+eajxsgG5lJ04fUJI/92+vpCLcY5CfK7glIo5KCJly0ceyqbQbda88u9TAFLpuZmvOW+/+rotJK72nRiPcdDMWHr27TfGocZA21mT5WMealyKqIyXAJAtxRfOM+Z/1Q9fyGUwhmIyXnRdpwg1cHlUiOWikkCpW64VACSllOfPfedbf2q5dt69ipPgJAgGPDn3vX84X8rnMlDPH4eSWtNQNlcSiljLW88U8otzZ5pAK155cqk2rhIylytKCRtqgArlrw5WZubq7mMFAJlSIf+9xW9/7e+uauPeMFA8fXQpM3V+TqrJl4Qi1CyUxFqCGo/qiajhFfO5xaBl+h4a5IPkIgjXRS6VLEBJKhtqoNbs24dyP28oAs4snDz81VavmHauRulFDGQXZPLNV8dLpVIeyk0ThyLWHJTdpW2sVQfALRTmDJK+D8+V7yQBgEkBJl0XaoBKqHS88rA2uYT+nFMqvTL2wpe+ZZhXn+/LkxL2qSOL8Ymzc6hIrXkoci1CLXpKWKfVsuvY8VImk/G7gvQVJ5cAID3HsypkcsqHbme7FrT9VQSQSJw+8SXKLKX8XxPVEwSSrpz/0fcmXNcrQREpDiWxFqGM+tXsrFpIuHBKpWtOLUoA0rUFXMdGhVxaHW5kNFwAwikVX0u+/vKr4ipZNhIAlwB5fnQpNTO5iMoqeaF8LKGiDi8CWbKkKHk+68UrTi7OGEq5okhlMtrGqpZcF2sZrI17G0Bu4dihL5JwvKtBNQoAFoecf/PVKeF5BSjXzBKUxFoq/1+rw4s9ssOFe+2Ri4jK3UaF9stUd3ff6Gg4AEqFbOb73sm333KF3PLKUTAOd+p8Nj09viiV6ktBESuOWkfpRuByKRy/u8/5oBYlCFLwiir0UDHkN+J+18a9A2Bh4tUXv7TV67hKAJZhIHH0zXm7WNB+LS21ElBSSzuXL/qoEiiWsulMA295Q/BltVg1OppQmjAbhXZN5HOJ+PfDmYXJkrd1e0QKYhCZuFOaGl+QUhahDPkkFMHSqPi0NgYp7fnFeDEU8Hc17c/2D4EkpFaD1cTazFgIAEIKcWr6e//wEnFjy0ovzjlyZ06lUgtzCVRCarQ6zGF15/J6IFdI8rsEaTOEGMhlXzfzdx6A+MLoiZejJvPdgL1USNdBaXx0wXXdAhSZtNTKQNlfazpM10IzSHEfyUVaQ27GkF8ODwCcYvEHhdF3Tsmt6JYgBpleKiXGRuegJFQailgp1Npam4FohpZDzSC5LhdSSnF29s3XXrcCAf9HdBMgAK6QcCZGE7lMWhvy1eFHer91S2Krk0vba25ubuo7zCkUmiEaYKOQUG0mUqNHF6BIlIMiV6r8fQkX88Y3MbY6uYDyOyrmsq9mz56cIL51VKMHwCpk7aXJiTiUlMpCESsN5dfaslILaA5yXS4bJAAhpZzPHn/7B0JSUxizFwNBRZo646eXPLuQhyKXdkFkcYmGfDOhGchVD3gA3NTE2Le3ArGAcnlMw8Di6NG454kClKSqllo2tjCxgKuHXBKAm08n32CJudmtEKXqgWDZBTczO50sO05zUJKrWmpt6YSBq4lcQkq5UDh9+A3X5z21jUAyjuL0+axXyGagpFQWtQkq64UfbQlcLeQCFMHSCycOv8K3QAlvy+BInTuVLBUKWlKtlqSypXE1kUsAKKQX5t4MuXa6mb31kgjkFGVhemKpnBScx1WmEgGfyNXI1y4872zhzNEjzZAUuiaIwU0lSl42mYEiUh61UuuyVaJoguf3jVyiMdtfBClnl0aPHjEs6+Kf9gnECKW56VwumUyhYm/lUElUuWypZTImVcicf/An+0cyaqDWyifGx94OmNxrhtm7GsgTKE6dTzpqo1pHnV7yJvXKC5DV29MVKtruNRYsKAUMgxC2ajoe13UM3GLxOJYWF5vS7CKC5zkoLUwvQXngdSRE3bZ7CAiY4WjU7338K04uTwhY4RYejrSYqL/5JQGQ8NyTxYkz55sx519KCcpl7ezCXBJKBWp7q4g62VsADJeY5XeErg+RqATGDSaIGRd+VPv1siGlnJk58tYRswntLk8CSMxm8tmMllSaXAUoSVYPQ8n0mGH5XdrcnzBnRuRKutBoG/UnmLQTC+8w6TVVZpB+uPzk2WS5iFsJFUNeV/a5bEjAsLkR5NdaUiwR4ElGjpSaXNWNIOsBCYCK2fQhWcjn63TOukACMDhDenpC21s6Xb9aal32fGCMmUYgFPJ7PeODQS/BGINlWQZWdnSvF8HIte2TztTYpGgis8uTgGHnnPT8XBpKUumVonZB1GXLxwoE2hEIRK65jGsAADcQjLaFCOBQR3UL23ohlT03ehyyOdhFADwiyPhc1nNKmkw51Ba7qwsbyLDapAS/5mpFAGUnqhmwUCGWPup5CS83Pf6GkM2xia2iThky58+kpOvqumTaz6WlVp3IZUZdV+CaNOiFkDCCIZMxZkJ18dAqsp52l5tJLLxjcfhtegBQNxQ0OOLj59KeELommS7bubzo3WUh1traVXT97zzii+TyhIdoV3fIMM0gau2teqpGYRcKp9lSfLYZQnA8ANwrekJlQuuid7ny13VLIm0SRJHYsGX43tbJp6RYKLUoiLRqNMpf68oBKeWSPXHmuNsEDgliHPmp8Zydz+h0MV2qs95REEYgEu3whOe7D9kXcrmei1Bru2WYVgAVtajtr3oikzp/+rDvYguAwTkKc7N5u1DQkQ9aJWpjvl7ksqJ9Q9svKxu0TvCnVDgAHmsPgbEgFKlM1N8dAQCFpanxw8GgBT+Fl4RqCpqbn856nqdXh9V1YOsZvmA4oUiX0QQNBX1SiwRhmZxVJJdZPuquGguZ9NmAXUwKH+vXSxCYW5I8n86gUttVq8S6Rp0yzjuDXb199Trf5cAfP5eUAA9QsLU9BsCCIpZeMdb3UkJMOVNjZ/2MTGWMoZhcsjOLc0lUSm9W+7fqRy7D7EdLrJU1QacRv6rcoOi6iHR0RZgy6hvhjgCgNrGzE2fPko8ORSKCnZgrFFIpLbkaZcwjGA5vcxsUiblZ+BfmLCQCHd1REAWgpFc1weqJzMKZk8eCwZCPDi8JNz6fLVex0ZEQ9QyxuYBga8c+v7d9NHwz6KXnIdDW3ULKqG+UzUUAUEgunQ6QtP2KTPVcD/b8dAqV0ujVxnxda0GEunv3Ate45GKQMHt6Y8RYAICWXnqvsZ6XgmvbJ5z43IIv1CICeY7IL85oe0t75huxUuRWV+8wCeH7ShHws5knAWiJBYORaCsUsfRR731GCM89U5w6O+GHV1FICZmKFzMLiylUpFbdN6sBgBjraRncvl02BbV8JBcjgiM5WZHWNihSabdEvZv6EIDEwvHDx0zzykamqqrVABKzGc91Sqj1zOuuIXVjAjeM7UZrZ9TvcpUavq5XPeEh2tPXjgq5tN1V7wgJlBILh0iKK+qQkAAYZ8hOjesUsmp7a8PVmTcKIxjah2A41Cx1fnwlF2MEs6O7HYpY1avGeo8Oy6eSP5KFTK7O510XEoABIZMTYwlZaaClN6u1MV83hNo693oSpu/7PmX47mkL9A62cc7DqCVXve+LXMcZLZ0/c/5KLhgFCCy9VMwll6ojIRplzKN9+659drGI62oRAEmAt3a3BCOR1VRjPUdIAsimTh953avzidcCAZDEUJoaS0M1LW1Y5Km6IHW2b9u9vTlkloK/5CJAWgEjFGvvQEU1anLVExKAk52eeJ1fofa8kgDTNBA/O7rkOk6187TukacAwBjbyXv6B5pFagF+q0UpQVaAhTq7u6EkVwiNUY0q7DmZOGQUc2nvCtRQ8CQQdG1hJxfSsmLIV9eDqKu9xa3AkBuIdPidTlYN320uEMHs6OkgohCAIJT0qnt0BAAhPG/SOXPskHMlWrkwjuzMuayTXtL+La0SG2JvdQ6N3JzNF3xPhK2G7+SSkAj2DbdbgUAHFLl0lERD/F2LR9/8LrsCrVwMzpEaPZ7MZbJpVOwtnbZfb3JZ0cFtNzfJluIF+E4u4QlYXb3hUCTaBSW1QqgED9bbqC8sToy/1gIn3cj6XZIIKBaEMz8Vl1JW5yfqFP56V2nubtm2+ya/U8mWw3dyESSMWFuQhSKdUFKrWjXW/XLCc4/lThw60sjIVCKG4uJsITM7FYcikpZaWi3WVSWaltXntXbtNLjvr7MGvt+NShZlCHb3dBIQQcWo19KrnmBSysmZH33/u+FQCI0JTSF40gNNno7ns9nqeqe6mG7dnafhtvZbHCMY4eT766yB73dDAGzHQ2x4R5dhmm1Q5NIuiXrfnwAgs/Oz3/Bmx6e8Bpj1QkpQoeAuHH5zErUtV3TfxLruJwKgWP/wHVJK37N9lsN3cgGA9Fy0DGxvZ6bVDqUWg2hQZCoA5rnu4amXv/FNVufcPiKVsl88/sZsYmE2iUpXjBTqWTmwFlZwZPddvAm75TYFuRgB1N4ZYYGgllxaNTbCmeoBEEtjp/6CZsenqvUTXcYBAA4YQsV0afbN709IecH9kCofdSumWw3G+VBgZPeNzWbMA81CLgAlGBTrH+oH0IKKamxE2rAE4Hmue/Lc1/7sv5qunRfcgCMJRSHLBzZ1lCQBVhCW54rJF758Ore0uASlAlNQvRN1A/S6t1wJRWN3UKyjtZn8Wxr+53yjbHfZNrr33DiwcOJwTAihN7J1fFc9Cx/o5uvFTCL+t6f/9Pdi7bff81TXtl394XAoIARoM72pCIDjujI1OlNcOvzD2fjZU1NSXuibuFg+NLnqbW8h2NV3b3NUw1iJpiCXBMCJYA5s6ybGo1Dk0g7VepML5fPZADLZxOLf5l/6xtScZd1oGmYvYywKlZFE2ED9JQJBSIliIW+7tq03qFMAZsvHAhTR6u6CAGB133TwHuG6aKZtH42mIBcAcALcaGck0t7Rl1qYCwMIo0Iu3bK4XpCoRIWmhOedtQsFz0ZhCUA7lFq+lMWEKJ8zDmAKilwJVKRWXcnFON8R3Xnj9qYqn1iFpiEXAXAl0D60bSi1MBeCIlf1PmO9yaWTJZKouD1KADrK167e31yPZNUN4LXrYQmKWDPl7wtoQKMoMxS+3QtH25jTnD0/m4ZcgEoeNXoG+6BebrXdxVB/lSKhyJQp/9+FUmdRKMlVXRB4I+fSK9E8Kn2qk1Bkq7utBQDtQ9vuKDqOxX0La5brjk41uQQDhF992FTlPYLZN9JlWlanY9thVFwSjVjV6v7Y2hayoUih8yg3qxb1+XQ4c8Ni5ctoGThwx50Z24ER8Kckuiz/w9Z4tmpySRLSk1LCN1evlOCdXS2xrp6h+PTkMdS6JBox+7W00Z0r8ri8ck4CSgJ6VV8bUsyIGNtjDOzYbbBGbMFuHIwAWiOXrYZcTHiukI3ZMd4QpAQPtPBgd/8QpieDUD6vRtldF66KisQBLr+64XL13RA/QaSt/YacERr0k1pSqp1Uxuii5BImPN9S3gHdAIHB7BnoYUStQkodQNiIjKBqyDW+b1ZQ+9D2O23XRcgyfbsJCYJnO0J6rlfz4zIqol/KkptJJYWUvma9ea6L6MiuzlBLpB+VraAAmmQ3oUnQGtm+93a/t3wMzlDMZt1CoaD3S6ultqx+YcX43OySxf1t4UtSwurpi1K4pRe15Gq09Noy4IYxZG7bcxsnf+0tACApJITQvhBRddRIA8f07KzfPQoJEh4PULizpxfKLaBdEv7J/yZDa2f3bQUj0GZwf+eakACzi64hvWrJpRcwNZIr72WS847PZbUJQMlx0L37hgHDNDqhJFd1CM41j1Df4D1EzHcxzjlDNp1yCoViEVURJ+Xva15WKRVfXAyajU9eWA8EgIRAaGRPN+NmBypREo0IwdmKCLftO/CAz0ILgHJ6UyFne46jo2v1sYJcsJPxCW4YvjbflgAMAtzWtpZga1sfFLmqvfVNMKz+wbCsvdb2vXuMZggOlALFxfm8lELHqWmSCSinfAW5VHLaMgy/nPQ1sAWjjpGdQwTEcJ1cFxCKtd3rGoGA3zHNEoAUAmTni7LiNNaHh2U2F4TrzohUfPHKFhpaCQIgXRctwzt7wVgESnpVb8tcswj3D98LH8ueaxARpF0SbjqZRWVnolpy1b4oKcScE59baIZZwQkwBnb0GKbZjordda2TK9qz/45bXLsZoiAIwil6RUUuD2qHw0ZVU9Jackk5WZwZP98MLQoZEbxwJBjr7h1GbZREI9q4bAlw0zwYHNwx4rfzFFBhlCKVKGaTiQwq+7M64dcDIJeH3BTnThzG9vLQAAALD0lEQVQ9vvO+x55wiyXfjRsJINw7OBifHA+jss9oorIPuC44o6HeSOihGKd+IlDalbMzmcK3hZSTVR9r1J4liKi9uyX4SIdJ2xljRtoRc7PZ4iuuEKOXcv1QrP1Wm1utzPO/3Z0QEiI+l3HsC+U4dZmCC3X1V8RzldJLR7nwbEdKy+9yPIwxBPtGeolea5FS6tBnExc36sP7+zt+8V/e0PMvhizZbXIySQI2pHs+587/txOL//PofOoPoUKQq2PF6kUyPtIe+elfPDj8q3ssb1uLwQIESSUBZ6bgxf/wVPzzP5xN/p6Ucqr8LBu6ft++G+8slEosaPobhkdQ+Zn23JSuUF1CreRa6YoAADufO+QszsWbZVEW6B/psILBTlRU47r+LgJiz+zq/pPfP9D1m7stMRhkZHEQMSIKgsx9Lebg/7ij73OfOrjtzwjYjUoN/HrlSAYeGOr4L//3Xf1/fFvA3RflLMhARGAIMmbuCPG+37mt+1/923fv/pLB2B3lZ9F7p+tdvyO6bc+eOtzfZUMAMOHKxXNnEqit9aqLCHvASnIx4Xmnk0fePIIm6B1DAGRL2ApEYnqfUUuutUos8Ue2d//WZ3bEPgrOAc5rY9OIACJ4xPAz/eZjT9809DtEGIQqI2Ctc94N3/L+/o5f/o29sV8C5yBurIyNYwwuON4fcd/1s3fu+l0i2odKfYw1CUaMbTP7hnf4nUJGULXHMD+dySl7qzo4sqbj7XIGSQCl5JnjLzWD3JJCwAzHzFBHVy/UC9CqcVV/V3es5alf29f+adpAGIoDjl/d2/7kYFv0J6H2MKOoRL1e0uOHA9Y9nzvQ/1kyL665hRXEJzrp/v197T8HoB/Kn6c75674YzMU3uYGo71GE0x6GAZyZ48vSs/TkbbV5c9X99DrH2YX5r9DhUwTbGID4AZ4a0cHajOxVyOX8dFdXT9PUrANcYMxuMUintvb+yznbD+AVqhFw6UaNPyB7T0/EbOzUeIb2WMnFD2Bf31g8FmDs1sBdEJJ0FVVdFtv/95sscD8XikKEIKeK+ZPHV8UUupe3bqw3bqSCwCk5zpjhWNvvnZFKvBdBEIIhDp7WjnnrahVjTX3bhn8tieGYrfTJsJ+XRAe7gnvjFrmuwB0oSI9Nq0eCeh9ejD2uJJaG5mUEjBM7GRO10Cs5W4AfVAE12lt1SfhVnvX7mZocycYgz11NmOriom6qJ2u4KMlF4A1yAUgPfvWa1/nhgm/W31IKRHo7G4xrUArKrbJik4bbUHrjg4uI5txAEvG0EEi2BEw90CppnYo1btp6dUSDOzcFfC2bYbcACClh12d0ZsADEARvAUrJ0+kdWBkpxT+BnJKACbjWDrx9qJTLFSXh8qiYnNd2D5YjVwCgJ1NxF8Oz505WnQbUWho4/A8D6FYR8AKBqKoVMBZYRsFSXZyEN8UuQBwKTHU1jII0ABUzmJL+fybemyLZLfJGF3K7sb21pYBAD1QqlHbftUnCqO1a4D73FpYMg4vMVPMjJ2cFpVCKxmorKk8lvWOXEtykZTy7PG/+eJfhsIt8HOrkRNBhkKWYIZ2Q1SvGC9AgFxJwKbqJqjm0wgwCkNJrTZUyLUpHSRBYvN+QfV5g5FVvr62+2oqKzLGwsGOzm5/+ygSCBLZw6/PZJeWlqCkls7P1FKsxru71gB6ALxCMvGCd/KtI66Py19GgC2JOULqJgjVBXkv3FgJlPBA3mb8oHpZvViwbUDqbKNLCkwseGLB9UhsriiIUnPTmWKhfO3lG/Tq+YgMZlj+JCeWIYjgzE3m5995Y1xIqTPLk1AZ5VmsUh5qrQEUAKQQYnz0hS//UVA6JV/nDHECkXZ2VmdhXyBXqlB6e8FFZjN6g0Ni0YO7ULALWNlkYVMzqmg7k6dcOic3mVYsGMPppUwa6pmW9/uWACA8zybPKfqhEyt7U55Mv/r3Y7lMRttXSag6GNW1x2rucL3Z6QLwStnMtya/8vznBXF4PmQGeRIwhO1ZRB4qhvwKctmud+yvx5OH+Cay/g1GeDOeTy8WnAwq7o1LzVtc+NK5pRfVvt8G/pwIXHg4VuLZ84lMsvxH+pnksvso5Rdn53zpFwkA3EDhtW9PzJw6NgW1IkxDFVuJQ5Fr1VoYa5FLx0MXAWQXz5z8k6UXPv+1QMBCI6sgrwrGUZiZyLr5TBa1LfOq750AlL58euH/CG56G5nhHBJ5kPz6dHayWCoVoMZRh+leSsBU4ZVzc19NtrQmyLt4SAxJAYMzfGEsMVFyPR2DXr3xW10CIJ468c4P3StscwkQJHGkXvnm5PirL41K5ddKQ+3JzkHVHtPloVa0m9nIupkBENn52bHcmWNuuHdghEdaQ0TU8O1HSYBIJ+3kP35zNDk/O4PKg81DzRhd54EAGAXHnZ9wMPBIV2C/pLUFEANgQOLPpwozL5yZOy2lzEEN1CzUoCWgZuNmSGa6QiwcWizEPjIcu0di7R5DBCAkBf4m4S7+1ej8qOu6mfI1Z8rX18XitDTwcgtzmaGb9j/khCJtrLyN1TAQwZMSPJsspr77t2OTb7xy1nPdPNTKcB7ARPmYQUVyrRiri90hg7JD2qCWyjsNK3Bb58j2uygY6iQiixEzIEGocwdJCcCA9BYmzqWKyURCSiwCOA/gOICTACahHkyvUCwAYSK66SN7ej/3Kzd2PiIcF45U/iygnBPJCK6Q+Kt5Z+6P3h4/XnKcFNSAjZXPfQpq0DLYXNE5A0ALAdvuHer89c/d2vN0SEjDkbLm+iYBYISX4vbS774zfTyeLcShJsw5ACfKxwwUwdyqc0cM07yvfWD4cQRCO7hhtDPGI8So/iESxMgr5krJyYlkKZfJS2VPZVEh1pny/c5CvYNVa49djBAEJd1CUD6gfgAjAIZR8ShX17Kq93TSk78EJVnGoV7+WagH01GQQPnlAmhnRLcc7Gv7qU/s6njw7u5IL3ccgAhFIvn2UjH79Yn07MsT8QnX83Td0kkAp6FIe758rc1KLgY1Fl1EtGN7a+i5T+zpef97B1qHQsJlBIkSMZxM27m/mUrPvzydmsjkClkoaTxVfqYTUC9tAbWSi0P5v3oB7ACwF+oddENN/kaMPVAxFQpQq8IZqHdwHpUJoFXiCmzkhgjK1tG+oD4okvVCOf3CaFw7FUA9YAFKbUxDPdg0lDFZqPocg5JebeV7HA5b5rv7I8GDIel2cKKAyw1M5Ox0Ol/ModLZQkuNM1DSaw7qhW+2qg6Vrx8rX3/QMo3bByLBuyLwug2ioMs4zZREJp7J6ejNQvn64+Xrn0XlpVVfn6DGuQPAEIBtUO9A77k2glza7nOgJnEcakJPo6K61y19vhGRqg1NXR1Rv+wU1IvUzs1GkqtYvp4uYFstsVD1OX2fSQDhvO28cybhxKEmgt4+Msrn1stpPRtnUWvrbNZ61uOkzxu0HffEuaVsGops1VtLuvBcCupFaftlaZ3ra9/SPNQ458rP1KhWNnpRp1ViEopgS1CTryYCYjVsRl/rF6dfdga1TsdGqUVdv1Q3Z8pg7U4U+t6030hHedrlvwtDTQL9LAlUyksulD9zObVL9b2mUVnV6syYHCrk0rXAlqDIpQ153eFstTJMWtJR+ft01fkaJbn0hCmh0hireoN63XHaKLn0S9QDr2OmU6iEHTdKcumBdVDJMFmvC4WLipTVLySJ2ogD/RntCEygPh0udK3VYvncOnEhjVr7VBfm1R7uBCrtW9ZaROhx1y9cu2aqx73e41+tGnVmz4Xsnoud4P8DThd/ZewonbIAAAAASUVORK5CYII=;fontSize=7;spacing=-3;" parent="1" vertex="1">
          <mxGeometry x="411" y="298" width="21" height="21.83" as="geometry" />
        </mxCell>
        <mxCell id="r_LDuMVwWnfsW8-giX2U-27" value="Mongodb" style="shape=image;verticalLabelPosition=bottom;labelBackgroundColor=#ffffff;verticalAlign=top;aspect=fixed;imageAspect=0;image=data:image/png,iVBORw0KGgoAAAANSUhEUgAAANYAAAG4CAYAAAA5ahmwAAAwx0lEQVR4Xu19C7heRXl1QggkIHDCPQRIImi4E0CuIVwUxSpQ/kdE1CgKFLAoqOWvWkW8QlvBp9UqQn+rFouIt1+RorQgGEAQMSFIIFxjJFzUJocoREKErhXni+ecfOf7ZmbPzJ7Ze+3n2c85yZnLO2tm7fedd96ZGTNGjxAQAkJACAgBISAEhIAQEAJCQAgIASEgBISAEBACQkAICAEhIASaj8BNc68/YsGyuS9tfkub08L1mtOU5rZk8dh5h89bePsbBp9/TP1VSDero8roqI0WPXrXEUsGH9qpDHElpYhVxhjYAGJutfyeVdPLEFdSilgFjAFoq/0g5g4/XPrls2AOjitA5NaLKGJlPgRApLEQcQLegUeWL9ob5qCcGJn3GcUTsTLvJEOkLZdvtISSTr3yuss+KK2VeaeJWPl3ELyBx4BUQ+dWu911y70z85e83RJKY2Xc/9BM69NpMVREmIO7w/3+MmMiZix9u0UTsTLuf5iB0+G4eOUIETfA/x2Dv03NWPTWiyZiZTwEYAa+Bmbgvh0RB6ZMXPMrtNYh+NvLMha99aKJWJkOAYQw7QDNdOJQ8QaXruz8c3P87U1Is12m4rdeLBEr0yEAjfRqaKv9h4rX0VhGa82W1sq08+QVzLNjoIk4t3o7pBvfQ8ItkeYkODH+ZB/qyQoBaaysumPMGJBqE2iik6GtDu4nGuZax/zjVe87p186/T09AiJWesx71ghSnXTbsqvPthRrE6SbBTJOtkyvZIkQELESAW1TzVduvugEmHcfQNpJNunNXOsgzbVs0UqXTsRKh3XPmqB19iSpRkRZ2EjHudZfI/9LbBIrTRoERKw0OPcj1R6IAfzs0DUrF7Ew1zoK+c9QDKELanHTilhx8e1bOjTNDJDi0yDV4X0Tj55gfZDrtYgh1KJxBRBDZhWxQqLpWBZItQfmR+eDVCPDlhxLWpN8F+zXOhNlbuqTWXnCIsAgTz01IAAC7ENNhaoPH7NRGAGgtV6OXcYHobTrwpSoUnwR4CY6PQkRMOtUc+BwOBuaahfXqoeENXXNOn3SjP886VWnv2OvzWev2cClpx4EZAomxB2k2hym3zkg1fk03SY9s2Pw2qG1XgNN+G6d6BQcWqcCZQo6weWfGKTaBqQ6F6Q6DZpqwL+k/jlBrtd/99Yrvo+UN/RPrRQxEJDGioHqiDJBqp3opEBExVn400AMTTWiyu1B4HNQ7xYJmqcquiAgjRV5WHDhF6bZxajmSDgp1jdnV3jXygj3fvMsFg6tdRjIfCR+/aZ3ZcrojYA0ljd0/TOCVHuBVJ+hOx1vkI+YDamMZAPQWn+HMKlZ/SVVitAIiFihETXlgVT7gVSXgFBHhKqCJuTQPVn9yoXW2gfk+ghN0X5p9fewCMjdHhbPMTwABhEQx2KxlnF/wzYqhqjKQWOtrQ4u+K/CBf8+uOAfCyGDyuiPQBDzpH817UgBUm0Ib9ycRUvvOtdnjcoGJds51oiyjoX2/B3kO3tgve1W29SjNNUQkClYDb+1uTFoJ4BUb4Xp9cFYpPIVFSbhZniPh3xvNEeq+RalfJYISGNZAtUrGQbrRhi0p4JU/xek2iFAkTGKmPyDu6+6EDLujMK5QK0nIgLSWBXB5ZkTINVpGLB/mzGpOq2cgl9OgqfwmIrNVvY+CMh5UWGIGFKdYTRVsqPIfBwYI5p536v3PPE9Jx967g8qNF9ZeyAgjeU5PECq8dBUbwap3gNNlYxUnuKOzLYLzMJPQXMdEag8FTMCARHLY0jw3HSQ6kTjqAgfSeshk0eWPSD/xSBXlQ2WHtW2I4uI5dHPWKc6jlENyDrNI3s2WeAp3Bft+LQ0V/gu0RzLEVMMwldiMF6EbHtVjftzrHpt8gBzrGFVYwF5/ozt9+ac60ZfmZRvOAIilsOIAKn2B6kuBaH2ccgWPGloYlFAkOtOkOvdINfNwQVuYYEyBS07nYe+cE4ylFQJtn9YSlc9GczC/YxZeEj10lSCiGUxBkCqHRESdCGSzmbyDqHqMgUtRPZKAnLtD2/hP90093qem6GnAgIiVh/wQKqtsK/p3Uh2dIdITSPUCAj2/8IvPnAhPyYVxlXrs4pYPYaAOfjldJhIbwOZAp2lVMSYOwIa+h9ELv++ErFGwQ6DagI01dtBqneCVNZnqft3RV45YRaeAHJ9AjgwDEqPIwIiVhfAMJjWA6mON1EV2zpi2pTkPF339SDX+TwIpymNStUOEasL0iDVUTyiDJpqWqqOcKnHZRexS7ld0k4Aud4Acr0f5Gqd1q6CnYg1Aj2sVTEa4ZO57akaKmaMdaweg2hTkGsOyGV7Z1eV8diYvCLWkK7kZB2kugCkyvpygYQaq4POliDXWxh10piRH7khIpYBmJcJ4Kt8Hkj1qsiYVy4+scbqyLsT1rguArnWrOXp6Y2AiAV8QKpxmFcdh19fizf7MK8aNFZnFO0FcjFod18RS8TqOwZAqtlmC0gRd/nWpLE6OL4M5PosyDWjL7AtTtB6jYUBwitKGa7kfPNHXeOmRo3VafJBwOw8hD5NrQuD3OttNbFgAm5rnBUHlRSmVLPG4pheD86M43B24ntAriK0fGoitpZYDFeCs4IeQM6rinoy0FjEaxO64UGus4Dli4oCMIGwrSUW5lVHA1+6j7N3ViQYB75VbAFynYIP1Ckgl3AcgmIriYV51QHcWg9ttb3viFK+tQhMBrnOxIfqUGHyZwRaRyzMCfYGqT4OCGrdBVxlEGYwxxop/q7m1Cd5Cg0yrSIWzJUBzAn+Bm0v+mSiTOZYI8l1ID5YH4M1IGcGvTtVvpyl5eV6FWQ+AibghiV5AUvBGSbhsSDXu/ABa9Peta7d0xpimfWqDxVwDHQpPOom50SQ62Q4M95QciNCyN4KYnGzHr6kHwZgWQfX2nZohnOsoaJvB3K9lyda2banieka7yIFqTbEF/QiaKrT0YEbNKUTMycXYb4J58O/GcepLW0K5i7taLzGwryK3j+uWTWGVC4dXGNahj0xMmOrGmWorepGE8uYgLyy9CW2CDfprEDbNkdKtyHnW/DCvjlS+VkX21hi8TAYmIDvBPpO+4fkLQw6XrlB8nTMtw4OWmoBhTWWWDABXwaSzGnjCUuZjTsuHnOD5K6ZyRVVnEYSC524A/dXATmFLEUdPtaFHwJy/SPmW1tb5yg8YeOIxcVJkOpcVxOw8H4sQfxDMd86oQRBQ8jYOGLBBOS28dfCBNw4BEAqIxgCA5hvnQVrohFrif1QaRSx0Gnbmy32O/VruP5eCwK7mflWaVfLOoPVGGLBBBxvTq59uTMKypASAQbrvoMbTVNWmrquxhALJuCeNAHxaiE49Shyq4+n63Jz5Ilu2cpK3Qhi8VATfAXfj3mV9gOVMf4YT/hOmO67lyGuu5SNIBa8TW8FqY5xb75y1IjATMy3PgaTcLMaZYhWdfHEwldvN6DzOrwTo6GkgmMhMBsmIfuucU/RxOIEGCYgD+tv1ap+g0bhVjAJz8bHcecGtWlNU4omFhwWe6ANR8EMHNVhoaDa7Ifs3ozKaJpJWCyx0BFbQFudg2HTc81KQbXZE4sCHg6T8KQiJLUUslhiQVvxQJhZIo5lT+edbHMTldGYhf0iiQWbfBdoq/fqXMC82eIoHc/QP7MpB9EURywTZEtSzXLsOCXPHAForTfCJDw+czGtxCuOWMZhobAlq+4tLtEUkOtdWPC33vGdawuLIhY9RyYecCd5+3IdUpXlmokF/zcx9rNySTUWUBSxoK32hwl4JPGi00LkqnHkxKuasYRvQV8fGK+K+CUXQyx8wSYb9/o2HVjkEYw/QGqqgfcdn4c+37Km+itXWwyxMKl9G4h0VOUWq4BSEJiFPn99KcKOlLMIYsG9/mIIziDbCaUCLbmdEeAO8Dmm750z152hCGLBBDwF2qrVRxbXPVDqqB9zrf3R92+to+6qdWZPLLheeZLtX+At2ktUtaNamn8817ZKPCcja2Jh8joRrtdTMKgYbKunnQi8FI6Mj5bmyMiaWHC5ckfwkb2i19s51lrX6gNKi8jIllg8IpqHjoBUjd2+3Tp6eDZ4+qQZPKr6FEwLdvAsInm2bIm1/J5VM4HGQckRUYXZIQBSUaY9MC04LjvhRhEoS2Ix0BYgct1qr1KAlJzREdgEBHs7tFYRW0uyJBbmVtyqfWj0rlIFpSGwCz64x5cgdJbEwtzqVM2tShg+yWXcmFoL7vfpyWt2rDA7YsEMnCZt5diL7Uq+Kz+8GCdZH8yaFbEA1npwq54BbbVvu8aKWuuAwHrQWieZfXkO2dImzYpYaPpkaau0A6DQ2naC1jqLSzK5yp8VsbgHB9pqZq5gSa6sEDjMBBBkJVRHmGyIZfZbnQHBXpQlUhIqKwRgDu4MrfVXDHvLSjAjTDbE4lHD0FaH5QiSZMoTAZDrNdBaWUbmZEEsfHW2Qte9Bm+2NnOeQ6v1Uk2H1nobxs+GuSGRBbHo4YG2asUVmrkNgNLlMVoru1OdaieWOSfwVHQwtZYeIeCKALXWKblprdqJZTw7B7uiqfRCoIMAtNZf5jbXqpVY/MrQRgZA2YeoaBhnjcCLMY7m5CRhrcTC1pCpAOMgzK/G5gSKZCkPAWit4xBDmM09abUSa/HYeSQWT2DSIwSqIsBojDmwgsZVLShE/tqIBQBexGBKNKLYQxlDdIBvGQNTslwX9W1OkHxmrpXF7ZC1EQuTzZcCzQN0mq3fmBpcutIvY7Nz7YiP9StzaGItxIK2Wh8AvAWkktMih1HQHBm4y/hNOZyNUQux0I9cszqgOf2ZviUyBUfFnLuMa787rRZiwQzcF9pqz/TDsTk1yhQctS8n4S9/Aatokzp7Ozmx2GCYgaeh0bU2vE7QVXdcBGAOHomP9y5xa+ldenJiGadF1x3Cuu/KfijIFOyJ1Q5mS8lG9oiGTZmUWIPPPzYWDT4ZZuCO3Zqhy+TsO1emYG+soLWOwkd8mj2iYVMmJdaSwYem9HNayP1u18HSWH1xYnDu6/qmipQgKbFoBoI4PI9dT0UEpLH6A8gFY7je+TFP/iQlFr4gb0ILB5K3soEVSmNZdeoUhM3VslaajFjwBm4LKHRktNV46J9IGqs/RkixLT7mb6zjDMJkxDJmIMOY9ARAQBrLDkSYg0dj7CUP9E5CLHgDx+HL8WZAsZkdHErVDwFprH4Irf0792r9pXXqQAmTEMt4A3W6baBOYzHSWNZgjoXWOgFOjK5LPNalOCZMQiyzKJy0YY44FJdcGsupy3ZG/OAhTjkqJo5OLB6oaLZNb11RVmUfgoA0ltNwGIDWOjnlkdTRiYXt99sDgr218Os0EPomlsbqC9HIBLvAckpmNUUnFtYRtgOpstjV6dwVGWeQxnLunKmwnI5yzuWZISqxzIbGN0A2ncfu2UGjZZPGcgaUTozX8UgI55weGaISC/LwPAstCnt0TL8s0lj9EOr6951TrWlFJRYasQ2al8yu9YK60EzSWF4dtz3MwWO9cjpmikosRhdjfrWDo0xKboGANJYFSOsm4W2QJ+D8we28cjtkikYs2LIbQ479HWRRUgcEpLEcwBqelJEY0S/giEYsmoHQVlneXeTdJRlllMby7oxNkfMVsQNzoxELwtPFrhtEvPu/d0ZpLH9gYQ6+KvaaVhRi8WsAdft6NF0Xyfn3f8+c0liVgJ2G8fmKSiX0yRyFWIi2oJt9t5iCq2whUAEBfvAPNX6ACsWMnjUKsRBtITd7lO76c6EyBasBDHPwYLMcVK2gUXJHIRbU7NGaX0Xpr7WFyhSshu/0STO2xDiNduFhcGLx6lM0mSH62V24XK0rlLtJCEBjcdPtLIzX8THaFZxYUK/0BO6maPYY3SVTMCSqINds+AOmhSyzU1ZwYqFghjBtEUNYlflnBGQKBhkNU7EBcr8gJY0oJDixYLf+H2irgRjCqkwhEBgB3h9wYAxzMCixICAJNTNw41WcEIiGAMzBV2D6EvxW0aDEgoC8QoU7hvVERkDu9mAA87zL4KflBiUWBYQZSEH1REZAc6xgAG9lloeCFciCghLLhIno3qugXaTCEiCwH45HC+pwC0YszK/GAQCFMSUYBaoiLAKYZ81EtFDQeVYwYmE9gBsakx/lGxbickrTHCtoX02GtXVYyBKDEQuM3wLzKxErZO/0KEtzrKBATzAHzUwMVWowYoHxR0CozUMJpnKEQGIEXgKv9uRQdQYhFuZXjAuMsoIdqqEqRwj0QYD3Fgcbw0GIBYG53Xmquk4IFIwAg3FnhpI/CLGgQmkCRj/5JlSjVY4Q6IYA5lmHhDrQMwixDKm0fqXxWjoCU6EkgiiIIMSCbXoMPIJBF9hK7yHJXyQCW2MsHxBC8srEMucG7BJCGJUhBGpGYGOYg8eEiHavTCwsDHNjY/AgxpoBVvXtRYDnuw9UbX5lYmFhmCfe8vAYPUKgCQhQUVSe1lQmliEVz7nQIwSagMC2mGfNrNqQysSCEC+H44LrWHqEQBMQ2ACN2KNqQyoTCwKMek3PpGd0g0/VDlL+9AjAgXEEbiThpl3vpxKx4D3hwvC00WrXSU3e/aKM9SLAzbqVtpFUIhY8giRWJQHqxU+1C4GuCHBXcSVzsBKxjEdwQJ0jBBqGwKYwB4+r0qZKxGI0MMy9rasIoLxCIFMEdq4yz6pELADCE5m4JV+PEGgaAlyb9fZ2VyWWIi6aNpzUng4CjBv0dmt7EwseQd4xNGzHpdzrGpUNQmAz3vzo2x5vYsEjyLnVsBB7udd9u0H5MkVgRygQL454ZSII8AhyhVp3DGc6IiRWEAS4P2vApyRvYqEybmzUHVg+qCtPKQjsiHmW1zptFWJtBdPPq9JSUJWcrUeAl9Ol1Vhg8v6oVK721o+9RgPALVE8iNb58dJYmNBxfvUS59qUQQiUhcCGDMj1EdmLWKiI+6+CHW7oI7jyCIFECGxt7iVwqs6XWNRYOvXWCWolLhSBbUywuZP4XsSCC5IewUr7VZykVGIhUB8C22BpicEQTo8XsaitFHzrhLMSl4sAlQidGE6PF7HgEXwxallzQKfCmJzwVuLyEJjks5blRSxgM9DBR2FM5Y0USeyEAK/2cT6FzJdYlY+HcmqaEguB+hAYi6qd79X2JZZzRfXhopqFQDUEsJZ1sGsJvsRS8K0r0kpfMgKTTFCEdRuciWX2YckUtIZYCRuAwNZYYmLcoPXjTCwslrECrWFZQ6yEDUCAzjqn056diYUKeA6AE3sbAKya0G4ENoXL3en+N2diYRV6fWDsvGDW7n5R6wtHgJEXdLtbP87EorbC2pUTe62lUUIhkCcCjI112nvoQyxqK+0cznMASKo4CEyAy32WS9E+xOIkjgzWIwTahICTleZLrDYBqrYKASIw4AKDD7HkuHBBWGmbgsB4l4Y4Ewtux91dKlBaIdAQBMYjOIIecavHmVgo9UVWJSuREGgWAhMRHGG9SByFWNqj1awRpdasQYCmYFSN1XebsvZoaSg2EAEuMVl7w500FmxMstb7apMGgq0mtQeBSSbqyKrFTsQy6tDJO2IlhRIJgfwRoKVmPfZdicX0Ov02/0EgCcMjwPmVNV+sExo5RazwHaYSy0CACoXb9K0eV2J1vCNWhSuREGgQAiRVHGKZgzrlvGjQaFFTrBGwJhVLdNVYm8CVrk2O1n2hhA1CgFyx5ot1QgMQ/fjWi2QNAlVNEQKcY1k77pyIhThBaiunnZTqDyHQEAQmYvxbh/M5EctM3lzzNARXNaPlCHDcW1trriRx8uW3vCPU/GYhQOeFNV+sExqMnHz5zcJVrWk5AlG9gsT2hZYDrOa3EwGnce+qscjaP7YTV7W65QjEWyCesf3eywDuyn4Aaz9WP4T096Yj4KqxVoI0v+sHivZj9UNIfy8QAZqCz9vK7USsaS/ssxoFP2NbuNIJgQYhQFJZT4OciDVp9w1+a2MKNghMNUUIdBB4BlOhvtZaJ7ETsYxHcJWwzgOBgSkKgknYE9RWtNisHh9iWduZVhIokTcCg0v7+pG8y1bGdRDgHMva5e5KLJJKxNKoayMC1qQiOK7Eeg55+OoRAkKgBwJOxNpr89n0CFpP4IS8EGgQAlFNQeIkjZXJaJHzImlH0HFhPQ1y0limGX9I2hxVNioCcl4kHRzPuigVH2LJFZW0P0evTBoraUcMIkDCeqnJmVhYJLsTYU1OHpKkzW9RZdJYSTv7adQWj1jGeaF5VtI+7V6ZNFbSTiCprMe9s8ZC4fQMWjM3adNVmRCIh8BKhPRZT4N8iWXN3HjtVMkyBZOOAXoF4wThmmY8hZ/0kOipGQGZgkk74Dms41r7Fpw1FjwjNAVXJG2SKuuKgDRW0oHhNP1xJhbszMfRnOVJm6TKuiIgjZV0YAy61OZMLOO8UFiTC8pKWzoCjLhwGvM+xGLkhTRWBkNFpmCyTvjD9EkzbnepzZlYmMDRM7LEpRKljYOATME4uHYplcrkNy61ORPLFP6ESyVKGwcBaaw4uHYpdRARR05WmhexUMnPUfnvkzVLFcl5Ue8YoOPC6RAlL2KhkicRLyitVW9nj5HGStYBj+2z24Ekl/XjRSxU8j+ogSc26akRAc2xkoH/FHwL1uFMlMqLWMjHSpwYnAyCFlUkjZWms+ERnOdakxexwF6GNS12rUzpwyIgjRUWzx6lOSsRL2IZAR5J1ixV1BUBaawkA4Nxsc6OOm9iwTP4M1Q4zFOiyxCSdPTaSqSxkuC9AmP9IdeavImFiui8oEm49tFlCK7wV0svjVUNP5vcmF/R+z1snNvk8yYWoty5VXlYhdJYNpCHSyONFQ7L0Up6ZPmilRjr6YiFKPffgEjDQpukseJ39NAapLHi4w2N9QDGero5FprEaN/H4jdNNYyGgDRWkrHxuDmo1qkyb1PQ7KZ0ntQ5SafEPRGQxoo+QF6AKTjepxZvYrEyeEv+C+bgr3wqVp7qCEhjVcewTwlPwRS83qeWSsRCaBNJ9WufipWnOgLSWNUx7FPCr6E8FvnUUolYqJCewUGfipWnOgLSWNUx7FMCg2+9gs0rEcuENj0YvXmqoCsC0lhxBwbMwHswxr0OTqpELDPPuhE/rW9hiAtFu0qXxore397OucrEQtMehANjafQmqoJ1EJDGijoouJzkHQ9bmVjGgaEzMKL2cffCpbGigv4kHBf3+NZQmViwQZ9E5b9QOJNvF/jnk8byx65fTsyv7kcok7djrjKxzDzrB/ipHcX9eivw36WxAgM6vLh7EcrkPaaDEAvyPIzX6RSbqJC0pHBprGgdzT1Y9Ahan9U+UpIgxDK+fjkwovWz5liJoaUJ+ECVOoMQC8xm9MUvqgiivO4ISGO5Y2aZ45dHT3nbYsu0XZMFIZaZZ12Ln87h9VWEb3tezbHijAA4Ln6K+RWdct5PMGKZeRaPRdOTCAFprChA8wj1e2GFVbpcMRixMM9aApf7/ChNVaFdEZDGijIwBlFqpfkVpQpGLLMZzHtBLQpEDS9UGitKBz+OheHK8a/BiGXmWd+H1vIOA4kCkwoVAm4IPICF4WVuWdZNHZRYMAdJKm18rNoryl8XAivhuPju4bNf4Xx4zEiBgxILhXOl+v66UGlbvZpjBe9xbhHxjmgfKk1QYmGetRr26dUwBzkB1BMZAc2xggP8K6xf/TJEqUGJZQSiR6XSGkCIhqkMIeCBwP1Yvwpy8lhwYmGeRcbP92iUsgiBOhHgPcPXmKuAK8sRnFh0u8Mc/HddTFe5b1RAWgSewLh1vq5nNBGDE4sVQWvdjR/a/Jh2YKi2CghAW90LN3uwyKEoxEL7eMP4fRXaqaxCIDUCt8PNHuwovyjEgjn4B6jVr8Ec9N4olhpV1ddqBDhObwuJQBRiUUCoVa4HaLE4ZG+prCgIwAz8BdzsQS2saMSC23IxULgTWktHo0UZDio0IAJ3YLwGVQLRiMWwe5iDX0XjtbM44AhQUcER4DFnt2G8BlUA0YjF5sM7SPUaJEQkOJwqUAj8CYFfQQHMDw1GVGKZo9GCCx0aBJXXagTuhgIIEm0xFMWoxGJF+Bp8HfOsyvtbWt31anwsBJbBcXEVvdihK4hOLHwNeMjMHaEFV3lCoCoCINVCfPijjM3oxMLX4PcQ/gporcerAqH8QiAwArfjwx/FuRadWAQCa1o0BRXiFHhUqLhKCDB86cbQ3sCOREmIhTUCEuvmSjAosxAIi8BCLAoHC7odKVoSYpkNkP+Byh8Ni41KEwJeCHCLyLcRGxjFDKRESYjFimDLLsQ86zovGJRJCIRFYAnm/VHHYjJiQWs9i8Z8Sa73sCNEpXkhMM8cfOSV2SZTMmIZrbUAP6O4N20a26Q0Ou/CuzdXwAz8//jQr/QuwSJjUmLxomRorcuhtYKvdFu0tVFJdEKTd3c+iDH4E+/clhmTEstoLXpidESaZQeNlkwaywvAZ6GtvmGu9/UqwDZTcmJBaz0B4W6F1tLNJLa91CWdNJYXeHRa0AwMGsneTZLkxKIQaNw38GOxFzTKtAYBaSz3gQBt9V/mFDH3zI45aiEWGrcIct6sTZCOvTUkuTSWM3Y8j/362E6LjlS1EIuNg9b6IoRQ1Lvz+PhTBmksZ+DuRqRFMo90LcQiJOaINIU5OY8PZfBA4PcwA69ApEXQ7fe95KiNWGbB+N9gDtIsXOfB/3vgpyxCoCsCdLFfnxKb2og1RGt1XVNYvpGC4VMOhAbXtYqbGWEhLU7ZxlqJZRaML4V20rpWyl5vV13UVt8LdSa7LXS1Estorbvw80e2AiudEHBAYDW01TehrZI7yWonVsdDCK3F8971CIGQCDwEbfUtzudDFmpTVu3EMlqL52LcYCOw0ggBBwTugLaqZZqRBbGM1vo8tFaydQaHzlHSMhFYAjPwyzFOYLKBIwtiUdCTDz2XX5bv4/2jjeBKIwR6IPAC/nbrSa86/ad1oZQNsQgA7OErobVuqgsM1dsYBB6Gtvo8tBWPj67lyYpYRmv9J5AIfoBiLeiq0joQoKPiRmirn9VReafOrIhFoRDPdRW01jfxrq4TGNVdLAL3Q1t9IVWw7WgoZUcsxnPBJPwcBE6+9lDsUJLgHQSepsMC2opro7U+2RGLaJgA3auhtZ6uFR1VXhoC95qNjM/VLXiWxIIaf5p3ayFe8Mm6Acqxfm0Z6dorPBxmLubpD+fQZ1kSy2gtnkN4JX5flQNQOcmgTY5de2Phq/c88Qu59FO2xDKn514OoB7IBaxc5JDGWqcnOGXgBQfZjJVsiUXooNbvg9a6AG82gOVALmmsdXrhTmiri/Ax5sJwFk/WxCJC8PBcjR/flyPjz+NFGmsYd34DT+Al+Ag/kgWjjBDZE4ur53BkfBnyLnQFTruQXRErMv3PsPaZXbRO9sQyjgxeEv49EOXXLl2vXcguaBWZdim1FdY+s7vUsAhiQWutgtb6N3T9jUV2v4QOjgAItQKFzoW2ujV44QEKLIJYbCds6MdArouhtbh3S0/LEXhk+aLFcFh8AtqKNzNm9xRDLGMSLsBPBulqa0l2QympQDzO7HJz8GvSim0rK4pY3LQGrXUZtFaW6t8WdKWrjMCdGAdf51pn5ZIiFVAUsYxJ+BB+fhXvb7th0mRPYJPb5jC+H4W2+mdMDZIdvukg29qkxRGLkmNtixsiGZWxzoJgkz2BbFvL17C41+pH6P//9hnsKfMUSSxzHiHPyLipbV/xlkddLIDD4oI6dwbbkrNIYhmTkPu1voT3l20jl23nNizd/3ADI8PcSmhXscQyJuG3DLkGSwC7qoxt/oCAVNdgzeoHVTFMlb9oYg3Zt0WHRuMfzrFaSi5enPEVrFkVc3d10cTqeAkx2C7G78WA3vgvQNgG8pb7S+CwKOrKp+KJZUzC74BcPCej0fcao43cJbs07LjNuzSQ6lqsWV3FsLa8JR0uXSOIxYVj2N//joF3VUnge8j6OAbZB5GvLZEnDF/7Fzgssguy7dd3jSAWGwn7+1EMus/i13W8Rg1a+2F0P2Pjivp69xuEo/z9SWirT11w0uVFmYCdtjSGWGa+NR9a6+Mjb4ls0NoPCcUTiJ73HKylZONC8A0leQFHAtsoYpn51rfxk4fQJL+6JeaoNd5AxsYx2qTppuBtWAj+CKwQp/13MfF3LbtxxBoSqHs5BmNjjqo2oVokFLVVY9rVZcDeBxPwAnPcuOt4ziZ944hlTMI1e7fw+7xskK4oiNFYNAVfwMDreiF6xSpyyM7oin+Ba734Gz4bSSxDLjoxLsGAbMTisdFYg0Zjjc2BBYFl+CNI9XV8EL8Bq6P2k2yrtq2xxDLzLYY8MQq+CabTagw63h/GeVYTnRfz0a5/hQlY7LxqKBkbTSx8+Z7BYLwUWov7t4oejGgD13K4AM47n5q2EM551QfgWie5GvE0mljGJHwC5PoHXg1Uco/BFNwY8q+Y9sI+DN16ouS2jJD91yDVhU2YV7VGY3UaCvPiQZDrE/j3PaUOSHwYSKin8NIz2AhzCe1giNb16Jtrct5m7zNmGq+xhpDrbgzOj5b6tYfG2gKy84xymrf0mg36dHhGebgedwvWqz6ED1+WJy1Vwao1xCJIWMm/BuS6EG/W5yV061DITC8n51d0xDyDt/QF8J/DBDwvl2t3qpCoW95WEQsr+fzaXwEgeB1raV/JNWRCG/ilp+YqOV7wQZDqY3BW3BZ6QOdSXquIRdDxhfwtyPUZ/PqdXDrBUo5lcFx0lg3oFSx1rYeXGFwM6+EGy3YXmax1xDLkWgJy/T20FuMKS3mehLYaSiyahaU9a260B/bfRFuatmQwrC9aSSxDrofQwZ8EuW4rYLv7CrM4vKbzoLl+i69+idspboKz4n20Gkr7IrjK21piGXL9HD8vwTngWTszQPxfQs61LnZ87WkGZjlH7LFF5w6Q6r253WPlShjb9K0mFkHCwuRV+Pp/DoM35y3vXLvims/QZ9C2k1OmG2VT6QN0VoBUxa4jumLYemJxmwnIdRmA4+m6XICt7eljko70Ai6vTVC3ih8BqT4MjHmZRWue1hOLPQ1yLccc5tP49ZphKmHpSCURd1z0OB6b0ezDjtOGvHfh/2r9EFigwe31F4NU3wbGRcdqWrR1WBIRy8Bh7t86H1qDdx6veTLa0s9BOXLXMB0AOWstXrVzKdzqV5Z2wpIribqlF7GGoGJiCj+E/1oQAtyAZdBRMVJ90jNIrZXjsxqyfQ1aldeYZulkiQ2aiDUCYZBrwUGbH3saNNePY4NvU76Zd90HuYatW+HfJFqOO4mpXW/gUgZkbFIUvk13rU0jYnWBCwPiDgyM92FQ164ROO+CLN8bpVdzXCb4Edzq7wKGXCJo7SNijdL1GBiMY6MbfmGdowP186vf9fhsEO4O/I1xg7k8XAA+u/SDYEKAKWL1QBHerP+HwfteDG4uJNf10M0+WiQ751m57M36GUh1DkhV64eork4aWa+I1aMn4M16AQPlhzQLsfBZ14BhfOBod+1SW+XgGVwAgp8PrGo3nUWsXBCwkAMD5r/5NR5qFiaMLyR5ui6oMWYQf7vfogkxk9wNbM7EFpBWLQD3A1Qaqx9C5u8kF369FO+j/K8Udx0b8i4FgbpqJbiyqckWWzYhRrJ7oKk+Dmx+EqPwkssUsRx6D1/lz8AV/w5kedIhm3dSQ15uFxl1UyPM1OtQQR0OjIXQVO8AJt/wbmCDM4pYjp27z24Hcnv/BTQLY5uDKJ+E6hccTI9h6mtuqKk+AU011xG+1iQXsRy7mg4Nai5oijOR9aeO2V2TL0M9PXfawkxk5PjaMCzXCjzS/xSa6q+Awdc88rYmi4jl2dX8WmPQ/y2ye0U/WGo7Oi16hgTBTHzebIJMEZB7O0j115pT9R80IlZ/jEZNgQF2E+Zcp4MkzpN3S+cHw4NszrZgBEZsc/BWkOp0tPnOCpC1JquIVbGrMdB+DI3xN9zi71JUP41l/k5i9d1uAXNwMcxBnuse6+H5f2cyjjJWBU0rV8QK0KM0jUCud4IM1pP5fhpryH1Yoy0Or5WcW/VR/3fxH0sCNGdoEc/zBhCQ6lS08e7AZTe6OBErUPfSRDLkutGmSEuNRbe+lSsdWutOkCDkqVPcT/WvnEeibV7zSBscmppGxArYszSVMBDPAmn6mmX9NBbEegFlfQtlWsUCQmutRHoSK4TWYgziP6G8j6D+EOUFRLmMokSswP3EIFQMSIY//QeK7mvGdaveaDNGWzziIh601jwQ4lqXPF3SLmE0BXb+/nOb91NVxHCMiFUVwS75MSAfxsD8AAjyOfyZR0P7PNzYuMwlozkEkx5K3w2GC0Gq9yOq/1KU1fiz/1ywdU0rYrkiZpkeA/NXGKDngVyfQhYfVzhPinWOXAehvwNy8KI96wfpGeExF06KOVz4xSJ46RcuWLc9VkIRKxayKBcD9Hcg18ew1jUHBHM9ufZBmHbO8xsQmqfmMn5vvmXTnsWBpT82nr/GXIZu2fZoyUSsaND+qWAe+wXTkGdAnA1yXYu377oUsv0B6a8GSaw8gl2asAhE+biFKcnjyT6NtG+HjA9EhqJVxYtYibobA3ceF5JR3bCzC0epnqaYsxnYKQt1PQVtdztIc2Pn//D7yKrm895fmI4XIf2arTB6wiEgYoXDsm9JGMD3glzvgdb6IhL3cmrwgM6qDwN4vwjyrDlWAOZepzx6Kq+nlsJ86kvQik4OkqpCtSW/iJW4p0GuhzDvIrk+iapH0xQT8Lftbpp7/bgK4j0HrbUAGulckOsWowFp+n3OxPzNr1C2svZBIMSXUSB7IvCVmy+avejRuy7AYvGhnSI6ERnQNp8HMT4CjfIbl+JBxolIvxHeDfGuj3dTvJMXj503A3WN4wE5mPf5zt1cRGl1WhGr5u4HufbAgKdL/tUdUUCqP4JU3O9E7x6jybl9hEdMs7+oxWhpdF6ShyTaCu90vFPxDuClqcmoDUa+84y/J1xJWjM0RVcvYmXQfSDXriDXhyHK8XgngFjPglid8wS5z4qeRF6KQDKNNwTr/JukooaiZiKh+DufFXgfxsvA4K+CVAqiTdjX/NrpqRkBOjUWLJt7xpXXXbYapNoDpJoCkbbDS+3j+9AkJNlI0JEXKviWqXyWCMh5YQlU7GSY96yAo+H9IBVPgmI4EzVT1YfkWj1p9w0Gqxak/G4IiFhueEVNDXONB8fw1sNQF3ORUD8EabseUR21MS0vXMTKbwCQBDz9NsQzd+9Zu14RoiCV4YaAiOWGV/TUxmzzjU4fKt8KlPX5gfW2C6X9ore9SRWIWJn1Jsw2nsq0OIBY9+44sJNr4G+AalUEERCx8hwHnGsNu3PYQ8xboK249URPDQiIWDWAblElA/uqxPAxgLfnQZ8WMihJBQRErArgxcoKhwO31z9Yofw7UMaNFfIra0UERKyKAMbIbhwOTuddjJDjAZSheMAYnWNZpohlCVQNyaoQi+FMempEQMSqEfxeVcNVzosOfA50YVyhT75MkShTLBEr335jRDoj010frl/d6ppJ6cMiIGKFxTNYaViD4iKxz73H3C6S5GK8YI1tYEEiVqadCucDTTofgjAcStEWNferiFVzB/Spnuaga9zgILRdiruy8kauZulErJo7oI8D48f4u9PWfKRntIX2X9XcryJWzR3Qq3ponvvxd9eAXLraq4ZDZYxKGaKJWHn3E88XdD3z76mNxkySxqq5X0WsmjugV/VwYJAgrjGDKzdYb6LNabsZt7x80USs/PvQNULd5s7i/FtduIQiVv4dyCgKF9POJW3+rS9UQhEr845DFMUdEHHQQUyZgQ5gxUoqYsVCNly5DGtyWZcSscJh712SiOUNXZqMcLkvQU0ua1le17OmaU17ahGx8u9rutx5DobtI41li1TEdCJWRHADFU1nBA/wtH1ELFukIqYTsSKCG6JoE4zrckG4iBUC+IpliFgVAUyU3SVaXRdzJ+qUXtWIWBl0goUItl5BntPOo9P01IyAiFVzB9hUD7LwNnsbcq2//J5VvKVET80IiFg1d4Bl9VzLst2XpTmWJagxk4lYMdENVzbjBW3mTs/JFAwHepWSRKwq6CXKaxaJbYJxx8MUnJxILFXTAwERq4zhwY2LtlHrvDpVT80IiFg1d4Bl9SSWbaiSrr+1BDVmMhErJrrhynbRWLqwPRzu3iWJWN7QpcuIrfZ0XNiagiJWuq4ZtSYRK4NOsBTBdgOjiGUJaMxkIlZMdAOV/cyY5Zw32a5PiViBcK9SjIhVBb1Eec2pS7bOCxErUb/0qkbEyqATLEWwPStQfWoJaMxk6oSY6IYrm6SSKRgOz+gliVjRIQ5WgZwXwaCMX5CIFR/jEDVQY9kSy9ZkDCGXyhgFARGrjKFBM1CmYBl9tUZKEauAzsKR0S4aa1wBTWq8iCJWOV28ylLU8ZbplCwiAiJWRHADF/20ZXkKwrUEKmYyESsmumHLfhDF2WzPl8YKi7tXaSKWF2zpM2Fn8JWo9TK8d+Fd0UMC9Wn67lmnRoW/ZNAJLiIMPv/YxksGHzoMO4VPRL598U7Fu9mQMr6096xdT8V5hHK7uwAbOK3s8cCAxi4OhOFc61q+INlEkOwgkOw0/HsvvJvgdTnnPba4rS1fxCq460EyHuT5I76rnl857ie33HoGfn9Y2qrgTpXoQkAICAEhIASEgBAQAqUj8L8DuBsUobtgjQAAAABJRU5ErkJggg==;spacing=-4;fontSize=7;" parent="1" vertex="1">
          <mxGeometry x="174.63" y="287.24" width="15.37" height="31.59" as="geometry" />
        </mxCell>
        <mxCell id="r_LDuMVwWnfsW8-giX2U-28" value="Mongodb" style="shape=image;verticalLabelPosition=bottom;labelBackgroundColor=#ffffff;verticalAlign=top;aspect=fixed;imageAspect=0;image=data:image/png,iVBORw0KGgoAAAANSUhEUgAAANYAAAG4CAYAAAA5ahmwAAAwx0lEQVR4Xu19C7heRXl1QggkIHDCPQRIImi4E0CuIVwUxSpQ/kdE1CgKFLAoqOWvWkW8QlvBp9UqQn+rFouIt1+RorQgGEAQMSFIIFxjJFzUJocoREKErhXni+ecfOf7ZmbPzJ7Ze+3n2c85yZnLO2tm7fedd96ZGTNGjxAQAkJACAgBISAEhIAQEAJCQAgIASEgBISAEBACQkAICAEhIASaj8BNc68/YsGyuS9tfkub08L1mtOU5rZk8dh5h89bePsbBp9/TP1VSDero8roqI0WPXrXEUsGH9qpDHElpYhVxhjYAGJutfyeVdPLEFdSilgFjAFoq/0g5g4/XPrls2AOjitA5NaLKGJlPgRApLEQcQLegUeWL9ob5qCcGJn3GcUTsTLvJEOkLZdvtISSTr3yuss+KK2VeaeJWPl3ELyBx4BUQ+dWu911y70z85e83RJKY2Xc/9BM69NpMVREmIO7w/3+MmMiZix9u0UTsTLuf5iB0+G4eOUIETfA/x2Dv03NWPTWiyZiZTwEYAa+Bmbgvh0RB6ZMXPMrtNYh+NvLMha99aKJWJkOAYQw7QDNdOJQ8QaXruz8c3P87U1Is12m4rdeLBEr0yEAjfRqaKv9h4rX0VhGa82W1sq08+QVzLNjoIk4t3o7pBvfQ8ItkeYkODH+ZB/qyQoBaaysumPMGJBqE2iik6GtDu4nGuZax/zjVe87p186/T09AiJWesx71ghSnXTbsqvPthRrE6SbBTJOtkyvZIkQELESAW1TzVduvugEmHcfQNpJNunNXOsgzbVs0UqXTsRKh3XPmqB19iSpRkRZ2EjHudZfI/9LbBIrTRoERKw0OPcj1R6IAfzs0DUrF7Ew1zoK+c9QDKELanHTilhx8e1bOjTNDJDi0yDV4X0Tj55gfZDrtYgh1KJxBRBDZhWxQqLpWBZItQfmR+eDVCPDlhxLWpN8F+zXOhNlbuqTWXnCIsAgTz01IAAC7ENNhaoPH7NRGAGgtV6OXcYHobTrwpSoUnwR4CY6PQkRMOtUc+BwOBuaahfXqoeENXXNOn3SjP886VWnv2OvzWev2cClpx4EZAomxB2k2hym3zkg1fk03SY9s2Pw2qG1XgNN+G6d6BQcWqcCZQo6weWfGKTaBqQ6F6Q6DZpqwL+k/jlBrtd/99Yrvo+UN/RPrRQxEJDGioHqiDJBqp3opEBExVn400AMTTWiyu1B4HNQ7xYJmqcquiAgjRV5WHDhF6bZxajmSDgp1jdnV3jXygj3fvMsFg6tdRjIfCR+/aZ3ZcrojYA0ljd0/TOCVHuBVJ+hOx1vkI+YDamMZAPQWn+HMKlZ/SVVitAIiFihETXlgVT7gVSXgFBHhKqCJuTQPVn9yoXW2gfk+ghN0X5p9fewCMjdHhbPMTwABhEQx2KxlnF/wzYqhqjKQWOtrQ4u+K/CBf8+uOAfCyGDyuiPQBDzpH817UgBUm0Ib9ycRUvvOtdnjcoGJds51oiyjoX2/B3kO3tgve1W29SjNNUQkClYDb+1uTFoJ4BUb4Xp9cFYpPIVFSbhZniPh3xvNEeq+RalfJYISGNZAtUrGQbrRhi0p4JU/xek2iFAkTGKmPyDu6+6EDLujMK5QK0nIgLSWBXB5ZkTINVpGLB/mzGpOq2cgl9OgqfwmIrNVvY+CMh5UWGIGFKdYTRVsqPIfBwYI5p536v3PPE9Jx967g8qNF9ZeyAgjeU5PECq8dBUbwap3gNNlYxUnuKOzLYLzMJPQXMdEag8FTMCARHLY0jw3HSQ6kTjqAgfSeshk0eWPSD/xSBXlQ2WHtW2I4uI5dHPWKc6jlENyDrNI3s2WeAp3Bft+LQ0V/gu0RzLEVMMwldiMF6EbHtVjftzrHpt8gBzrGFVYwF5/ozt9+ac60ZfmZRvOAIilsOIAKn2B6kuBaH2ccgWPGloYlFAkOtOkOvdINfNwQVuYYEyBS07nYe+cE4ylFQJtn9YSlc9GczC/YxZeEj10lSCiGUxBkCqHRESdCGSzmbyDqHqMgUtRPZKAnLtD2/hP90093qem6GnAgIiVh/wQKqtsK/p3Uh2dIdITSPUCAj2/8IvPnAhPyYVxlXrs4pYPYaAOfjldJhIbwOZAp2lVMSYOwIa+h9ELv++ErFGwQ6DagI01dtBqneCVNZnqft3RV45YRaeAHJ9AjgwDEqPIwIiVhfAMJjWA6mON1EV2zpi2pTkPF339SDX+TwIpymNStUOEasL0iDVUTyiDJpqWqqOcKnHZRexS7ld0k4Aud4Acr0f5Gqd1q6CnYg1Aj2sVTEa4ZO57akaKmaMdaweg2hTkGsOyGV7Z1eV8diYvCLWkK7kZB2kugCkyvpygYQaq4POliDXWxh10piRH7khIpYBmJcJ4Kt8Hkj1qsiYVy4+scbqyLsT1rguArnWrOXp6Y2AiAV8QKpxmFcdh19fizf7MK8aNFZnFO0FcjFod18RS8TqOwZAqtlmC0gRd/nWpLE6OL4M5PosyDWjL7AtTtB6jYUBwitKGa7kfPNHXeOmRo3VafJBwOw8hD5NrQuD3OttNbFgAm5rnBUHlRSmVLPG4pheD86M43B24ntAriK0fGoitpZYDFeCs4IeQM6rinoy0FjEaxO64UGus4Dli4oCMIGwrSUW5lVHA1+6j7N3ViQYB75VbAFynYIP1Ckgl3AcgmIriYV51QHcWg9ttb3viFK+tQhMBrnOxIfqUGHyZwRaRyzMCfYGqT4OCGrdBVxlEGYwxxop/q7m1Cd5Cg0yrSIWzJUBzAn+Bm0v+mSiTOZYI8l1ID5YH4M1IGcGvTtVvpyl5eV6FWQ+AibghiV5AUvBGSbhsSDXu/ABa9Peta7d0xpimfWqDxVwDHQpPOom50SQ62Q4M95QciNCyN4KYnGzHr6kHwZgWQfX2nZohnOsoaJvB3K9lyda2banieka7yIFqTbEF/QiaKrT0YEbNKUTMycXYb4J58O/GcepLW0K5i7taLzGwryK3j+uWTWGVC4dXGNahj0xMmOrGmWorepGE8uYgLyy9CW2CDfprEDbNkdKtyHnW/DCvjlS+VkX21hi8TAYmIDvBPpO+4fkLQw6XrlB8nTMtw4OWmoBhTWWWDABXwaSzGnjCUuZjTsuHnOD5K6ZyRVVnEYSC524A/dXATmFLEUdPtaFHwJy/SPmW1tb5yg8YeOIxcVJkOpcVxOw8H4sQfxDMd86oQRBQ8jYOGLBBOS28dfCBNw4BEAqIxgCA5hvnQVrohFrif1QaRSx0Gnbmy32O/VruP5eCwK7mflWaVfLOoPVGGLBBBxvTq59uTMKypASAQbrvoMbTVNWmrquxhALJuCeNAHxaiE49Shyq4+n63Jz5Ilu2cpK3Qhi8VATfAXfj3mV9gOVMf4YT/hOmO67lyGuu5SNIBa8TW8FqY5xb75y1IjATMy3PgaTcLMaZYhWdfHEwldvN6DzOrwTo6GkgmMhMBsmIfuucU/RxOIEGCYgD+tv1ap+g0bhVjAJz8bHcecGtWlNU4omFhwWe6ANR8EMHNVhoaDa7Ifs3ozKaJpJWCyx0BFbQFudg2HTc81KQbXZE4sCHg6T8KQiJLUUslhiQVvxQJhZIo5lT+edbHMTldGYhf0iiQWbfBdoq/fqXMC82eIoHc/QP7MpB9EURywTZEtSzXLsOCXPHAForTfCJDw+czGtxCuOWMZhobAlq+4tLtEUkOtdWPC33vGdawuLIhY9RyYecCd5+3IdUpXlmokF/zcx9rNySTUWUBSxoK32hwl4JPGi00LkqnHkxKuasYRvQV8fGK+K+CUXQyx8wSYb9/o2HVjkEYw/QGqqgfcdn4c+37Km+itXWwyxMKl9G4h0VOUWq4BSEJiFPn99KcKOlLMIYsG9/mIIziDbCaUCLbmdEeAO8Dmm750z152hCGLBBDwF2qrVRxbXPVDqqB9zrf3R92+to+6qdWZPLLheeZLtX+At2ktUtaNamn8817ZKPCcja2Jh8joRrtdTMKgYbKunnQi8FI6Mj5bmyMiaWHC5ckfwkb2i19s51lrX6gNKi8jIllg8IpqHjoBUjd2+3Tp6eDZ4+qQZPKr6FEwLdvAsInm2bIm1/J5VM4HGQckRUYXZIQBSUaY9MC04LjvhRhEoS2Ix0BYgct1qr1KAlJzREdgEBHs7tFYRW0uyJBbmVtyqfWj0rlIFpSGwCz64x5cgdJbEwtzqVM2tShg+yWXcmFoL7vfpyWt2rDA7YsEMnCZt5diL7Uq+Kz+8GCdZH8yaFbEA1npwq54BbbVvu8aKWuuAwHrQWieZfXkO2dImzYpYaPpkaau0A6DQ2naC1jqLSzK5yp8VsbgHB9pqZq5gSa6sEDjMBBBkJVRHmGyIZfZbnQHBXpQlUhIqKwRgDu4MrfVXDHvLSjAjTDbE4lHD0FaH5QiSZMoTAZDrNdBaWUbmZEEsfHW2Qte9Bm+2NnOeQ6v1Uk2H1nobxs+GuSGRBbHo4YG2asUVmrkNgNLlMVoru1OdaieWOSfwVHQwtZYeIeCKALXWKblprdqJZTw7B7uiqfRCoIMAtNZf5jbXqpVY/MrQRgZA2YeoaBhnjcCLMY7m5CRhrcTC1pCpAOMgzK/G5gSKZCkPAWit4xBDmM09abUSa/HYeSQWT2DSIwSqIsBojDmwgsZVLShE/tqIBQBexGBKNKLYQxlDdIBvGQNTslwX9W1OkHxmrpXF7ZC1EQuTzZcCzQN0mq3fmBpcutIvY7Nz7YiP9StzaGItxIK2Wh8AvAWkktMih1HQHBm4y/hNOZyNUQux0I9cszqgOf2ZviUyBUfFnLuMa787rRZiwQzcF9pqz/TDsTk1yhQctS8n4S9/Aatokzp7Ozmx2GCYgaeh0bU2vE7QVXdcBGAOHomP9y5xa+ldenJiGadF1x3Cuu/KfijIFOyJ1Q5mS8lG9oiGTZmUWIPPPzYWDT4ZZuCO3Zqhy+TsO1emYG+soLWOwkd8mj2iYVMmJdaSwYem9HNayP1u18HSWH1xYnDu6/qmipQgKbFoBoI4PI9dT0UEpLH6A8gFY7je+TFP/iQlFr4gb0ILB5K3soEVSmNZdeoUhM3VslaajFjwBm4LKHRktNV46J9IGqs/RkixLT7mb6zjDMJkxDJmIMOY9ARAQBrLDkSYg0dj7CUP9E5CLHgDx+HL8WZAsZkdHErVDwFprH4Irf0792r9pXXqQAmTEMt4A3W6baBOYzHSWNZgjoXWOgFOjK5LPNalOCZMQiyzKJy0YY44FJdcGsupy3ZG/OAhTjkqJo5OLB6oaLZNb11RVmUfgoA0ltNwGIDWOjnlkdTRiYXt99sDgr218Os0EPomlsbqC9HIBLvAckpmNUUnFtYRtgOpstjV6dwVGWeQxnLunKmwnI5yzuWZISqxzIbGN0A2ncfu2UGjZZPGcgaUTozX8UgI55weGaISC/LwPAstCnt0TL8s0lj9EOr6951TrWlFJRYasQ2al8yu9YK60EzSWF4dtz3MwWO9cjpmikosRhdjfrWDo0xKboGANJYFSOsm4W2QJ+D8we28cjtkikYs2LIbQ479HWRRUgcEpLEcwBqelJEY0S/giEYsmoHQVlneXeTdJRlllMby7oxNkfMVsQNzoxELwtPFrhtEvPu/d0ZpLH9gYQ6+KvaaVhRi8WsAdft6NF0Xyfn3f8+c0liVgJ2G8fmKSiX0yRyFWIi2oJt9t5iCq2whUAEBfvAPNX6ACsWMnjUKsRBtITd7lO76c6EyBasBDHPwYLMcVK2gUXJHIRbU7NGaX0Xpr7WFyhSshu/0STO2xDiNduFhcGLx6lM0mSH62V24XK0rlLtJCEBjcdPtLIzX8THaFZxYUK/0BO6maPYY3SVTMCSqINds+AOmhSyzU1ZwYqFghjBtEUNYlflnBGQKBhkNU7EBcr8gJY0oJDixYLf+H2irgRjCqkwhEBgB3h9wYAxzMCixICAJNTNw41WcEIiGAMzBV2D6EvxW0aDEgoC8QoU7hvVERkDu9mAA87zL4KflBiUWBYQZSEH1REZAc6xgAG9lloeCFciCghLLhIno3qugXaTCEiCwH45HC+pwC0YszK/GAQCFMSUYBaoiLAKYZ81EtFDQeVYwYmE9gBsakx/lGxbickrTHCtoX02GtXVYyBKDEQuM3wLzKxErZO/0KEtzrKBATzAHzUwMVWowYoHxR0CozUMJpnKEQGIEXgKv9uRQdQYhFuZXjAuMsoIdqqEqRwj0QYD3Fgcbw0GIBYG53Xmquk4IFIwAg3FnhpI/CLGgQmkCRj/5JlSjVY4Q6IYA5lmHhDrQMwixDKm0fqXxWjoCU6EkgiiIIMSCbXoMPIJBF9hK7yHJXyQCW2MsHxBC8srEMucG7BJCGJUhBGpGYGOYg8eEiHavTCwsDHNjY/AgxpoBVvXtRYDnuw9UbX5lYmFhmCfe8vAYPUKgCQhQUVSe1lQmliEVz7nQIwSagMC2mGfNrNqQysSCEC+H44LrWHqEQBMQ2ACN2KNqQyoTCwKMek3PpGd0g0/VDlL+9AjAgXEEbiThpl3vpxKx4D3hwvC00WrXSU3e/aKM9SLAzbqVtpFUIhY8giRWJQHqxU+1C4GuCHBXcSVzsBKxjEdwQJ0jBBqGwKYwB4+r0qZKxGI0MMy9rasIoLxCIFMEdq4yz6pELADCE5m4JV+PEGgaAlyb9fZ2VyWWIi6aNpzUng4CjBv0dmt7EwseQd4xNGzHpdzrGpUNQmAz3vzo2x5vYsEjyLnVsBB7udd9u0H5MkVgRygQL454ZSII8AhyhVp3DGc6IiRWEAS4P2vApyRvYqEybmzUHVg+qCtPKQjsiHmW1zptFWJtBdPPq9JSUJWcrUeAl9Ol1Vhg8v6oVK721o+9RgPALVE8iNb58dJYmNBxfvUS59qUQQiUhcCGDMj1EdmLWKiI+6+CHW7oI7jyCIFECGxt7iVwqs6XWNRYOvXWCWolLhSBbUywuZP4XsSCC5IewUr7VZykVGIhUB8C22BpicEQTo8XsaitFHzrhLMSl4sAlQidGE6PF7HgEXwxallzQKfCmJzwVuLyEJjks5blRSxgM9DBR2FM5Y0USeyEAK/2cT6FzJdYlY+HcmqaEguB+hAYi6qd79X2JZZzRfXhopqFQDUEsJZ1sGsJvsRS8K0r0kpfMgKTTFCEdRuciWX2YckUtIZYCRuAwNZYYmLcoPXjTCwslrECrWFZQ6yEDUCAzjqn056diYUKeA6AE3sbAKya0G4ENoXL3en+N2diYRV6fWDsvGDW7n5R6wtHgJEXdLtbP87EorbC2pUTe62lUUIhkCcCjI112nvoQyxqK+0cznMASKo4CEyAy32WS9E+xOIkjgzWIwTahICTleZLrDYBqrYKASIw4AKDD7HkuHBBWGmbgsB4l4Y4Ewtux91dKlBaIdAQBMYjOIIecavHmVgo9UVWJSuREGgWAhMRHGG9SByFWNqj1awRpdasQYCmYFSN1XebsvZoaSg2EAEuMVl7w500FmxMstb7apMGgq0mtQeBSSbqyKrFTsQy6tDJO2IlhRIJgfwRoKVmPfZdicX0Ov02/0EgCcMjwPmVNV+sExo5RazwHaYSy0CACoXb9K0eV2J1vCNWhSuREGgQAiRVHGKZgzrlvGjQaFFTrBGwJhVLdNVYm8CVrk2O1n2hhA1CgFyx5ot1QgMQ/fjWi2QNAlVNEQKcY1k77pyIhThBaiunnZTqDyHQEAQmYvxbh/M5EctM3lzzNARXNaPlCHDcW1trriRx8uW3vCPU/GYhQOeFNV+sExqMnHz5zcJVrWk5AlG9gsT2hZYDrOa3EwGnce+qscjaP7YTV7W65QjEWyCesf3eywDuyn4Aaz9WP4T096Yj4KqxVoI0v+sHivZj9UNIfy8QAZqCz9vK7USsaS/ssxoFP2NbuNIJgQYhQFJZT4OciDVp9w1+a2MKNghMNUUIdBB4BlOhvtZaJ7ETsYxHcJWwzgOBgSkKgknYE9RWtNisHh9iWduZVhIokTcCg0v7+pG8y1bGdRDgHMva5e5KLJJKxNKoayMC1qQiOK7Eeg55+OoRAkKgBwJOxNpr89n0CFpP4IS8EGgQAlFNQeIkjZXJaJHzImlH0HFhPQ1y0limGX9I2hxVNioCcl4kHRzPuigVH2LJFZW0P0evTBoraUcMIkDCeqnJmVhYJLsTYU1OHpKkzW9RZdJYSTv7adQWj1jGeaF5VtI+7V6ZNFbSTiCprMe9s8ZC4fQMWjM3adNVmRCIh8BKhPRZT4N8iWXN3HjtVMkyBZOOAXoF4wThmmY8hZ/0kOipGQGZgkk74Dms41r7Fpw1FjwjNAVXJG2SKuuKgDRW0oHhNP1xJhbszMfRnOVJm6TKuiIgjZV0YAy61OZMLOO8UFiTC8pKWzoCjLhwGvM+xGLkhTRWBkNFpmCyTvjD9EkzbnepzZlYmMDRM7LEpRKljYOATME4uHYplcrkNy61ORPLFP6ESyVKGwcBaaw4uHYpdRARR05WmhexUMnPUfnvkzVLFcl5Ue8YoOPC6RAlL2KhkicRLyitVW9nj5HGStYBj+2z24Ekl/XjRSxU8j+ogSc26akRAc2xkoH/FHwL1uFMlMqLWMjHSpwYnAyCFlUkjZWms+ERnOdakxexwF6GNS12rUzpwyIgjRUWzx6lOSsRL2IZAR5J1ixV1BUBaawkA4Nxsc6OOm9iwTP4M1Q4zFOiyxCSdPTaSqSxkuC9AmP9IdeavImFiui8oEm49tFlCK7wV0svjVUNP5vcmF/R+z1snNvk8yYWoty5VXlYhdJYNpCHSyONFQ7L0Up6ZPmilRjr6YiFKPffgEjDQpukseJ39NAapLHi4w2N9QDGero5FprEaN/H4jdNNYyGgDRWkrHxuDmo1qkyb1PQ7KZ0ntQ5SafEPRGQxoo+QF6AKTjepxZvYrEyeEv+C+bgr3wqVp7qCEhjVcewTwlPwRS83qeWSsRCaBNJ9WufipWnOgLSWNUx7FPCr6E8FvnUUolYqJCewUGfipWnOgLSWNUx7FMCg2+9gs0rEcuENj0YvXmqoCsC0lhxBwbMwHswxr0OTqpELDPPuhE/rW9hiAtFu0qXxore397OucrEQtMehANjafQmqoJ1EJDGijoouJzkHQ9bmVjGgaEzMKL2cffCpbGigv4kHBf3+NZQmViwQZ9E5b9QOJNvF/jnk8byx65fTsyv7kcok7djrjKxzDzrB/ipHcX9eivw36WxAgM6vLh7EcrkPaaDEAvyPIzX6RSbqJC0pHBprGgdzT1Y9Ahan9U+UpIgxDK+fjkwovWz5liJoaUJ+ECVOoMQC8xm9MUvqgiivO4ISGO5Y2aZ45dHT3nbYsu0XZMFIZaZZ12Ln87h9VWEb3tezbHijAA4Ln6K+RWdct5PMGKZeRaPRdOTCAFprChA8wj1e2GFVbpcMRixMM9aApf7/ChNVaFdEZDGijIwBlFqpfkVpQpGLLMZzHtBLQpEDS9UGitKBz+OheHK8a/BiGXmWd+H1vIOA4kCkwoVAm4IPICF4WVuWdZNHZRYMAdJKm18rNoryl8XAivhuPju4bNf4Xx4zEiBgxILhXOl+v66UGlbvZpjBe9xbhHxjmgfKk1QYmGetRr26dUwBzkB1BMZAc2xggP8K6xf/TJEqUGJZQSiR6XSGkCIhqkMIeCBwP1Yvwpy8lhwYmGeRcbP92iUsgiBOhHgPcPXmKuAK8sRnFh0u8Mc/HddTFe5b1RAWgSewLh1vq5nNBGDE4sVQWvdjR/a/Jh2YKi2CghAW90LN3uwyKEoxEL7eMP4fRXaqaxCIDUCt8PNHuwovyjEgjn4B6jVr8Ec9N4olhpV1ddqBDhObwuJQBRiUUCoVa4HaLE4ZG+prCgIwAz8BdzsQS2saMSC23IxULgTWktHo0UZDio0IAJ3YLwGVQLRiMWwe5iDX0XjtbM44AhQUcER4DFnt2G8BlUA0YjF5sM7SPUaJEQkOJwqUAj8CYFfQQHMDw1GVGKZo9GCCx0aBJXXagTuhgIIEm0xFMWoxGJF+Bp8HfOsyvtbWt31anwsBJbBcXEVvdihK4hOLHwNeMjMHaEFV3lCoCoCINVCfPijjM3oxMLX4PcQ/gporcerAqH8QiAwArfjwx/FuRadWAQCa1o0BRXiFHhUqLhKCDB86cbQ3sCOREmIhTUCEuvmSjAosxAIi8BCLAoHC7odKVoSYpkNkP+Byh8Ni41KEwJeCHCLyLcRGxjFDKRESYjFimDLLsQ86zovGJRJCIRFYAnm/VHHYjJiQWs9i8Z8Sa73sCNEpXkhMM8cfOSV2SZTMmIZrbUAP6O4N20a26Q0Ou/CuzdXwAz8//jQr/QuwSJjUmLxomRorcuhtYKvdFu0tVFJdEKTd3c+iDH4E+/clhmTEstoLXpidESaZQeNlkwaywvAZ6GtvmGu9/UqwDZTcmJBaz0B4W6F1tLNJLa91CWdNJYXeHRa0AwMGsneTZLkxKIQaNw38GOxFzTKtAYBaSz3gQBt9V/mFDH3zI45aiEWGrcIct6sTZCOvTUkuTSWM3Y8j/362E6LjlS1EIuNg9b6IoRQ1Lvz+PhTBmksZ+DuRqRFMo90LcQiJOaINIU5OY8PZfBA4PcwA69ApEXQ7fe95KiNWGbB+N9gDtIsXOfB/3vgpyxCoCsCdLFfnxKb2og1RGt1XVNYvpGC4VMOhAbXtYqbGWEhLU7ZxlqJZRaML4V20rpWyl5vV13UVt8LdSa7LXS1Estorbvw80e2AiudEHBAYDW01TehrZI7yWonVsdDCK3F8971CIGQCDwEbfUtzudDFmpTVu3EMlqL52LcYCOw0ggBBwTugLaqZZqRBbGM1vo8tFaydQaHzlHSMhFYAjPwyzFOYLKBIwtiUdCTDz2XX5bv4/2jjeBKIwR6IPAC/nbrSa86/ad1oZQNsQgA7OErobVuqgsM1dsYBB6Gtvo8tBWPj67lyYpYRmv9J5AIfoBiLeiq0joQoKPiRmirn9VReafOrIhFoRDPdRW01jfxrq4TGNVdLAL3Q1t9IVWw7WgoZUcsxnPBJPwcBE6+9lDsUJLgHQSepsMC2opro7U+2RGLaJgA3auhtZ6uFR1VXhoC95qNjM/VLXiWxIIaf5p3ayFe8Mm6Acqxfm0Z6dorPBxmLubpD+fQZ1kSy2gtnkN4JX5flQNQOcmgTY5de2Phq/c88Qu59FO2xDKn514OoB7IBaxc5JDGWqcnOGXgBQfZjJVsiUXooNbvg9a6AG82gOVALmmsdXrhTmiri/Ax5sJwFk/WxCJC8PBcjR/flyPjz+NFGmsYd34DT+Al+Ag/kgWjjBDZE4ur53BkfBnyLnQFTruQXRErMv3PsPaZXbRO9sQyjgxeEv49EOXXLl2vXcguaBWZdim1FdY+s7vUsAhiQWutgtb6N3T9jUV2v4QOjgAItQKFzoW2ujV44QEKLIJYbCds6MdArouhtbh3S0/LEXhk+aLFcFh8AtqKNzNm9xRDLGMSLsBPBulqa0l2QympQDzO7HJz8GvSim0rK4pY3LQGrXUZtFaW6t8WdKWrjMCdGAdf51pn5ZIiFVAUsYxJ+BB+fhXvb7th0mRPYJPb5jC+H4W2+mdMDZIdvukg29qkxRGLkmNtixsiGZWxzoJgkz2BbFvL17C41+pH6P//9hnsKfMUSSxzHiHPyLipbV/xlkddLIDD4oI6dwbbkrNIYhmTkPu1voT3l20jl23nNizd/3ADI8PcSmhXscQyJuG3DLkGSwC7qoxt/oCAVNdgzeoHVTFMlb9oYg3Zt0WHRuMfzrFaSi5enPEVrFkVc3d10cTqeAkx2C7G78WA3vgvQNgG8pb7S+CwKOrKp+KJZUzC74BcPCej0fcao43cJbs07LjNuzSQ6lqsWV3FsLa8JR0uXSOIxYVj2N//joF3VUnge8j6OAbZB5GvLZEnDF/7Fzgssguy7dd3jSAWGwn7+1EMus/i13W8Rg1a+2F0P2Pjivp69xuEo/z9SWirT11w0uVFmYCdtjSGWGa+NR9a6+Mjb4ls0NoPCcUTiJ73HKylZONC8A0leQFHAtsoYpn51rfxk4fQJL+6JeaoNd5AxsYx2qTppuBtWAj+CKwQp/13MfF3LbtxxBoSqHs5BmNjjqo2oVokFLVVY9rVZcDeBxPwAnPcuOt4ziZ944hlTMI1e7fw+7xskK4oiNFYNAVfwMDreiF6xSpyyM7oin+Ba734Gz4bSSxDLjoxLsGAbMTisdFYg0Zjjc2BBYFl+CNI9XV8EL8Bq6P2k2yrtq2xxDLzLYY8MQq+CabTagw63h/GeVYTnRfz0a5/hQlY7LxqKBkbTSx8+Z7BYLwUWov7t4oejGgD13K4AM47n5q2EM551QfgWie5GvE0mljGJHwC5PoHXg1Uco/BFNwY8q+Y9sI+DN16ouS2jJD91yDVhU2YV7VGY3UaCvPiQZDrE/j3PaUOSHwYSKin8NIz2AhzCe1giNb16Jtrct5m7zNmGq+xhpDrbgzOj5b6tYfG2gKy84xymrf0mg36dHhGebgedwvWqz6ED1+WJy1Vwao1xCJIWMm/BuS6EG/W5yV061DITC8n51d0xDyDt/QF8J/DBDwvl2t3qpCoW95WEQsr+fzaXwEgeB1raV/JNWRCG/ilp+YqOV7wQZDqY3BW3BZ6QOdSXquIRdDxhfwtyPUZ/PqdXDrBUo5lcFx0lg3oFSx1rYeXGFwM6+EGy3YXmax1xDLkWgJy/T20FuMKS3mehLYaSiyahaU9a260B/bfRFuatmQwrC9aSSxDrofQwZ8EuW4rYLv7CrM4vKbzoLl+i69+idspboKz4n20Gkr7IrjK21piGXL9HD8vwTngWTszQPxfQs61LnZ87WkGZjlH7LFF5w6Q6r253WPlShjb9K0mFkHCwuRV+Pp/DoM35y3vXLvims/QZ9C2k1OmG2VT6QN0VoBUxa4jumLYemJxmwnIdRmA4+m6XICt7eljko70Ai6vTVC3ih8BqT4MjHmZRWue1hOLPQ1yLccc5tP49ZphKmHpSCURd1z0OB6b0ezDjtOGvHfh/2r9EFigwe31F4NU3wbGRcdqWrR1WBIRy8Bh7t86H1qDdx6veTLa0s9BOXLXMB0AOWstXrVzKdzqV5Z2wpIribqlF7GGoGJiCj+E/1oQAtyAZdBRMVJ90jNIrZXjsxqyfQ1aldeYZulkiQ2aiDUCYZBrwUGbH3saNNePY4NvU76Zd90HuYatW+HfJFqOO4mpXW/gUgZkbFIUvk13rU0jYnWBCwPiDgyM92FQ164ROO+CLN8bpVdzXCb4Edzq7wKGXCJo7SNijdL1GBiMY6MbfmGdowP186vf9fhsEO4O/I1xg7k8XAA+u/SDYEKAKWL1QBHerP+HwfteDG4uJNf10M0+WiQ751m57M36GUh1DkhV64eork4aWa+I1aMn4M16AQPlhzQLsfBZ14BhfOBod+1SW+XgGVwAgp8PrGo3nUWsXBCwkAMD5r/5NR5qFiaMLyR5ui6oMWYQf7vfogkxk9wNbM7EFpBWLQD3A1Qaqx9C5u8kF369FO+j/K8Udx0b8i4FgbpqJbiyqckWWzYhRrJ7oKk+Dmx+EqPwkssUsRx6D1/lz8AV/w5kedIhm3dSQ15uFxl1UyPM1OtQQR0OjIXQVO8AJt/wbmCDM4pYjp27z24Hcnv/BTQLY5uDKJ+E6hccTI9h6mtuqKk+AU011xG+1iQXsRy7mg4Nai5oijOR9aeO2V2TL0M9PXfawkxk5PjaMCzXCjzS/xSa6q+Awdc88rYmi4jl2dX8WmPQ/y2ye0U/WGo7Oi16hgTBTHzebIJMEZB7O0j115pT9R80IlZ/jEZNgQF2E+Zcp4MkzpN3S+cHw4NszrZgBEZsc/BWkOp0tPnOCpC1JquIVbGrMdB+DI3xN9zi71JUP41l/k5i9d1uAXNwMcxBnuse6+H5f2cyjjJWBU0rV8QK0KM0jUCud4IM1pP5fhpryH1Yoy0Or5WcW/VR/3fxH0sCNGdoEc/zBhCQ6lS08e7AZTe6OBErUPfSRDLkutGmSEuNRbe+lSsdWutOkCDkqVPcT/WvnEeibV7zSBscmppGxArYszSVMBDPAmn6mmX9NBbEegFlfQtlWsUCQmutRHoSK4TWYgziP6G8j6D+EOUFRLmMokSswP3EIFQMSIY//QeK7mvGdaveaDNGWzziIh601jwQ4lqXPF3SLmE0BXb+/nOb91NVxHCMiFUVwS75MSAfxsD8AAjyOfyZR0P7PNzYuMwlozkEkx5K3w2GC0Gq9yOq/1KU1fiz/1ywdU0rYrkiZpkeA/NXGKDngVyfQhYfVzhPinWOXAehvwNy8KI96wfpGeExF06KOVz4xSJ46RcuWLc9VkIRKxayKBcD9Hcg18ew1jUHBHM9ufZBmHbO8xsQmqfmMn5vvmXTnsWBpT82nr/GXIZu2fZoyUSsaND+qWAe+wXTkGdAnA1yXYu377oUsv0B6a8GSaw8gl2asAhE+biFKcnjyT6NtG+HjA9EhqJVxYtYibobA3ceF5JR3bCzC0epnqaYsxnYKQt1PQVtdztIc2Pn//D7yKrm895fmI4XIf2arTB6wiEgYoXDsm9JGMD3glzvgdb6IhL3cmrwgM6qDwN4vwjyrDlWAOZepzx6Kq+nlsJ86kvQik4OkqpCtSW/iJW4p0GuhzDvIrk+iapH0xQT8Lftbpp7/bgK4j0HrbUAGulckOsWowFp+n3OxPzNr1C2svZBIMSXUSB7IvCVmy+avejRuy7AYvGhnSI6ERnQNp8HMT4CjfIbl+JBxolIvxHeDfGuj3dTvJMXj503A3WN4wE5mPf5zt1cRGl1WhGr5u4HufbAgKdL/tUdUUCqP4JU3O9E7x6jybl9hEdMs7+oxWhpdF6ShyTaCu90vFPxDuClqcmoDUa+84y/J1xJWjM0RVcvYmXQfSDXriDXhyHK8XgngFjPglid8wS5z4qeRF6KQDKNNwTr/JukooaiZiKh+DufFXgfxsvA4K+CVAqiTdjX/NrpqRkBOjUWLJt7xpXXXbYapNoDpJoCkbbDS+3j+9AkJNlI0JEXKviWqXyWCMh5YQlU7GSY96yAo+H9IBVPgmI4EzVT1YfkWj1p9w0Gqxak/G4IiFhueEVNDXONB8fw1sNQF3ORUD8EabseUR21MS0vXMTKbwCQBDz9NsQzd+9Zu14RoiCV4YaAiOWGV/TUxmzzjU4fKt8KlPX5gfW2C6X9ore9SRWIWJn1Jsw2nsq0OIBY9+44sJNr4G+AalUEERCx8hwHnGsNu3PYQ8xboK249URPDQiIWDWAblElA/uqxPAxgLfnQZ8WMihJBQRErArgxcoKhwO31z9Yofw7UMaNFfIra0UERKyKAMbIbhwOTuddjJDjAZSheMAYnWNZpohlCVQNyaoQi+FMempEQMSqEfxeVcNVzosOfA50YVyhT75MkShTLBEr335jRDoj010frl/d6ppJ6cMiIGKFxTNYaViD4iKxz73H3C6S5GK8YI1tYEEiVqadCucDTTofgjAcStEWNferiFVzB/Spnuaga9zgILRdiruy8kauZulErJo7oI8D48f4u9PWfKRntIX2X9XcryJWzR3Qq3ponvvxd9eAXLraq4ZDZYxKGaKJWHn3E88XdD3z76mNxkySxqq5X0WsmjugV/VwYJAgrjGDKzdYb6LNabsZt7x80USs/PvQNULd5s7i/FtduIQiVv4dyCgKF9POJW3+rS9UQhEr845DFMUdEHHQQUyZgQ5gxUoqYsVCNly5DGtyWZcSscJh712SiOUNXZqMcLkvQU0ua1le17OmaU17ahGx8u9rutx5DobtI41li1TEdCJWRHADFU1nBA/wtH1ELFukIqYTsSKCG6JoE4zrckG4iBUC+IpliFgVAUyU3SVaXRdzJ+qUXtWIWBl0goUItl5BntPOo9P01IyAiFVzB9hUD7LwNnsbcq2//J5VvKVET80IiFg1d4Bl9VzLst2XpTmWJagxk4lYMdENVzbjBW3mTs/JFAwHepWSRKwq6CXKaxaJbYJxx8MUnJxILFXTAwERq4zhwY2LtlHrvDpVT80IiFg1d4Bl9SSWbaiSrr+1BDVmMhErJrrhynbRWLqwPRzu3iWJWN7QpcuIrfZ0XNiagiJWuq4ZtSYRK4NOsBTBdgOjiGUJaMxkIlZMdAOV/cyY5Zw32a5PiViBcK9SjIhVBb1Eec2pS7bOCxErUb/0qkbEyqATLEWwPStQfWoJaMxk6oSY6IYrm6SSKRgOz+gliVjRIQ5WgZwXwaCMX5CIFR/jEDVQY9kSy9ZkDCGXyhgFARGrjKFBM1CmYBl9tUZKEauAzsKR0S4aa1wBTWq8iCJWOV28ylLU8ZbplCwiAiJWRHADF/20ZXkKwrUEKmYyESsmumHLfhDF2WzPl8YKi7tXaSKWF2zpM2Fn8JWo9TK8d+Fd0UMC9Wn67lmnRoW/ZNAJLiIMPv/YxksGHzoMO4VPRL598U7Fu9mQMr6096xdT8V5hHK7uwAbOK3s8cCAxi4OhOFc61q+INlEkOwgkOw0/HsvvJvgdTnnPba4rS1fxCq460EyHuT5I76rnl857ie33HoGfn9Y2qrgTpXoQkAICAEhIASEgBAQAqUj8L8DuBsUobtgjQAAAABJRU5ErkJggg==;spacing=-4;fontSize=7;" parent="1" vertex="1">
          <mxGeometry x="734.63" y="287.24" width="15.37" height="31.59" as="geometry" />
        </mxCell>
        <mxCell id="r_LDuMVwWnfsW8-giX2U-29" value="Mongodb" style="shape=image;verticalLabelPosition=bottom;labelBackgroundColor=#ffffff;verticalAlign=top;aspect=fixed;imageAspect=0;image=data:image/png,iVBORw0KGgoAAAANSUhEUgAAANYAAAG4CAYAAAA5ahmwAAAwx0lEQVR4Xu19C7heRXl1QggkIHDCPQRIImi4E0CuIVwUxSpQ/kdE1CgKFLAoqOWvWkW8QlvBp9UqQn+rFouIt1+RorQgGEAQMSFIIFxjJFzUJocoREKErhXni+ecfOf7ZmbPzJ7Ze+3n2c85yZnLO2tm7fedd96ZGTNGjxAQAkJACAgBISAEhIAQEAJCQAgIASEgBISAEBACQkAICAEhIASaj8BNc68/YsGyuS9tfkub08L1mtOU5rZk8dh5h89bePsbBp9/TP1VSDero8roqI0WPXrXEUsGH9qpDHElpYhVxhjYAGJutfyeVdPLEFdSilgFjAFoq/0g5g4/XPrls2AOjitA5NaLKGJlPgRApLEQcQLegUeWL9ob5qCcGJn3GcUTsTLvJEOkLZdvtISSTr3yuss+KK2VeaeJWPl3ELyBx4BUQ+dWu911y70z85e83RJKY2Xc/9BM69NpMVREmIO7w/3+MmMiZix9u0UTsTLuf5iB0+G4eOUIETfA/x2Dv03NWPTWiyZiZTwEYAa+Bmbgvh0RB6ZMXPMrtNYh+NvLMha99aKJWJkOAYQw7QDNdOJQ8QaXruz8c3P87U1Is12m4rdeLBEr0yEAjfRqaKv9h4rX0VhGa82W1sq08+QVzLNjoIk4t3o7pBvfQ8ItkeYkODH+ZB/qyQoBaaysumPMGJBqE2iik6GtDu4nGuZax/zjVe87p186/T09AiJWesx71ghSnXTbsqvPthRrE6SbBTJOtkyvZIkQELESAW1TzVduvugEmHcfQNpJNunNXOsgzbVs0UqXTsRKh3XPmqB19iSpRkRZ2EjHudZfI/9LbBIrTRoERKw0OPcj1R6IAfzs0DUrF7Ew1zoK+c9QDKELanHTilhx8e1bOjTNDJDi0yDV4X0Tj55gfZDrtYgh1KJxBRBDZhWxQqLpWBZItQfmR+eDVCPDlhxLWpN8F+zXOhNlbuqTWXnCIsAgTz01IAAC7ENNhaoPH7NRGAGgtV6OXcYHobTrwpSoUnwR4CY6PQkRMOtUc+BwOBuaahfXqoeENXXNOn3SjP886VWnv2OvzWev2cClpx4EZAomxB2k2hym3zkg1fk03SY9s2Pw2qG1XgNN+G6d6BQcWqcCZQo6weWfGKTaBqQ6F6Q6DZpqwL+k/jlBrtd/99Yrvo+UN/RPrRQxEJDGioHqiDJBqp3opEBExVn400AMTTWiyu1B4HNQ7xYJmqcquiAgjRV5WHDhF6bZxajmSDgp1jdnV3jXygj3fvMsFg6tdRjIfCR+/aZ3ZcrojYA0ljd0/TOCVHuBVJ+hOx1vkI+YDamMZAPQWn+HMKlZ/SVVitAIiFihETXlgVT7gVSXgFBHhKqCJuTQPVn9yoXW2gfk+ghN0X5p9fewCMjdHhbPMTwABhEQx2KxlnF/wzYqhqjKQWOtrQ4u+K/CBf8+uOAfCyGDyuiPQBDzpH817UgBUm0Ib9ycRUvvOtdnjcoGJds51oiyjoX2/B3kO3tgve1W29SjNNUQkClYDb+1uTFoJ4BUb4Xp9cFYpPIVFSbhZniPh3xvNEeq+RalfJYISGNZAtUrGQbrRhi0p4JU/xek2iFAkTGKmPyDu6+6EDLujMK5QK0nIgLSWBXB5ZkTINVpGLB/mzGpOq2cgl9OgqfwmIrNVvY+CMh5UWGIGFKdYTRVsqPIfBwYI5p536v3PPE9Jx967g8qNF9ZeyAgjeU5PECq8dBUbwap3gNNlYxUnuKOzLYLzMJPQXMdEag8FTMCARHLY0jw3HSQ6kTjqAgfSeshk0eWPSD/xSBXlQ2WHtW2I4uI5dHPWKc6jlENyDrNI3s2WeAp3Bft+LQ0V/gu0RzLEVMMwldiMF6EbHtVjftzrHpt8gBzrGFVYwF5/ozt9+ac60ZfmZRvOAIilsOIAKn2B6kuBaH2ccgWPGloYlFAkOtOkOvdINfNwQVuYYEyBS07nYe+cE4ylFQJtn9YSlc9GczC/YxZeEj10lSCiGUxBkCqHRESdCGSzmbyDqHqMgUtRPZKAnLtD2/hP90093qem6GnAgIiVh/wQKqtsK/p3Uh2dIdITSPUCAj2/8IvPnAhPyYVxlXrs4pYPYaAOfjldJhIbwOZAp2lVMSYOwIa+h9ELv++ErFGwQ6DagI01dtBqneCVNZnqft3RV45YRaeAHJ9AjgwDEqPIwIiVhfAMJjWA6mON1EV2zpi2pTkPF339SDX+TwIpymNStUOEasL0iDVUTyiDJpqWqqOcKnHZRexS7ld0k4Aud4Acr0f5Gqd1q6CnYg1Aj2sVTEa4ZO57akaKmaMdaweg2hTkGsOyGV7Z1eV8diYvCLWkK7kZB2kugCkyvpygYQaq4POliDXWxh10piRH7khIpYBmJcJ4Kt8Hkj1qsiYVy4+scbqyLsT1rguArnWrOXp6Y2AiAV8QKpxmFcdh19fizf7MK8aNFZnFO0FcjFod18RS8TqOwZAqtlmC0gRd/nWpLE6OL4M5PosyDWjL7AtTtB6jYUBwitKGa7kfPNHXeOmRo3VafJBwOw8hD5NrQuD3OttNbFgAm5rnBUHlRSmVLPG4pheD86M43B24ntAriK0fGoitpZYDFeCs4IeQM6rinoy0FjEaxO64UGus4Dli4oCMIGwrSUW5lVHA1+6j7N3ViQYB75VbAFynYIP1Ckgl3AcgmIriYV51QHcWg9ttb3viFK+tQhMBrnOxIfqUGHyZwRaRyzMCfYGqT4OCGrdBVxlEGYwxxop/q7m1Cd5Cg0yrSIWzJUBzAn+Bm0v+mSiTOZYI8l1ID5YH4M1IGcGvTtVvpyl5eV6FWQ+AibghiV5AUvBGSbhsSDXu/ABa9Peta7d0xpimfWqDxVwDHQpPOom50SQ62Q4M95QciNCyN4KYnGzHr6kHwZgWQfX2nZohnOsoaJvB3K9lyda2banieka7yIFqTbEF/QiaKrT0YEbNKUTMycXYb4J58O/GcepLW0K5i7taLzGwryK3j+uWTWGVC4dXGNahj0xMmOrGmWorepGE8uYgLyy9CW2CDfprEDbNkdKtyHnW/DCvjlS+VkX21hi8TAYmIDvBPpO+4fkLQw6XrlB8nTMtw4OWmoBhTWWWDABXwaSzGnjCUuZjTsuHnOD5K6ZyRVVnEYSC524A/dXATmFLEUdPtaFHwJy/SPmW1tb5yg8YeOIxcVJkOpcVxOw8H4sQfxDMd86oQRBQ8jYOGLBBOS28dfCBNw4BEAqIxgCA5hvnQVrohFrif1QaRSx0Gnbmy32O/VruP5eCwK7mflWaVfLOoPVGGLBBBxvTq59uTMKypASAQbrvoMbTVNWmrquxhALJuCeNAHxaiE49Shyq4+n63Jz5Ilu2cpK3Qhi8VATfAXfj3mV9gOVMf4YT/hOmO67lyGuu5SNIBa8TW8FqY5xb75y1IjATMy3PgaTcLMaZYhWdfHEwldvN6DzOrwTo6GkgmMhMBsmIfuucU/RxOIEGCYgD+tv1ap+g0bhVjAJz8bHcecGtWlNU4omFhwWe6ANR8EMHNVhoaDa7Ifs3ozKaJpJWCyx0BFbQFudg2HTc81KQbXZE4sCHg6T8KQiJLUUslhiQVvxQJhZIo5lT+edbHMTldGYhf0iiQWbfBdoq/fqXMC82eIoHc/QP7MpB9EURywTZEtSzXLsOCXPHAForTfCJDw+czGtxCuOWMZhobAlq+4tLtEUkOtdWPC33vGdawuLIhY9RyYecCd5+3IdUpXlmokF/zcx9rNySTUWUBSxoK32hwl4JPGi00LkqnHkxKuasYRvQV8fGK+K+CUXQyx8wSYb9/o2HVjkEYw/QGqqgfcdn4c+37Km+itXWwyxMKl9G4h0VOUWq4BSEJiFPn99KcKOlLMIYsG9/mIIziDbCaUCLbmdEeAO8Dmm750z152hCGLBBDwF2qrVRxbXPVDqqB9zrf3R92+to+6qdWZPLLheeZLtX+At2ktUtaNamn8817ZKPCcja2Jh8joRrtdTMKgYbKunnQi8FI6Mj5bmyMiaWHC5ckfwkb2i19s51lrX6gNKi8jIllg8IpqHjoBUjd2+3Tp6eDZ4+qQZPKr6FEwLdvAsInm2bIm1/J5VM4HGQckRUYXZIQBSUaY9MC04LjvhRhEoS2Ix0BYgct1qr1KAlJzREdgEBHs7tFYRW0uyJBbmVtyqfWj0rlIFpSGwCz64x5cgdJbEwtzqVM2tShg+yWXcmFoL7vfpyWt2rDA7YsEMnCZt5diL7Uq+Kz+8GCdZH8yaFbEA1npwq54BbbVvu8aKWuuAwHrQWieZfXkO2dImzYpYaPpkaau0A6DQ2naC1jqLSzK5yp8VsbgHB9pqZq5gSa6sEDjMBBBkJVRHmGyIZfZbnQHBXpQlUhIqKwRgDu4MrfVXDHvLSjAjTDbE4lHD0FaH5QiSZMoTAZDrNdBaWUbmZEEsfHW2Qte9Bm+2NnOeQ6v1Uk2H1nobxs+GuSGRBbHo4YG2asUVmrkNgNLlMVoru1OdaieWOSfwVHQwtZYeIeCKALXWKblprdqJZTw7B7uiqfRCoIMAtNZf5jbXqpVY/MrQRgZA2YeoaBhnjcCLMY7m5CRhrcTC1pCpAOMgzK/G5gSKZCkPAWit4xBDmM09abUSa/HYeSQWT2DSIwSqIsBojDmwgsZVLShE/tqIBQBexGBKNKLYQxlDdIBvGQNTslwX9W1OkHxmrpXF7ZC1EQuTzZcCzQN0mq3fmBpcutIvY7Nz7YiP9StzaGItxIK2Wh8AvAWkktMih1HQHBm4y/hNOZyNUQux0I9cszqgOf2ZviUyBUfFnLuMa787rRZiwQzcF9pqz/TDsTk1yhQctS8n4S9/Aatokzp7Ozmx2GCYgaeh0bU2vE7QVXdcBGAOHomP9y5xa+ldenJiGadF1x3Cuu/KfijIFOyJ1Q5mS8lG9oiGTZmUWIPPPzYWDT4ZZuCO3Zqhy+TsO1emYG+soLWOwkd8mj2iYVMmJdaSwYem9HNayP1u18HSWH1xYnDu6/qmipQgKbFoBoI4PI9dT0UEpLH6A8gFY7je+TFP/iQlFr4gb0ILB5K3soEVSmNZdeoUhM3VslaajFjwBm4LKHRktNV46J9IGqs/RkixLT7mb6zjDMJkxDJmIMOY9ARAQBrLDkSYg0dj7CUP9E5CLHgDx+HL8WZAsZkdHErVDwFprH4Irf0792r9pXXqQAmTEMt4A3W6baBOYzHSWNZgjoXWOgFOjK5LPNalOCZMQiyzKJy0YY44FJdcGsupy3ZG/OAhTjkqJo5OLB6oaLZNb11RVmUfgoA0ltNwGIDWOjnlkdTRiYXt99sDgr218Os0EPomlsbqC9HIBLvAckpmNUUnFtYRtgOpstjV6dwVGWeQxnLunKmwnI5yzuWZISqxzIbGN0A2ncfu2UGjZZPGcgaUTozX8UgI55weGaISC/LwPAstCnt0TL8s0lj9EOr6951TrWlFJRYasQ2al8yu9YK60EzSWF4dtz3MwWO9cjpmikosRhdjfrWDo0xKboGANJYFSOsm4W2QJ+D8we28cjtkikYs2LIbQ479HWRRUgcEpLEcwBqelJEY0S/giEYsmoHQVlneXeTdJRlllMby7oxNkfMVsQNzoxELwtPFrhtEvPu/d0ZpLH9gYQ6+KvaaVhRi8WsAdft6NF0Xyfn3f8+c0liVgJ2G8fmKSiX0yRyFWIi2oJt9t5iCq2whUAEBfvAPNX6ACsWMnjUKsRBtITd7lO76c6EyBasBDHPwYLMcVK2gUXJHIRbU7NGaX0Xpr7WFyhSshu/0STO2xDiNduFhcGLx6lM0mSH62V24XK0rlLtJCEBjcdPtLIzX8THaFZxYUK/0BO6maPYY3SVTMCSqINds+AOmhSyzU1ZwYqFghjBtEUNYlflnBGQKBhkNU7EBcr8gJY0oJDixYLf+H2irgRjCqkwhEBgB3h9wYAxzMCixICAJNTNw41WcEIiGAMzBV2D6EvxW0aDEgoC8QoU7hvVERkDu9mAA87zL4KflBiUWBYQZSEH1REZAc6xgAG9lloeCFciCghLLhIno3qugXaTCEiCwH45HC+pwC0YszK/GAQCFMSUYBaoiLAKYZ81EtFDQeVYwYmE9gBsakx/lGxbickrTHCtoX02GtXVYyBKDEQuM3wLzKxErZO/0KEtzrKBATzAHzUwMVWowYoHxR0CozUMJpnKEQGIEXgKv9uRQdQYhFuZXjAuMsoIdqqEqRwj0QYD3Fgcbw0GIBYG53Xmquk4IFIwAg3FnhpI/CLGgQmkCRj/5JlSjVY4Q6IYA5lmHhDrQMwixDKm0fqXxWjoCU6EkgiiIIMSCbXoMPIJBF9hK7yHJXyQCW2MsHxBC8srEMucG7BJCGJUhBGpGYGOYg8eEiHavTCwsDHNjY/AgxpoBVvXtRYDnuw9UbX5lYmFhmCfe8vAYPUKgCQhQUVSe1lQmliEVz7nQIwSagMC2mGfNrNqQysSCEC+H44LrWHqEQBMQ2ACN2KNqQyoTCwKMek3PpGd0g0/VDlL+9AjAgXEEbiThpl3vpxKx4D3hwvC00WrXSU3e/aKM9SLAzbqVtpFUIhY8giRWJQHqxU+1C4GuCHBXcSVzsBKxjEdwQJ0jBBqGwKYwB4+r0qZKxGI0MMy9rasIoLxCIFMEdq4yz6pELADCE5m4JV+PEGgaAlyb9fZ2VyWWIi6aNpzUng4CjBv0dmt7EwseQd4xNGzHpdzrGpUNQmAz3vzo2x5vYsEjyLnVsBB7udd9u0H5MkVgRygQL454ZSII8AhyhVp3DGc6IiRWEAS4P2vApyRvYqEybmzUHVg+qCtPKQjsiHmW1zptFWJtBdPPq9JSUJWcrUeAl9Ol1Vhg8v6oVK721o+9RgPALVE8iNb58dJYmNBxfvUS59qUQQiUhcCGDMj1EdmLWKiI+6+CHW7oI7jyCIFECGxt7iVwqs6XWNRYOvXWCWolLhSBbUywuZP4XsSCC5IewUr7VZykVGIhUB8C22BpicEQTo8XsaitFHzrhLMSl4sAlQidGE6PF7HgEXwxallzQKfCmJzwVuLyEJjks5blRSxgM9DBR2FM5Y0USeyEAK/2cT6FzJdYlY+HcmqaEguB+hAYi6qd79X2JZZzRfXhopqFQDUEsJZ1sGsJvsRS8K0r0kpfMgKTTFCEdRuciWX2YckUtIZYCRuAwNZYYmLcoPXjTCwslrECrWFZQ6yEDUCAzjqn056diYUKeA6AE3sbAKya0G4ENoXL3en+N2diYRV6fWDsvGDW7n5R6wtHgJEXdLtbP87EorbC2pUTe62lUUIhkCcCjI112nvoQyxqK+0cznMASKo4CEyAy32WS9E+xOIkjgzWIwTahICTleZLrDYBqrYKASIw4AKDD7HkuHBBWGmbgsB4l4Y4Ewtux91dKlBaIdAQBMYjOIIecavHmVgo9UVWJSuREGgWAhMRHGG9SByFWNqj1awRpdasQYCmYFSN1XebsvZoaSg2EAEuMVl7w500FmxMstb7apMGgq0mtQeBSSbqyKrFTsQy6tDJO2IlhRIJgfwRoKVmPfZdicX0Ov02/0EgCcMjwPmVNV+sExo5RazwHaYSy0CACoXb9K0eV2J1vCNWhSuREGgQAiRVHGKZgzrlvGjQaFFTrBGwJhVLdNVYm8CVrk2O1n2hhA1CgFyx5ot1QgMQ/fjWi2QNAlVNEQKcY1k77pyIhThBaiunnZTqDyHQEAQmYvxbh/M5EctM3lzzNARXNaPlCHDcW1trriRx8uW3vCPU/GYhQOeFNV+sExqMnHz5zcJVrWk5AlG9gsT2hZYDrOa3EwGnce+qscjaP7YTV7W65QjEWyCesf3eywDuyn4Aaz9WP4T096Yj4KqxVoI0v+sHivZj9UNIfy8QAZqCz9vK7USsaS/ssxoFP2NbuNIJgQYhQFJZT4OciDVp9w1+a2MKNghMNUUIdBB4BlOhvtZaJ7ETsYxHcJWwzgOBgSkKgknYE9RWtNisHh9iWduZVhIokTcCg0v7+pG8y1bGdRDgHMva5e5KLJJKxNKoayMC1qQiOK7Eeg55+OoRAkKgBwJOxNpr89n0CFpP4IS8EGgQAlFNQeIkjZXJaJHzImlH0HFhPQ1y0limGX9I2hxVNioCcl4kHRzPuigVH2LJFZW0P0evTBoraUcMIkDCeqnJmVhYJLsTYU1OHpKkzW9RZdJYSTv7adQWj1jGeaF5VtI+7V6ZNFbSTiCprMe9s8ZC4fQMWjM3adNVmRCIh8BKhPRZT4N8iWXN3HjtVMkyBZOOAXoF4wThmmY8hZ/0kOipGQGZgkk74Dms41r7Fpw1FjwjNAVXJG2SKuuKgDRW0oHhNP1xJhbszMfRnOVJm6TKuiIgjZV0YAy61OZMLOO8UFiTC8pKWzoCjLhwGvM+xGLkhTRWBkNFpmCyTvjD9EkzbnepzZlYmMDRM7LEpRKljYOATME4uHYplcrkNy61ORPLFP6ESyVKGwcBaaw4uHYpdRARR05WmhexUMnPUfnvkzVLFcl5Ue8YoOPC6RAlL2KhkicRLyitVW9nj5HGStYBj+2z24Ekl/XjRSxU8j+ogSc26akRAc2xkoH/FHwL1uFMlMqLWMjHSpwYnAyCFlUkjZWms+ERnOdakxexwF6GNS12rUzpwyIgjRUWzx6lOSsRL2IZAR5J1ixV1BUBaawkA4Nxsc6OOm9iwTP4M1Q4zFOiyxCSdPTaSqSxkuC9AmP9IdeavImFiui8oEm49tFlCK7wV0svjVUNP5vcmF/R+z1snNvk8yYWoty5VXlYhdJYNpCHSyONFQ7L0Up6ZPmilRjr6YiFKPffgEjDQpukseJ39NAapLHi4w2N9QDGero5FprEaN/H4jdNNYyGgDRWkrHxuDmo1qkyb1PQ7KZ0ntQ5SafEPRGQxoo+QF6AKTjepxZvYrEyeEv+C+bgr3wqVp7qCEhjVcewTwlPwRS83qeWSsRCaBNJ9WufipWnOgLSWNUx7FPCr6E8FvnUUolYqJCewUGfipWnOgLSWNUx7FMCg2+9gs0rEcuENj0YvXmqoCsC0lhxBwbMwHswxr0OTqpELDPPuhE/rW9hiAtFu0qXxore397OucrEQtMehANjafQmqoJ1EJDGijoouJzkHQ9bmVjGgaEzMKL2cffCpbGigv4kHBf3+NZQmViwQZ9E5b9QOJNvF/jnk8byx65fTsyv7kcok7djrjKxzDzrB/ipHcX9eivw36WxAgM6vLh7EcrkPaaDEAvyPIzX6RSbqJC0pHBprGgdzT1Y9Ahan9U+UpIgxDK+fjkwovWz5liJoaUJ+ECVOoMQC8xm9MUvqgiivO4ISGO5Y2aZ45dHT3nbYsu0XZMFIZaZZ12Ln87h9VWEb3tezbHijAA4Ln6K+RWdct5PMGKZeRaPRdOTCAFprChA8wj1e2GFVbpcMRixMM9aApf7/ChNVaFdEZDGijIwBlFqpfkVpQpGLLMZzHtBLQpEDS9UGitKBz+OheHK8a/BiGXmWd+H1vIOA4kCkwoVAm4IPICF4WVuWdZNHZRYMAdJKm18rNoryl8XAivhuPju4bNf4Xx4zEiBgxILhXOl+v66UGlbvZpjBe9xbhHxjmgfKk1QYmGetRr26dUwBzkB1BMZAc2xggP8K6xf/TJEqUGJZQSiR6XSGkCIhqkMIeCBwP1Yvwpy8lhwYmGeRcbP92iUsgiBOhHgPcPXmKuAK8sRnFh0u8Mc/HddTFe5b1RAWgSewLh1vq5nNBGDE4sVQWvdjR/a/Jh2YKi2CghAW90LN3uwyKEoxEL7eMP4fRXaqaxCIDUCt8PNHuwovyjEgjn4B6jVr8Ec9N4olhpV1ddqBDhObwuJQBRiUUCoVa4HaLE4ZG+prCgIwAz8BdzsQS2saMSC23IxULgTWktHo0UZDio0IAJ3YLwGVQLRiMWwe5iDX0XjtbM44AhQUcER4DFnt2G8BlUA0YjF5sM7SPUaJEQkOJwqUAj8CYFfQQHMDw1GVGKZo9GCCx0aBJXXagTuhgIIEm0xFMWoxGJF+Bp8HfOsyvtbWt31anwsBJbBcXEVvdihK4hOLHwNeMjMHaEFV3lCoCoCINVCfPijjM3oxMLX4PcQ/gporcerAqH8QiAwArfjwx/FuRadWAQCa1o0BRXiFHhUqLhKCDB86cbQ3sCOREmIhTUCEuvmSjAosxAIi8BCLAoHC7odKVoSYpkNkP+Byh8Ni41KEwJeCHCLyLcRGxjFDKRESYjFimDLLsQ86zovGJRJCIRFYAnm/VHHYjJiQWs9i8Z8Sa73sCNEpXkhMM8cfOSV2SZTMmIZrbUAP6O4N20a26Q0Ou/CuzdXwAz8//jQr/QuwSJjUmLxomRorcuhtYKvdFu0tVFJdEKTd3c+iDH4E+/clhmTEstoLXpidESaZQeNlkwaywvAZ6GtvmGu9/UqwDZTcmJBaz0B4W6F1tLNJLa91CWdNJYXeHRa0AwMGsneTZLkxKIQaNw38GOxFzTKtAYBaSz3gQBt9V/mFDH3zI45aiEWGrcIct6sTZCOvTUkuTSWM3Y8j/362E6LjlS1EIuNg9b6IoRQ1Lvz+PhTBmksZ+DuRqRFMo90LcQiJOaINIU5OY8PZfBA4PcwA69ApEXQ7fe95KiNWGbB+N9gDtIsXOfB/3vgpyxCoCsCdLFfnxKb2og1RGt1XVNYvpGC4VMOhAbXtYqbGWEhLU7ZxlqJZRaML4V20rpWyl5vV13UVt8LdSa7LXS1Estorbvw80e2AiudEHBAYDW01TehrZI7yWonVsdDCK3F8971CIGQCDwEbfUtzudDFmpTVu3EMlqL52LcYCOw0ggBBwTugLaqZZqRBbGM1vo8tFaydQaHzlHSMhFYAjPwyzFOYLKBIwtiUdCTDz2XX5bv4/2jjeBKIwR6IPAC/nbrSa86/ad1oZQNsQgA7OErobVuqgsM1dsYBB6Gtvo8tBWPj67lyYpYRmv9J5AIfoBiLeiq0joQoKPiRmirn9VReafOrIhFoRDPdRW01jfxrq4TGNVdLAL3Q1t9IVWw7WgoZUcsxnPBJPwcBE6+9lDsUJLgHQSepsMC2opro7U+2RGLaJgA3auhtZ6uFR1VXhoC95qNjM/VLXiWxIIaf5p3ayFe8Mm6Acqxfm0Z6dorPBxmLubpD+fQZ1kSy2gtnkN4JX5flQNQOcmgTY5de2Phq/c88Qu59FO2xDKn514OoB7IBaxc5JDGWqcnOGXgBQfZjJVsiUXooNbvg9a6AG82gOVALmmsdXrhTmiri/Ax5sJwFk/WxCJC8PBcjR/flyPjz+NFGmsYd34DT+Al+Ag/kgWjjBDZE4ur53BkfBnyLnQFTruQXRErMv3PsPaZXbRO9sQyjgxeEv49EOXXLl2vXcguaBWZdim1FdY+s7vUsAhiQWutgtb6N3T9jUV2v4QOjgAItQKFzoW2ujV44QEKLIJYbCds6MdArouhtbh3S0/LEXhk+aLFcFh8AtqKNzNm9xRDLGMSLsBPBulqa0l2QympQDzO7HJz8GvSim0rK4pY3LQGrXUZtFaW6t8WdKWrjMCdGAdf51pn5ZIiFVAUsYxJ+BB+fhXvb7th0mRPYJPb5jC+H4W2+mdMDZIdvukg29qkxRGLkmNtixsiGZWxzoJgkz2BbFvL17C41+pH6P//9hnsKfMUSSxzHiHPyLipbV/xlkddLIDD4oI6dwbbkrNIYhmTkPu1voT3l20jl23nNizd/3ADI8PcSmhXscQyJuG3DLkGSwC7qoxt/oCAVNdgzeoHVTFMlb9oYg3Zt0WHRuMfzrFaSi5enPEVrFkVc3d10cTqeAkx2C7G78WA3vgvQNgG8pb7S+CwKOrKp+KJZUzC74BcPCej0fcao43cJbs07LjNuzSQ6lqsWV3FsLa8JR0uXSOIxYVj2N//joF3VUnge8j6OAbZB5GvLZEnDF/7Fzgssguy7dd3jSAWGwn7+1EMus/i13W8Rg1a+2F0P2Pjivp69xuEo/z9SWirT11w0uVFmYCdtjSGWGa+NR9a6+Mjb4ls0NoPCcUTiJ73HKylZONC8A0leQFHAtsoYpn51rfxk4fQJL+6JeaoNd5AxsYx2qTppuBtWAj+CKwQp/13MfF3LbtxxBoSqHs5BmNjjqo2oVokFLVVY9rVZcDeBxPwAnPcuOt4ziZ944hlTMI1e7fw+7xskK4oiNFYNAVfwMDreiF6xSpyyM7oin+Ba734Gz4bSSxDLjoxLsGAbMTisdFYg0Zjjc2BBYFl+CNI9XV8EL8Bq6P2k2yrtq2xxDLzLYY8MQq+CabTagw63h/GeVYTnRfz0a5/hQlY7LxqKBkbTSx8+Z7BYLwUWov7t4oejGgD13K4AM47n5q2EM551QfgWie5GvE0mljGJHwC5PoHXg1Uco/BFNwY8q+Y9sI+DN16ouS2jJD91yDVhU2YV7VGY3UaCvPiQZDrE/j3PaUOSHwYSKin8NIz2AhzCe1giNb16Jtrct5m7zNmGq+xhpDrbgzOj5b6tYfG2gKy84xymrf0mg36dHhGebgedwvWqz6ED1+WJy1Vwao1xCJIWMm/BuS6EG/W5yV061DITC8n51d0xDyDt/QF8J/DBDwvl2t3qpCoW95WEQsr+fzaXwEgeB1raV/JNWRCG/ilp+YqOV7wQZDqY3BW3BZ6QOdSXquIRdDxhfwtyPUZ/PqdXDrBUo5lcFx0lg3oFSx1rYeXGFwM6+EGy3YXmax1xDLkWgJy/T20FuMKS3mehLYaSiyahaU9a260B/bfRFuatmQwrC9aSSxDrofQwZ8EuW4rYLv7CrM4vKbzoLl+i69+idspboKz4n20Gkr7IrjK21piGXL9HD8vwTngWTszQPxfQs61LnZ87WkGZjlH7LFF5w6Q6r253WPlShjb9K0mFkHCwuRV+Pp/DoM35y3vXLvims/QZ9C2k1OmG2VT6QN0VoBUxa4jumLYemJxmwnIdRmA4+m6XICt7eljko70Ai6vTVC3ih8BqT4MjHmZRWue1hOLPQ1yLccc5tP49ZphKmHpSCURd1z0OB6b0ezDjtOGvHfh/2r9EFigwe31F4NU3wbGRcdqWrR1WBIRy8Bh7t86H1qDdx6veTLa0s9BOXLXMB0AOWstXrVzKdzqV5Z2wpIribqlF7GGoGJiCj+E/1oQAtyAZdBRMVJ90jNIrZXjsxqyfQ1aldeYZulkiQ2aiDUCYZBrwUGbH3saNNePY4NvU76Zd90HuYatW+HfJFqOO4mpXW/gUgZkbFIUvk13rU0jYnWBCwPiDgyM92FQ164ROO+CLN8bpVdzXCb4Edzq7wKGXCJo7SNijdL1GBiMY6MbfmGdowP186vf9fhsEO4O/I1xg7k8XAA+u/SDYEKAKWL1QBHerP+HwfteDG4uJNf10M0+WiQ751m57M36GUh1DkhV64eork4aWa+I1aMn4M16AQPlhzQLsfBZ14BhfOBod+1SW+XgGVwAgp8PrGo3nUWsXBCwkAMD5r/5NR5qFiaMLyR5ui6oMWYQf7vfogkxk9wNbM7EFpBWLQD3A1Qaqx9C5u8kF369FO+j/K8Udx0b8i4FgbpqJbiyqckWWzYhRrJ7oKk+Dmx+EqPwkssUsRx6D1/lz8AV/w5kedIhm3dSQ15uFxl1UyPM1OtQQR0OjIXQVO8AJt/wbmCDM4pYjp27z24Hcnv/BTQLY5uDKJ+E6hccTI9h6mtuqKk+AU011xG+1iQXsRy7mg4Nai5oijOR9aeO2V2TL0M9PXfawkxk5PjaMCzXCjzS/xSa6q+Awdc88rYmi4jl2dX8WmPQ/y2ye0U/WGo7Oi16hgTBTHzebIJMEZB7O0j115pT9R80IlZ/jEZNgQF2E+Zcp4MkzpN3S+cHw4NszrZgBEZsc/BWkOp0tPnOCpC1JquIVbGrMdB+DI3xN9zi71JUP41l/k5i9d1uAXNwMcxBnuse6+H5f2cyjjJWBU0rV8QK0KM0jUCud4IM1pP5fhpryH1Yoy0Or5WcW/VR/3fxH0sCNGdoEc/zBhCQ6lS08e7AZTe6OBErUPfSRDLkutGmSEuNRbe+lSsdWutOkCDkqVPcT/WvnEeibV7zSBscmppGxArYszSVMBDPAmn6mmX9NBbEegFlfQtlWsUCQmutRHoSK4TWYgziP6G8j6D+EOUFRLmMokSswP3EIFQMSIY//QeK7mvGdaveaDNGWzziIh601jwQ4lqXPF3SLmE0BXb+/nOb91NVxHCMiFUVwS75MSAfxsD8AAjyOfyZR0P7PNzYuMwlozkEkx5K3w2GC0Gq9yOq/1KU1fiz/1ywdU0rYrkiZpkeA/NXGKDngVyfQhYfVzhPinWOXAehvwNy8KI96wfpGeExF06KOVz4xSJ46RcuWLc9VkIRKxayKBcD9Hcg18ew1jUHBHM9ufZBmHbO8xsQmqfmMn5vvmXTnsWBpT82nr/GXIZu2fZoyUSsaND+qWAe+wXTkGdAnA1yXYu377oUsv0B6a8GSaw8gl2asAhE+biFKcnjyT6NtG+HjA9EhqJVxYtYibobA3ceF5JR3bCzC0epnqaYsxnYKQt1PQVtdztIc2Pn//D7yKrm895fmI4XIf2arTB6wiEgYoXDsm9JGMD3glzvgdb6IhL3cmrwgM6qDwN4vwjyrDlWAOZepzx6Kq+nlsJ86kvQik4OkqpCtSW/iJW4p0GuhzDvIrk+iapH0xQT8Lftbpp7/bgK4j0HrbUAGulckOsWowFp+n3OxPzNr1C2svZBIMSXUSB7IvCVmy+avejRuy7AYvGhnSI6ERnQNp8HMT4CjfIbl+JBxolIvxHeDfGuj3dTvJMXj503A3WN4wE5mPf5zt1cRGl1WhGr5u4HufbAgKdL/tUdUUCqP4JU3O9E7x6jybl9hEdMs7+oxWhpdF6ShyTaCu90vFPxDuClqcmoDUa+84y/J1xJWjM0RVcvYmXQfSDXriDXhyHK8XgngFjPglid8wS5z4qeRF6KQDKNNwTr/JukooaiZiKh+DufFXgfxsvA4K+CVAqiTdjX/NrpqRkBOjUWLJt7xpXXXbYapNoDpJoCkbbDS+3j+9AkJNlI0JEXKviWqXyWCMh5YQlU7GSY96yAo+H9IBVPgmI4EzVT1YfkWj1p9w0Gqxak/G4IiFhueEVNDXONB8fw1sNQF3ORUD8EabseUR21MS0vXMTKbwCQBDz9NsQzd+9Zu14RoiCV4YaAiOWGV/TUxmzzjU4fKt8KlPX5gfW2C6X9ore9SRWIWJn1Jsw2nsq0OIBY9+44sJNr4G+AalUEERCx8hwHnGsNu3PYQ8xboK249URPDQiIWDWAblElA/uqxPAxgLfnQZ8WMihJBQRErArgxcoKhwO31z9Yofw7UMaNFfIra0UERKyKAMbIbhwOTuddjJDjAZSheMAYnWNZpohlCVQNyaoQi+FMempEQMSqEfxeVcNVzosOfA50YVyhT75MkShTLBEr335jRDoj010frl/d6ppJ6cMiIGKFxTNYaViD4iKxz73H3C6S5GK8YI1tYEEiVqadCucDTTofgjAcStEWNferiFVzB/Spnuaga9zgILRdiruy8kauZulErJo7oI8D48f4u9PWfKRntIX2X9XcryJWzR3Qq3ponvvxd9eAXLraq4ZDZYxKGaKJWHn3E88XdD3z76mNxkySxqq5X0WsmjugV/VwYJAgrjGDKzdYb6LNabsZt7x80USs/PvQNULd5s7i/FtduIQiVv4dyCgKF9POJW3+rS9UQhEr845DFMUdEHHQQUyZgQ5gxUoqYsVCNly5DGtyWZcSscJh712SiOUNXZqMcLkvQU0ua1le17OmaU17ahGx8u9rutx5DobtI41li1TEdCJWRHADFU1nBA/wtH1ELFukIqYTsSKCG6JoE4zrckG4iBUC+IpliFgVAUyU3SVaXRdzJ+qUXtWIWBl0goUItl5BntPOo9P01IyAiFVzB9hUD7LwNnsbcq2//J5VvKVET80IiFg1d4Bl9VzLst2XpTmWJagxk4lYMdENVzbjBW3mTs/JFAwHepWSRKwq6CXKaxaJbYJxx8MUnJxILFXTAwERq4zhwY2LtlHrvDpVT80IiFg1d4Bl9SSWbaiSrr+1BDVmMhErJrrhynbRWLqwPRzu3iWJWN7QpcuIrfZ0XNiagiJWuq4ZtSYRK4NOsBTBdgOjiGUJaMxkIlZMdAOV/cyY5Zw32a5PiViBcK9SjIhVBb1Eec2pS7bOCxErUb/0qkbEyqATLEWwPStQfWoJaMxk6oSY6IYrm6SSKRgOz+gliVjRIQ5WgZwXwaCMX5CIFR/jEDVQY9kSy9ZkDCGXyhgFARGrjKFBM1CmYBl9tUZKEauAzsKR0S4aa1wBTWq8iCJWOV28ylLU8ZbplCwiAiJWRHADF/20ZXkKwrUEKmYyESsmumHLfhDF2WzPl8YKi7tXaSKWF2zpM2Fn8JWo9TK8d+Fd0UMC9Wn67lmnRoW/ZNAJLiIMPv/YxksGHzoMO4VPRL598U7Fu9mQMr6096xdT8V5hHK7uwAbOK3s8cCAxi4OhOFc61q+INlEkOwgkOw0/HsvvJvgdTnnPba4rS1fxCq460EyHuT5I76rnl857ie33HoGfn9Y2qrgTpXoQkAICAEhIASEgBAQAqUj8L8DuBsUobtgjQAAAABJRU5ErkJggg==;spacing=-4;fontSize=7;" parent="1" vertex="1">
          <mxGeometry x="264.63" y="287.24" width="15.37" height="31.59" as="geometry" />
        </mxCell>
        <mxCell id="r_LDuMVwWnfsW8-giX2U-30" value="Mongodb" style="shape=image;verticalLabelPosition=bottom;labelBackgroundColor=#ffffff;verticalAlign=top;aspect=fixed;imageAspect=0;image=data:image/png,iVBORw0KGgoAAAANSUhEUgAAANYAAAG4CAYAAAA5ahmwAAAwx0lEQVR4Xu19C7heRXl1QggkIHDCPQRIImi4E0CuIVwUxSpQ/kdE1CgKFLAoqOWvWkW8QlvBp9UqQn+rFouIt1+RorQgGEAQMSFIIFxjJFzUJocoREKErhXni+ecfOf7ZmbPzJ7Ze+3n2c85yZnLO2tm7fedd96ZGTNGjxAQAkJACAgBISAEhIAQEAJCQAgIASEgBISAEBACQkAICAEhIASaj8BNc68/YsGyuS9tfkub08L1mtOU5rZk8dh5h89bePsbBp9/TP1VSDero8roqI0WPXrXEUsGH9qpDHElpYhVxhjYAGJutfyeVdPLEFdSilgFjAFoq/0g5g4/XPrls2AOjitA5NaLKGJlPgRApLEQcQLegUeWL9ob5qCcGJn3GcUTsTLvJEOkLZdvtISSTr3yuss+KK2VeaeJWPl3ELyBx4BUQ+dWu911y70z85e83RJKY2Xc/9BM69NpMVREmIO7w/3+MmMiZix9u0UTsTLuf5iB0+G4eOUIETfA/x2Dv03NWPTWiyZiZTwEYAa+Bmbgvh0RB6ZMXPMrtNYh+NvLMha99aKJWJkOAYQw7QDNdOJQ8QaXruz8c3P87U1Is12m4rdeLBEr0yEAjfRqaKv9h4rX0VhGa82W1sq08+QVzLNjoIk4t3o7pBvfQ8ItkeYkODH+ZB/qyQoBaaysumPMGJBqE2iik6GtDu4nGuZax/zjVe87p186/T09AiJWesx71ghSnXTbsqvPthRrE6SbBTJOtkyvZIkQELESAW1TzVduvugEmHcfQNpJNunNXOsgzbVs0UqXTsRKh3XPmqB19iSpRkRZ2EjHudZfI/9LbBIrTRoERKw0OPcj1R6IAfzs0DUrF7Ew1zoK+c9QDKELanHTilhx8e1bOjTNDJDi0yDV4X0Tj55gfZDrtYgh1KJxBRBDZhWxQqLpWBZItQfmR+eDVCPDlhxLWpN8F+zXOhNlbuqTWXnCIsAgTz01IAAC7ENNhaoPH7NRGAGgtV6OXcYHobTrwpSoUnwR4CY6PQkRMOtUc+BwOBuaahfXqoeENXXNOn3SjP886VWnv2OvzWev2cClpx4EZAomxB2k2hym3zkg1fk03SY9s2Pw2qG1XgNN+G6d6BQcWqcCZQo6weWfGKTaBqQ6F6Q6DZpqwL+k/jlBrtd/99Yrvo+UN/RPrRQxEJDGioHqiDJBqp3opEBExVn400AMTTWiyu1B4HNQ7xYJmqcquiAgjRV5WHDhF6bZxajmSDgp1jdnV3jXygj3fvMsFg6tdRjIfCR+/aZ3ZcrojYA0ljd0/TOCVHuBVJ+hOx1vkI+YDamMZAPQWn+HMKlZ/SVVitAIiFihETXlgVT7gVSXgFBHhKqCJuTQPVn9yoXW2gfk+ghN0X5p9fewCMjdHhbPMTwABhEQx2KxlnF/wzYqhqjKQWOtrQ4u+K/CBf8+uOAfCyGDyuiPQBDzpH817UgBUm0Ib9ycRUvvOtdnjcoGJds51oiyjoX2/B3kO3tgve1W29SjNNUQkClYDb+1uTFoJ4BUb4Xp9cFYpPIVFSbhZniPh3xvNEeq+RalfJYISGNZAtUrGQbrRhi0p4JU/xek2iFAkTGKmPyDu6+6EDLujMK5QK0nIgLSWBXB5ZkTINVpGLB/mzGpOq2cgl9OgqfwmIrNVvY+CMh5UWGIGFKdYTRVsqPIfBwYI5p536v3PPE9Jx967g8qNF9ZeyAgjeU5PECq8dBUbwap3gNNlYxUnuKOzLYLzMJPQXMdEag8FTMCARHLY0jw3HSQ6kTjqAgfSeshk0eWPSD/xSBXlQ2WHtW2I4uI5dHPWKc6jlENyDrNI3s2WeAp3Bft+LQ0V/gu0RzLEVMMwldiMF6EbHtVjftzrHpt8gBzrGFVYwF5/ozt9+ac60ZfmZRvOAIilsOIAKn2B6kuBaH2ccgWPGloYlFAkOtOkOvdINfNwQVuYYEyBS07nYe+cE4ylFQJtn9YSlc9GczC/YxZeEj10lSCiGUxBkCqHRESdCGSzmbyDqHqMgUtRPZKAnLtD2/hP90093qem6GnAgIiVh/wQKqtsK/p3Uh2dIdITSPUCAj2/8IvPnAhPyYVxlXrs4pYPYaAOfjldJhIbwOZAp2lVMSYOwIa+h9ELv++ErFGwQ6DagI01dtBqneCVNZnqft3RV45YRaeAHJ9AjgwDEqPIwIiVhfAMJjWA6mON1EV2zpi2pTkPF339SDX+TwIpymNStUOEasL0iDVUTyiDJpqWqqOcKnHZRexS7ld0k4Aud4Acr0f5Gqd1q6CnYg1Aj2sVTEa4ZO57akaKmaMdaweg2hTkGsOyGV7Z1eV8diYvCLWkK7kZB2kugCkyvpygYQaq4POliDXWxh10piRH7khIpYBmJcJ4Kt8Hkj1qsiYVy4+scbqyLsT1rguArnWrOXp6Y2AiAV8QKpxmFcdh19fizf7MK8aNFZnFO0FcjFod18RS8TqOwZAqtlmC0gRd/nWpLE6OL4M5PosyDWjL7AtTtB6jYUBwitKGa7kfPNHXeOmRo3VafJBwOw8hD5NrQuD3OttNbFgAm5rnBUHlRSmVLPG4pheD86M43B24ntAriK0fGoitpZYDFeCs4IeQM6rinoy0FjEaxO64UGus4Dli4oCMIGwrSUW5lVHA1+6j7N3ViQYB75VbAFynYIP1Ckgl3AcgmIriYV51QHcWg9ttb3viFK+tQhMBrnOxIfqUGHyZwRaRyzMCfYGqT4OCGrdBVxlEGYwxxop/q7m1Cd5Cg0yrSIWzJUBzAn+Bm0v+mSiTOZYI8l1ID5YH4M1IGcGvTtVvpyl5eV6FWQ+AibghiV5AUvBGSbhsSDXu/ABa9Peta7d0xpimfWqDxVwDHQpPOom50SQ62Q4M95QciNCyN4KYnGzHr6kHwZgWQfX2nZohnOsoaJvB3K9lyda2banieka7yIFqTbEF/QiaKrT0YEbNKUTMycXYb4J58O/GcepLW0K5i7taLzGwryK3j+uWTWGVC4dXGNahj0xMmOrGmWorepGE8uYgLyy9CW2CDfprEDbNkdKtyHnW/DCvjlS+VkX21hi8TAYmIDvBPpO+4fkLQw6XrlB8nTMtw4OWmoBhTWWWDABXwaSzGnjCUuZjTsuHnOD5K6ZyRVVnEYSC524A/dXATmFLEUdPtaFHwJy/SPmW1tb5yg8YeOIxcVJkOpcVxOw8H4sQfxDMd86oQRBQ8jYOGLBBOS28dfCBNw4BEAqIxgCA5hvnQVrohFrif1QaRSx0Gnbmy32O/VruP5eCwK7mflWaVfLOoPVGGLBBBxvTq59uTMKypASAQbrvoMbTVNWmrquxhALJuCeNAHxaiE49Shyq4+n63Jz5Ilu2cpK3Qhi8VATfAXfj3mV9gOVMf4YT/hOmO67lyGuu5SNIBa8TW8FqY5xb75y1IjATMy3PgaTcLMaZYhWdfHEwldvN6DzOrwTo6GkgmMhMBsmIfuucU/RxOIEGCYgD+tv1ap+g0bhVjAJz8bHcecGtWlNU4omFhwWe6ANR8EMHNVhoaDa7Ifs3ozKaJpJWCyx0BFbQFudg2HTc81KQbXZE4sCHg6T8KQiJLUUslhiQVvxQJhZIo5lT+edbHMTldGYhf0iiQWbfBdoq/fqXMC82eIoHc/QP7MpB9EURywTZEtSzXLsOCXPHAForTfCJDw+czGtxCuOWMZhobAlq+4tLtEUkOtdWPC33vGdawuLIhY9RyYecCd5+3IdUpXlmokF/zcx9rNySTUWUBSxoK32hwl4JPGi00LkqnHkxKuasYRvQV8fGK+K+CUXQyx8wSYb9/o2HVjkEYw/QGqqgfcdn4c+37Km+itXWwyxMKl9G4h0VOUWq4BSEJiFPn99KcKOlLMIYsG9/mIIziDbCaUCLbmdEeAO8Dmm750z152hCGLBBDwF2qrVRxbXPVDqqB9zrf3R92+to+6qdWZPLLheeZLtX+At2ktUtaNamn8817ZKPCcja2Jh8joRrtdTMKgYbKunnQi8FI6Mj5bmyMiaWHC5ckfwkb2i19s51lrX6gNKi8jIllg8IpqHjoBUjd2+3Tp6eDZ4+qQZPKr6FEwLdvAsInm2bIm1/J5VM4HGQckRUYXZIQBSUaY9MC04LjvhRhEoS2Ix0BYgct1qr1KAlJzREdgEBHs7tFYRW0uyJBbmVtyqfWj0rlIFpSGwCz64x5cgdJbEwtzqVM2tShg+yWXcmFoL7vfpyWt2rDA7YsEMnCZt5diL7Uq+Kz+8GCdZH8yaFbEA1npwq54BbbVvu8aKWuuAwHrQWieZfXkO2dImzYpYaPpkaau0A6DQ2naC1jqLSzK5yp8VsbgHB9pqZq5gSa6sEDjMBBBkJVRHmGyIZfZbnQHBXpQlUhIqKwRgDu4MrfVXDHvLSjAjTDbE4lHD0FaH5QiSZMoTAZDrNdBaWUbmZEEsfHW2Qte9Bm+2NnOeQ6v1Uk2H1nobxs+GuSGRBbHo4YG2asUVmrkNgNLlMVoru1OdaieWOSfwVHQwtZYeIeCKALXWKblprdqJZTw7B7uiqfRCoIMAtNZf5jbXqpVY/MrQRgZA2YeoaBhnjcCLMY7m5CRhrcTC1pCpAOMgzK/G5gSKZCkPAWit4xBDmM09abUSa/HYeSQWT2DSIwSqIsBojDmwgsZVLShE/tqIBQBexGBKNKLYQxlDdIBvGQNTslwX9W1OkHxmrpXF7ZC1EQuTzZcCzQN0mq3fmBpcutIvY7Nz7YiP9StzaGItxIK2Wh8AvAWkktMih1HQHBm4y/hNOZyNUQux0I9cszqgOf2ZviUyBUfFnLuMa787rRZiwQzcF9pqz/TDsTk1yhQctS8n4S9/Aatokzp7Ozmx2GCYgaeh0bU2vE7QVXdcBGAOHomP9y5xa+ldenJiGadF1x3Cuu/KfijIFOyJ1Q5mS8lG9oiGTZmUWIPPPzYWDT4ZZuCO3Zqhy+TsO1emYG+soLWOwkd8mj2iYVMmJdaSwYem9HNayP1u18HSWH1xYnDu6/qmipQgKbFoBoI4PI9dT0UEpLH6A8gFY7je+TFP/iQlFr4gb0ILB5K3soEVSmNZdeoUhM3VslaajFjwBm4LKHRktNV46J9IGqs/RkixLT7mb6zjDMJkxDJmIMOY9ARAQBrLDkSYg0dj7CUP9E5CLHgDx+HL8WZAsZkdHErVDwFprH4Irf0792r9pXXqQAmTEMt4A3W6baBOYzHSWNZgjoXWOgFOjK5LPNalOCZMQiyzKJy0YY44FJdcGsupy3ZG/OAhTjkqJo5OLB6oaLZNb11RVmUfgoA0ltNwGIDWOjnlkdTRiYXt99sDgr218Os0EPomlsbqC9HIBLvAckpmNUUnFtYRtgOpstjV6dwVGWeQxnLunKmwnI5yzuWZISqxzIbGN0A2ncfu2UGjZZPGcgaUTozX8UgI55weGaISC/LwPAstCnt0TL8s0lj9EOr6951TrWlFJRYasQ2al8yu9YK60EzSWF4dtz3MwWO9cjpmikosRhdjfrWDo0xKboGANJYFSOsm4W2QJ+D8we28cjtkikYs2LIbQ479HWRRUgcEpLEcwBqelJEY0S/giEYsmoHQVlneXeTdJRlllMby7oxNkfMVsQNzoxELwtPFrhtEvPu/d0ZpLH9gYQ6+KvaaVhRi8WsAdft6NF0Xyfn3f8+c0liVgJ2G8fmKSiX0yRyFWIi2oJt9t5iCq2whUAEBfvAPNX6ACsWMnjUKsRBtITd7lO76c6EyBasBDHPwYLMcVK2gUXJHIRbU7NGaX0Xpr7WFyhSshu/0STO2xDiNduFhcGLx6lM0mSH62V24XK0rlLtJCEBjcdPtLIzX8THaFZxYUK/0BO6maPYY3SVTMCSqINds+AOmhSyzU1ZwYqFghjBtEUNYlflnBGQKBhkNU7EBcr8gJY0oJDixYLf+H2irgRjCqkwhEBgB3h9wYAxzMCixICAJNTNw41WcEIiGAMzBV2D6EvxW0aDEgoC8QoU7hvVERkDu9mAA87zL4KflBiUWBYQZSEH1REZAc6xgAG9lloeCFciCghLLhIno3qugXaTCEiCwH45HC+pwC0YszK/GAQCFMSUYBaoiLAKYZ81EtFDQeVYwYmE9gBsakx/lGxbickrTHCtoX02GtXVYyBKDEQuM3wLzKxErZO/0KEtzrKBATzAHzUwMVWowYoHxR0CozUMJpnKEQGIEXgKv9uRQdQYhFuZXjAuMsoIdqqEqRwj0QYD3Fgcbw0GIBYG53Xmquk4IFIwAg3FnhpI/CLGgQmkCRj/5JlSjVY4Q6IYA5lmHhDrQMwixDKm0fqXxWjoCU6EkgiiIIMSCbXoMPIJBF9hK7yHJXyQCW2MsHxBC8srEMucG7BJCGJUhBGpGYGOYg8eEiHavTCwsDHNjY/AgxpoBVvXtRYDnuw9UbX5lYmFhmCfe8vAYPUKgCQhQUVSe1lQmliEVz7nQIwSagMC2mGfNrNqQysSCEC+H44LrWHqEQBMQ2ACN2KNqQyoTCwKMek3PpGd0g0/VDlL+9AjAgXEEbiThpl3vpxKx4D3hwvC00WrXSU3e/aKM9SLAzbqVtpFUIhY8giRWJQHqxU+1C4GuCHBXcSVzsBKxjEdwQJ0jBBqGwKYwB4+r0qZKxGI0MMy9rasIoLxCIFMEdq4yz6pELADCE5m4JV+PEGgaAlyb9fZ2VyWWIi6aNpzUng4CjBv0dmt7EwseQd4xNGzHpdzrGpUNQmAz3vzo2x5vYsEjyLnVsBB7udd9u0H5MkVgRygQL454ZSII8AhyhVp3DGc6IiRWEAS4P2vApyRvYqEybmzUHVg+qCtPKQjsiHmW1zptFWJtBdPPq9JSUJWcrUeAl9Ol1Vhg8v6oVK721o+9RgPALVE8iNb58dJYmNBxfvUS59qUQQiUhcCGDMj1EdmLWKiI+6+CHW7oI7jyCIFECGxt7iVwqs6XWNRYOvXWCWolLhSBbUywuZP4XsSCC5IewUr7VZykVGIhUB8C22BpicEQTo8XsaitFHzrhLMSl4sAlQidGE6PF7HgEXwxallzQKfCmJzwVuLyEJjks5blRSxgM9DBR2FM5Y0USeyEAK/2cT6FzJdYlY+HcmqaEguB+hAYi6qd79X2JZZzRfXhopqFQDUEsJZ1sGsJvsRS8K0r0kpfMgKTTFCEdRuciWX2YckUtIZYCRuAwNZYYmLcoPXjTCwslrECrWFZQ6yEDUCAzjqn056diYUKeA6AE3sbAKya0G4ENoXL3en+N2diYRV6fWDsvGDW7n5R6wtHgJEXdLtbP87EorbC2pUTe62lUUIhkCcCjI112nvoQyxqK+0cznMASKo4CEyAy32WS9E+xOIkjgzWIwTahICTleZLrDYBqrYKASIw4AKDD7HkuHBBWGmbgsB4l4Y4Ewtux91dKlBaIdAQBMYjOIIecavHmVgo9UVWJSuREGgWAhMRHGG9SByFWNqj1awRpdasQYCmYFSN1XebsvZoaSg2EAEuMVl7w500FmxMstb7apMGgq0mtQeBSSbqyKrFTsQy6tDJO2IlhRIJgfwRoKVmPfZdicX0Ov02/0EgCcMjwPmVNV+sExo5RazwHaYSy0CACoXb9K0eV2J1vCNWhSuREGgQAiRVHGKZgzrlvGjQaFFTrBGwJhVLdNVYm8CVrk2O1n2hhA1CgFyx5ot1QgMQ/fjWi2QNAlVNEQKcY1k77pyIhThBaiunnZTqDyHQEAQmYvxbh/M5EctM3lzzNARXNaPlCHDcW1trriRx8uW3vCPU/GYhQOeFNV+sExqMnHz5zcJVrWk5AlG9gsT2hZYDrOa3EwGnce+qscjaP7YTV7W65QjEWyCesf3eywDuyn4Aaz9WP4T096Yj4KqxVoI0v+sHivZj9UNIfy8QAZqCz9vK7USsaS/ssxoFP2NbuNIJgQYhQFJZT4OciDVp9w1+a2MKNghMNUUIdBB4BlOhvtZaJ7ETsYxHcJWwzgOBgSkKgknYE9RWtNisHh9iWduZVhIokTcCg0v7+pG8y1bGdRDgHMva5e5KLJJKxNKoayMC1qQiOK7Eeg55+OoRAkKgBwJOxNpr89n0CFpP4IS8EGgQAlFNQeIkjZXJaJHzImlH0HFhPQ1y0limGX9I2hxVNioCcl4kHRzPuigVH2LJFZW0P0evTBoraUcMIkDCeqnJmVhYJLsTYU1OHpKkzW9RZdJYSTv7adQWj1jGeaF5VtI+7V6ZNFbSTiCprMe9s8ZC4fQMWjM3adNVmRCIh8BKhPRZT4N8iWXN3HjtVMkyBZOOAXoF4wThmmY8hZ/0kOipGQGZgkk74Dms41r7Fpw1FjwjNAVXJG2SKuuKgDRW0oHhNP1xJhbszMfRnOVJm6TKuiIgjZV0YAy61OZMLOO8UFiTC8pKWzoCjLhwGvM+xGLkhTRWBkNFpmCyTvjD9EkzbnepzZlYmMDRM7LEpRKljYOATME4uHYplcrkNy61ORPLFP6ESyVKGwcBaaw4uHYpdRARR05WmhexUMnPUfnvkzVLFcl5Ue8YoOPC6RAlL2KhkicRLyitVW9nj5HGStYBj+2z24Ekl/XjRSxU8j+ogSc26akRAc2xkoH/FHwL1uFMlMqLWMjHSpwYnAyCFlUkjZWms+ERnOdakxexwF6GNS12rUzpwyIgjRUWzx6lOSsRL2IZAR5J1ixV1BUBaawkA4Nxsc6OOm9iwTP4M1Q4zFOiyxCSdPTaSqSxkuC9AmP9IdeavImFiui8oEm49tFlCK7wV0svjVUNP5vcmF/R+z1snNvk8yYWoty5VXlYhdJYNpCHSyONFQ7L0Up6ZPmilRjr6YiFKPffgEjDQpukseJ39NAapLHi4w2N9QDGero5FprEaN/H4jdNNYyGgDRWkrHxuDmo1qkyb1PQ7KZ0ntQ5SafEPRGQxoo+QF6AKTjepxZvYrEyeEv+C+bgr3wqVp7qCEhjVcewTwlPwRS83qeWSsRCaBNJ9WufipWnOgLSWNUx7FPCr6E8FvnUUolYqJCewUGfipWnOgLSWNUx7FMCg2+9gs0rEcuENj0YvXmqoCsC0lhxBwbMwHswxr0OTqpELDPPuhE/rW9hiAtFu0qXxore397OucrEQtMehANjafQmqoJ1EJDGijoouJzkHQ9bmVjGgaEzMKL2cffCpbGigv4kHBf3+NZQmViwQZ9E5b9QOJNvF/jnk8byx65fTsyv7kcok7djrjKxzDzrB/ipHcX9eivw36WxAgM6vLh7EcrkPaaDEAvyPIzX6RSbqJC0pHBprGgdzT1Y9Ahan9U+UpIgxDK+fjkwovWz5liJoaUJ+ECVOoMQC8xm9MUvqgiivO4ISGO5Y2aZ45dHT3nbYsu0XZMFIZaZZ12Ln87h9VWEb3tezbHijAA4Ln6K+RWdct5PMGKZeRaPRdOTCAFprChA8wj1e2GFVbpcMRixMM9aApf7/ChNVaFdEZDGijIwBlFqpfkVpQpGLLMZzHtBLQpEDS9UGitKBz+OheHK8a/BiGXmWd+H1vIOA4kCkwoVAm4IPICF4WVuWdZNHZRYMAdJKm18rNoryl8XAivhuPju4bNf4Xx4zEiBgxILhXOl+v66UGlbvZpjBe9xbhHxjmgfKk1QYmGetRr26dUwBzkB1BMZAc2xggP8K6xf/TJEqUGJZQSiR6XSGkCIhqkMIeCBwP1Yvwpy8lhwYmGeRcbP92iUsgiBOhHgPcPXmKuAK8sRnFh0u8Mc/HddTFe5b1RAWgSewLh1vq5nNBGDE4sVQWvdjR/a/Jh2YKi2CghAW90LN3uwyKEoxEL7eMP4fRXaqaxCIDUCt8PNHuwovyjEgjn4B6jVr8Ec9N4olhpV1ddqBDhObwuJQBRiUUCoVa4HaLE4ZG+prCgIwAz8BdzsQS2saMSC23IxULgTWktHo0UZDio0IAJ3YLwGVQLRiMWwe5iDX0XjtbM44AhQUcER4DFnt2G8BlUA0YjF5sM7SPUaJEQkOJwqUAj8CYFfQQHMDw1GVGKZo9GCCx0aBJXXagTuhgIIEm0xFMWoxGJF+Bp8HfOsyvtbWt31anwsBJbBcXEVvdihK4hOLHwNeMjMHaEFV3lCoCoCINVCfPijjM3oxMLX4PcQ/gporcerAqH8QiAwArfjwx/FuRadWAQCa1o0BRXiFHhUqLhKCDB86cbQ3sCOREmIhTUCEuvmSjAosxAIi8BCLAoHC7odKVoSYpkNkP+Byh8Ni41KEwJeCHCLyLcRGxjFDKRESYjFimDLLsQ86zovGJRJCIRFYAnm/VHHYjJiQWs9i8Z8Sa73sCNEpXkhMM8cfOSV2SZTMmIZrbUAP6O4N20a26Q0Ou/CuzdXwAz8//jQr/QuwSJjUmLxomRorcuhtYKvdFu0tVFJdEKTd3c+iDH4E+/clhmTEstoLXpidESaZQeNlkwaywvAZ6GtvmGu9/UqwDZTcmJBaz0B4W6F1tLNJLa91CWdNJYXeHRa0AwMGsneTZLkxKIQaNw38GOxFzTKtAYBaSz3gQBt9V/mFDH3zI45aiEWGrcIct6sTZCOvTUkuTSWM3Y8j/362E6LjlS1EIuNg9b6IoRQ1Lvz+PhTBmksZ+DuRqRFMo90LcQiJOaINIU5OY8PZfBA4PcwA69ApEXQ7fe95KiNWGbB+N9gDtIsXOfB/3vgpyxCoCsCdLFfnxKb2og1RGt1XVNYvpGC4VMOhAbXtYqbGWEhLU7ZxlqJZRaML4V20rpWyl5vV13UVt8LdSa7LXS1Estorbvw80e2AiudEHBAYDW01TehrZI7yWonVsdDCK3F8971CIGQCDwEbfUtzudDFmpTVu3EMlqL52LcYCOw0ggBBwTugLaqZZqRBbGM1vo8tFaydQaHzlHSMhFYAjPwyzFOYLKBIwtiUdCTDz2XX5bv4/2jjeBKIwR6IPAC/nbrSa86/ad1oZQNsQgA7OErobVuqgsM1dsYBB6Gtvo8tBWPj67lyYpYRmv9J5AIfoBiLeiq0joQoKPiRmirn9VReafOrIhFoRDPdRW01jfxrq4TGNVdLAL3Q1t9IVWw7WgoZUcsxnPBJPwcBE6+9lDsUJLgHQSepsMC2opro7U+2RGLaJgA3auhtZ6uFR1VXhoC95qNjM/VLXiWxIIaf5p3ayFe8Mm6Acqxfm0Z6dorPBxmLubpD+fQZ1kSy2gtnkN4JX5flQNQOcmgTY5de2Phq/c88Qu59FO2xDKn514OoB7IBaxc5JDGWqcnOGXgBQfZjJVsiUXooNbvg9a6AG82gOVALmmsdXrhTmiri/Ax5sJwFk/WxCJC8PBcjR/flyPjz+NFGmsYd34DT+Al+Ag/kgWjjBDZE4ur53BkfBnyLnQFTruQXRErMv3PsPaZXbRO9sQyjgxeEv49EOXXLl2vXcguaBWZdim1FdY+s7vUsAhiQWutgtb6N3T9jUV2v4QOjgAItQKFzoW2ujV44QEKLIJYbCds6MdArouhtbh3S0/LEXhk+aLFcFh8AtqKNzNm9xRDLGMSLsBPBulqa0l2QympQDzO7HJz8GvSim0rK4pY3LQGrXUZtFaW6t8WdKWrjMCdGAdf51pn5ZIiFVAUsYxJ+BB+fhXvb7th0mRPYJPb5jC+H4W2+mdMDZIdvukg29qkxRGLkmNtixsiGZWxzoJgkz2BbFvL17C41+pH6P//9hnsKfMUSSxzHiHPyLipbV/xlkddLIDD4oI6dwbbkrNIYhmTkPu1voT3l20jl23nNizd/3ADI8PcSmhXscQyJuG3DLkGSwC7qoxt/oCAVNdgzeoHVTFMlb9oYg3Zt0WHRuMfzrFaSi5enPEVrFkVc3d10cTqeAkx2C7G78WA3vgvQNgG8pb7S+CwKOrKp+KJZUzC74BcPCej0fcao43cJbs07LjNuzSQ6lqsWV3FsLa8JR0uXSOIxYVj2N//joF3VUnge8j6OAbZB5GvLZEnDF/7Fzgssguy7dd3jSAWGwn7+1EMus/i13W8Rg1a+2F0P2Pjivp69xuEo/z9SWirT11w0uVFmYCdtjSGWGa+NR9a6+Mjb4ls0NoPCcUTiJ73HKylZONC8A0leQFHAtsoYpn51rfxk4fQJL+6JeaoNd5AxsYx2qTppuBtWAj+CKwQp/13MfF3LbtxxBoSqHs5BmNjjqo2oVokFLVVY9rVZcDeBxPwAnPcuOt4ziZ944hlTMI1e7fw+7xskK4oiNFYNAVfwMDreiF6xSpyyM7oin+Ba734Gz4bSSxDLjoxLsGAbMTisdFYg0Zjjc2BBYFl+CNI9XV8EL8Bq6P2k2yrtq2xxDLzLYY8MQq+CabTagw63h/GeVYTnRfz0a5/hQlY7LxqKBkbTSx8+Z7BYLwUWov7t4oejGgD13K4AM47n5q2EM551QfgWie5GvE0mljGJHwC5PoHXg1Uco/BFNwY8q+Y9sI+DN16ouS2jJD91yDVhU2YV7VGY3UaCvPiQZDrE/j3PaUOSHwYSKin8NIz2AhzCe1giNb16Jtrct5m7zNmGq+xhpDrbgzOj5b6tYfG2gKy84xymrf0mg36dHhGebgedwvWqz6ED1+WJy1Vwao1xCJIWMm/BuS6EG/W5yV061DITC8n51d0xDyDt/QF8J/DBDwvl2t3qpCoW95WEQsr+fzaXwEgeB1raV/JNWRCG/ilp+YqOV7wQZDqY3BW3BZ6QOdSXquIRdDxhfwtyPUZ/PqdXDrBUo5lcFx0lg3oFSx1rYeXGFwM6+EGy3YXmax1xDLkWgJy/T20FuMKS3mehLYaSiyahaU9a260B/bfRFuatmQwrC9aSSxDrofQwZ8EuW4rYLv7CrM4vKbzoLl+i69+idspboKz4n20Gkr7IrjK21piGXL9HD8vwTngWTszQPxfQs61LnZ87WkGZjlH7LFF5w6Q6r253WPlShjb9K0mFkHCwuRV+Pp/DoM35y3vXLvims/QZ9C2k1OmG2VT6QN0VoBUxa4jumLYemJxmwnIdRmA4+m6XICt7eljko70Ai6vTVC3ih8BqT4MjHmZRWue1hOLPQ1yLccc5tP49ZphKmHpSCURd1z0OB6b0ezDjtOGvHfh/2r9EFigwe31F4NU3wbGRcdqWrR1WBIRy8Bh7t86H1qDdx6veTLa0s9BOXLXMB0AOWstXrVzKdzqV5Z2wpIribqlF7GGoGJiCj+E/1oQAtyAZdBRMVJ90jNIrZXjsxqyfQ1aldeYZulkiQ2aiDUCYZBrwUGbH3saNNePY4NvU76Zd90HuYatW+HfJFqOO4mpXW/gUgZkbFIUvk13rU0jYnWBCwPiDgyM92FQ164ROO+CLN8bpVdzXCb4Edzq7wKGXCJo7SNijdL1GBiMY6MbfmGdowP186vf9fhsEO4O/I1xg7k8XAA+u/SDYEKAKWL1QBHerP+HwfteDG4uJNf10M0+WiQ751m57M36GUh1DkhV64eork4aWa+I1aMn4M16AQPlhzQLsfBZ14BhfOBod+1SW+XgGVwAgp8PrGo3nUWsXBCwkAMD5r/5NR5qFiaMLyR5ui6oMWYQf7vfogkxk9wNbM7EFpBWLQD3A1Qaqx9C5u8kF369FO+j/K8Udx0b8i4FgbpqJbiyqckWWzYhRrJ7oKk+Dmx+EqPwkssUsRx6D1/lz8AV/w5kedIhm3dSQ15uFxl1UyPM1OtQQR0OjIXQVO8AJt/wbmCDM4pYjp27z24Hcnv/BTQLY5uDKJ+E6hccTI9h6mtuqKk+AU011xG+1iQXsRy7mg4Nai5oijOR9aeO2V2TL0M9PXfawkxk5PjaMCzXCjzS/xSa6q+Awdc88rYmi4jl2dX8WmPQ/y2ye0U/WGo7Oi16hgTBTHzebIJMEZB7O0j115pT9R80IlZ/jEZNgQF2E+Zcp4MkzpN3S+cHw4NszrZgBEZsc/BWkOp0tPnOCpC1JquIVbGrMdB+DI3xN9zi71JUP41l/k5i9d1uAXNwMcxBnuse6+H5f2cyjjJWBU0rV8QK0KM0jUCud4IM1pP5fhpryH1Yoy0Or5WcW/VR/3fxH0sCNGdoEc/zBhCQ6lS08e7AZTe6OBErUPfSRDLkutGmSEuNRbe+lSsdWutOkCDkqVPcT/WvnEeibV7zSBscmppGxArYszSVMBDPAmn6mmX9NBbEegFlfQtlWsUCQmutRHoSK4TWYgziP6G8j6D+EOUFRLmMokSswP3EIFQMSIY//QeK7mvGdaveaDNGWzziIh601jwQ4lqXPF3SLmE0BXb+/nOb91NVxHCMiFUVwS75MSAfxsD8AAjyOfyZR0P7PNzYuMwlozkEkx5K3w2GC0Gq9yOq/1KU1fiz/1ywdU0rYrkiZpkeA/NXGKDngVyfQhYfVzhPinWOXAehvwNy8KI96wfpGeExF06KOVz4xSJ46RcuWLc9VkIRKxayKBcD9Hcg18ew1jUHBHM9ufZBmHbO8xsQmqfmMn5vvmXTnsWBpT82nr/GXIZu2fZoyUSsaND+qWAe+wXTkGdAnA1yXYu377oUsv0B6a8GSaw8gl2asAhE+biFKcnjyT6NtG+HjA9EhqJVxYtYibobA3ceF5JR3bCzC0epnqaYsxnYKQt1PQVtdztIc2Pn//D7yKrm895fmI4XIf2arTB6wiEgYoXDsm9JGMD3glzvgdb6IhL3cmrwgM6qDwN4vwjyrDlWAOZepzx6Kq+nlsJ86kvQik4OkqpCtSW/iJW4p0GuhzDvIrk+iapH0xQT8Lftbpp7/bgK4j0HrbUAGulckOsWowFp+n3OxPzNr1C2svZBIMSXUSB7IvCVmy+avejRuy7AYvGhnSI6ERnQNp8HMT4CjfIbl+JBxolIvxHeDfGuj3dTvJMXj503A3WN4wE5mPf5zt1cRGl1WhGr5u4HufbAgKdL/tUdUUCqP4JU3O9E7x6jybl9hEdMs7+oxWhpdF6ShyTaCu90vFPxDuClqcmoDUa+84y/J1xJWjM0RVcvYmXQfSDXriDXhyHK8XgngFjPglid8wS5z4qeRF6KQDKNNwTr/JukooaiZiKh+DufFXgfxsvA4K+CVAqiTdjX/NrpqRkBOjUWLJt7xpXXXbYapNoDpJoCkbbDS+3j+9AkJNlI0JEXKviWqXyWCMh5YQlU7GSY96yAo+H9IBVPgmI4EzVT1YfkWj1p9w0Gqxak/G4IiFhueEVNDXONB8fw1sNQF3ORUD8EabseUR21MS0vXMTKbwCQBDz9NsQzd+9Zu14RoiCV4YaAiOWGV/TUxmzzjU4fKt8KlPX5gfW2C6X9ore9SRWIWJn1Jsw2nsq0OIBY9+44sJNr4G+AalUEERCx8hwHnGsNu3PYQ8xboK249URPDQiIWDWAblElA/uqxPAxgLfnQZ8WMihJBQRErArgxcoKhwO31z9Yofw7UMaNFfIra0UERKyKAMbIbhwOTuddjJDjAZSheMAYnWNZpohlCVQNyaoQi+FMempEQMSqEfxeVcNVzosOfA50YVyhT75MkShTLBEr335jRDoj010frl/d6ppJ6cMiIGKFxTNYaViD4iKxz73H3C6S5GK8YI1tYEEiVqadCucDTTofgjAcStEWNferiFVzB/Spnuaga9zgILRdiruy8kauZulErJo7oI8D48f4u9PWfKRntIX2X9XcryJWzR3Qq3ponvvxd9eAXLraq4ZDZYxKGaKJWHn3E88XdD3z76mNxkySxqq5X0WsmjugV/VwYJAgrjGDKzdYb6LNabsZt7x80USs/PvQNULd5s7i/FtduIQiVv4dyCgKF9POJW3+rS9UQhEr845DFMUdEHHQQUyZgQ5gxUoqYsVCNly5DGtyWZcSscJh712SiOUNXZqMcLkvQU0ua1le17OmaU17ahGx8u9rutx5DobtI41li1TEdCJWRHADFU1nBA/wtH1ELFukIqYTsSKCG6JoE4zrckG4iBUC+IpliFgVAUyU3SVaXRdzJ+qUXtWIWBl0goUItl5BntPOo9P01IyAiFVzB9hUD7LwNnsbcq2//J5VvKVET80IiFg1d4Bl9VzLst2XpTmWJagxk4lYMdENVzbjBW3mTs/JFAwHepWSRKwq6CXKaxaJbYJxx8MUnJxILFXTAwERq4zhwY2LtlHrvDpVT80IiFg1d4Bl9SSWbaiSrr+1BDVmMhErJrrhynbRWLqwPRzu3iWJWN7QpcuIrfZ0XNiagiJWuq4ZtSYRK4NOsBTBdgOjiGUJaMxkIlZMdAOV/cyY5Zw32a5PiViBcK9SjIhVBb1Eec2pS7bOCxErUb/0qkbEyqATLEWwPStQfWoJaMxk6oSY6IYrm6SSKRgOz+gliVjRIQ5WgZwXwaCMX5CIFR/jEDVQY9kSy9ZkDCGXyhgFARGrjKFBM1CmYBl9tUZKEauAzsKR0S4aa1wBTWq8iCJWOV28ylLU8ZbplCwiAiJWRHADF/20ZXkKwrUEKmYyESsmumHLfhDF2WzPl8YKi7tXaSKWF2zpM2Fn8JWo9TK8d+Fd0UMC9Wn67lmnRoW/ZNAJLiIMPv/YxksGHzoMO4VPRL598U7Fu9mQMr6096xdT8V5hHK7uwAbOK3s8cCAxi4OhOFc61q+INlEkOwgkOw0/HsvvJvgdTnnPba4rS1fxCq460EyHuT5I76rnl857ie33HoGfn9Y2qrgTpXoQkAICAEhIASEgBAQAqUj8L8DuBsUobtgjQAAAABJRU5ErkJggg==;spacing=-4;fontSize=7;" parent="1" vertex="1">
          <mxGeometry x="459.63" y="288.24" width="15.37" height="31.59" as="geometry" />
        </mxCell>
        <mxCell id="r_LDuMVwWnfsW8-giX2U-31" value="Mongodb" style="shape=image;verticalLabelPosition=bottom;labelBackgroundColor=#ffffff;verticalAlign=top;aspect=fixed;imageAspect=0;image=data:image/png,iVBORw0KGgoAAAANSUhEUgAAANYAAAG4CAYAAAA5ahmwAAAwx0lEQVR4Xu19C7heRXl1QggkIHDCPQRIImi4E0CuIVwUxSpQ/kdE1CgKFLAoqOWvWkW8QlvBp9UqQn+rFouIt1+RorQgGEAQMSFIIFxjJFzUJocoREKErhXni+ecfOf7ZmbPzJ7Ze+3n2c85yZnLO2tm7fedd96ZGTNGjxAQAkJACAgBISAEhIAQEAJCQAgIASEgBISAEBACQkAICAEhIASaj8BNc68/YsGyuS9tfkub08L1mtOU5rZk8dh5h89bePsbBp9/TP1VSDero8roqI0WPXrXEUsGH9qpDHElpYhVxhjYAGJutfyeVdPLEFdSilgFjAFoq/0g5g4/XPrls2AOjitA5NaLKGJlPgRApLEQcQLegUeWL9ob5qCcGJn3GcUTsTLvJEOkLZdvtISSTr3yuss+KK2VeaeJWPl3ELyBx4BUQ+dWu911y70z85e83RJKY2Xc/9BM69NpMVREmIO7w/3+MmMiZix9u0UTsTLuf5iB0+G4eOUIETfA/x2Dv03NWPTWiyZiZTwEYAa+Bmbgvh0RB6ZMXPMrtNYh+NvLMha99aKJWJkOAYQw7QDNdOJQ8QaXruz8c3P87U1Is12m4rdeLBEr0yEAjfRqaKv9h4rX0VhGa82W1sq08+QVzLNjoIk4t3o7pBvfQ8ItkeYkODH+ZB/qyQoBaaysumPMGJBqE2iik6GtDu4nGuZax/zjVe87p186/T09AiJWesx71ghSnXTbsqvPthRrE6SbBTJOtkyvZIkQELESAW1TzVduvugEmHcfQNpJNunNXOsgzbVs0UqXTsRKh3XPmqB19iSpRkRZ2EjHudZfI/9LbBIrTRoERKw0OPcj1R6IAfzs0DUrF7Ew1zoK+c9QDKELanHTilhx8e1bOjTNDJDi0yDV4X0Tj55gfZDrtYgh1KJxBRBDZhWxQqLpWBZItQfmR+eDVCPDlhxLWpN8F+zXOhNlbuqTWXnCIsAgTz01IAAC7ENNhaoPH7NRGAGgtV6OXcYHobTrwpSoUnwR4CY6PQkRMOtUc+BwOBuaahfXqoeENXXNOn3SjP886VWnv2OvzWev2cClpx4EZAomxB2k2hym3zkg1fk03SY9s2Pw2qG1XgNN+G6d6BQcWqcCZQo6weWfGKTaBqQ6F6Q6DZpqwL+k/jlBrtd/99Yrvo+UN/RPrRQxEJDGioHqiDJBqp3opEBExVn400AMTTWiyu1B4HNQ7xYJmqcquiAgjRV5WHDhF6bZxajmSDgp1jdnV3jXygj3fvMsFg6tdRjIfCR+/aZ3ZcrojYA0ljd0/TOCVHuBVJ+hOx1vkI+YDamMZAPQWn+HMKlZ/SVVitAIiFihETXlgVT7gVSXgFBHhKqCJuTQPVn9yoXW2gfk+ghN0X5p9fewCMjdHhbPMTwABhEQx2KxlnF/wzYqhqjKQWOtrQ4u+K/CBf8+uOAfCyGDyuiPQBDzpH817UgBUm0Ib9ycRUvvOtdnjcoGJds51oiyjoX2/B3kO3tgve1W29SjNNUQkClYDb+1uTFoJ4BUb4Xp9cFYpPIVFSbhZniPh3xvNEeq+RalfJYISGNZAtUrGQbrRhi0p4JU/xek2iFAkTGKmPyDu6+6EDLujMK5QK0nIgLSWBXB5ZkTINVpGLB/mzGpOq2cgl9OgqfwmIrNVvY+CMh5UWGIGFKdYTRVsqPIfBwYI5p536v3PPE9Jx967g8qNF9ZeyAgjeU5PECq8dBUbwap3gNNlYxUnuKOzLYLzMJPQXMdEag8FTMCARHLY0jw3HSQ6kTjqAgfSeshk0eWPSD/xSBXlQ2WHtW2I4uI5dHPWKc6jlENyDrNI3s2WeAp3Bft+LQ0V/gu0RzLEVMMwldiMF6EbHtVjftzrHpt8gBzrGFVYwF5/ozt9+ac60ZfmZRvOAIilsOIAKn2B6kuBaH2ccgWPGloYlFAkOtOkOvdINfNwQVuYYEyBS07nYe+cE4ylFQJtn9YSlc9GczC/YxZeEj10lSCiGUxBkCqHRESdCGSzmbyDqHqMgUtRPZKAnLtD2/hP90093qem6GnAgIiVh/wQKqtsK/p3Uh2dIdITSPUCAj2/8IvPnAhPyYVxlXrs4pYPYaAOfjldJhIbwOZAp2lVMSYOwIa+h9ELv++ErFGwQ6DagI01dtBqneCVNZnqft3RV45YRaeAHJ9AjgwDEqPIwIiVhfAMJjWA6mON1EV2zpi2pTkPF339SDX+TwIpymNStUOEasL0iDVUTyiDJpqWqqOcKnHZRexS7ld0k4Aud4Acr0f5Gqd1q6CnYg1Aj2sVTEa4ZO57akaKmaMdaweg2hTkGsOyGV7Z1eV8diYvCLWkK7kZB2kugCkyvpygYQaq4POliDXWxh10piRH7khIpYBmJcJ4Kt8Hkj1qsiYVy4+scbqyLsT1rguArnWrOXp6Y2AiAV8QKpxmFcdh19fizf7MK8aNFZnFO0FcjFod18RS8TqOwZAqtlmC0gRd/nWpLE6OL4M5PosyDWjL7AtTtB6jYUBwitKGa7kfPNHXeOmRo3VafJBwOw8hD5NrQuD3OttNbFgAm5rnBUHlRSmVLPG4pheD86M43B24ntAriK0fGoitpZYDFeCs4IeQM6rinoy0FjEaxO64UGus4Dli4oCMIGwrSUW5lVHA1+6j7N3ViQYB75VbAFynYIP1Ckgl3AcgmIriYV51QHcWg9ttb3viFK+tQhMBrnOxIfqUGHyZwRaRyzMCfYGqT4OCGrdBVxlEGYwxxop/q7m1Cd5Cg0yrSIWzJUBzAn+Bm0v+mSiTOZYI8l1ID5YH4M1IGcGvTtVvpyl5eV6FWQ+AibghiV5AUvBGSbhsSDXu/ABa9Peta7d0xpimfWqDxVwDHQpPOom50SQ62Q4M95QciNCyN4KYnGzHr6kHwZgWQfX2nZohnOsoaJvB3K9lyda2banieka7yIFqTbEF/QiaKrT0YEbNKUTMycXYb4J58O/GcepLW0K5i7taLzGwryK3j+uWTWGVC4dXGNahj0xMmOrGmWorepGE8uYgLyy9CW2CDfprEDbNkdKtyHnW/DCvjlS+VkX21hi8TAYmIDvBPpO+4fkLQw6XrlB8nTMtw4OWmoBhTWWWDABXwaSzGnjCUuZjTsuHnOD5K6ZyRVVnEYSC524A/dXATmFLEUdPtaFHwJy/SPmW1tb5yg8YeOIxcVJkOpcVxOw8H4sQfxDMd86oQRBQ8jYOGLBBOS28dfCBNw4BEAqIxgCA5hvnQVrohFrif1QaRSx0Gnbmy32O/VruP5eCwK7mflWaVfLOoPVGGLBBBxvTq59uTMKypASAQbrvoMbTVNWmrquxhALJuCeNAHxaiE49Shyq4+n63Jz5Ilu2cpK3Qhi8VATfAXfj3mV9gOVMf4YT/hOmO67lyGuu5SNIBa8TW8FqY5xb75y1IjATMy3PgaTcLMaZYhWdfHEwldvN6DzOrwTo6GkgmMhMBsmIfuucU/RxOIEGCYgD+tv1ap+g0bhVjAJz8bHcecGtWlNU4omFhwWe6ANR8EMHNVhoaDa7Ifs3ozKaJpJWCyx0BFbQFudg2HTc81KQbXZE4sCHg6T8KQiJLUUslhiQVvxQJhZIo5lT+edbHMTldGYhf0iiQWbfBdoq/fqXMC82eIoHc/QP7MpB9EURywTZEtSzXLsOCXPHAForTfCJDw+czGtxCuOWMZhobAlq+4tLtEUkOtdWPC33vGdawuLIhY9RyYecCd5+3IdUpXlmokF/zcx9rNySTUWUBSxoK32hwl4JPGi00LkqnHkxKuasYRvQV8fGK+K+CUXQyx8wSYb9/o2HVjkEYw/QGqqgfcdn4c+37Km+itXWwyxMKl9G4h0VOUWq4BSEJiFPn99KcKOlLMIYsG9/mIIziDbCaUCLbmdEeAO8Dmm750z152hCGLBBDwF2qrVRxbXPVDqqB9zrf3R92+to+6qdWZPLLheeZLtX+At2ktUtaNamn8817ZKPCcja2Jh8joRrtdTMKgYbKunnQi8FI6Mj5bmyMiaWHC5ckfwkb2i19s51lrX6gNKi8jIllg8IpqHjoBUjd2+3Tp6eDZ4+qQZPKr6FEwLdvAsInm2bIm1/J5VM4HGQckRUYXZIQBSUaY9MC04LjvhRhEoS2Ix0BYgct1qr1KAlJzREdgEBHs7tFYRW0uyJBbmVtyqfWj0rlIFpSGwCz64x5cgdJbEwtzqVM2tShg+yWXcmFoL7vfpyWt2rDA7YsEMnCZt5diL7Uq+Kz+8GCdZH8yaFbEA1npwq54BbbVvu8aKWuuAwHrQWieZfXkO2dImzYpYaPpkaau0A6DQ2naC1jqLSzK5yp8VsbgHB9pqZq5gSa6sEDjMBBBkJVRHmGyIZfZbnQHBXpQlUhIqKwRgDu4MrfVXDHvLSjAjTDbE4lHD0FaH5QiSZMoTAZDrNdBaWUbmZEEsfHW2Qte9Bm+2NnOeQ6v1Uk2H1nobxs+GuSGRBbHo4YG2asUVmrkNgNLlMVoru1OdaieWOSfwVHQwtZYeIeCKALXWKblprdqJZTw7B7uiqfRCoIMAtNZf5jbXqpVY/MrQRgZA2YeoaBhnjcCLMY7m5CRhrcTC1pCpAOMgzK/G5gSKZCkPAWit4xBDmM09abUSa/HYeSQWT2DSIwSqIsBojDmwgsZVLShE/tqIBQBexGBKNKLYQxlDdIBvGQNTslwX9W1OkHxmrpXF7ZC1EQuTzZcCzQN0mq3fmBpcutIvY7Nz7YiP9StzaGItxIK2Wh8AvAWkktMih1HQHBm4y/hNOZyNUQux0I9cszqgOf2ZviUyBUfFnLuMa787rRZiwQzcF9pqz/TDsTk1yhQctS8n4S9/Aatokzp7Ozmx2GCYgaeh0bU2vE7QVXdcBGAOHomP9y5xa+ldenJiGadF1x3Cuu/KfijIFOyJ1Q5mS8lG9oiGTZmUWIPPPzYWDT4ZZuCO3Zqhy+TsO1emYG+soLWOwkd8mj2iYVMmJdaSwYem9HNayP1u18HSWH1xYnDu6/qmipQgKbFoBoI4PI9dT0UEpLH6A8gFY7je+TFP/iQlFr4gb0ILB5K3soEVSmNZdeoUhM3VslaajFjwBm4LKHRktNV46J9IGqs/RkixLT7mb6zjDMJkxDJmIMOY9ARAQBrLDkSYg0dj7CUP9E5CLHgDx+HL8WZAsZkdHErVDwFprH4Irf0792r9pXXqQAmTEMt4A3W6baBOYzHSWNZgjoXWOgFOjK5LPNalOCZMQiyzKJy0YY44FJdcGsupy3ZG/OAhTjkqJo5OLB6oaLZNb11RVmUfgoA0ltNwGIDWOjnlkdTRiYXt99sDgr218Os0EPomlsbqC9HIBLvAckpmNUUnFtYRtgOpstjV6dwVGWeQxnLunKmwnI5yzuWZISqxzIbGN0A2ncfu2UGjZZPGcgaUTozX8UgI55weGaISC/LwPAstCnt0TL8s0lj9EOr6951TrWlFJRYasQ2al8yu9YK60EzSWF4dtz3MwWO9cjpmikosRhdjfrWDo0xKboGANJYFSOsm4W2QJ+D8we28cjtkikYs2LIbQ479HWRRUgcEpLEcwBqelJEY0S/giEYsmoHQVlneXeTdJRlllMby7oxNkfMVsQNzoxELwtPFrhtEvPu/d0ZpLH9gYQ6+KvaaVhRi8WsAdft6NF0Xyfn3f8+c0liVgJ2G8fmKSiX0yRyFWIi2oJt9t5iCq2whUAEBfvAPNX6ACsWMnjUKsRBtITd7lO76c6EyBasBDHPwYLMcVK2gUXJHIRbU7NGaX0Xpr7WFyhSshu/0STO2xDiNduFhcGLx6lM0mSH62V24XK0rlLtJCEBjcdPtLIzX8THaFZxYUK/0BO6maPYY3SVTMCSqINds+AOmhSyzU1ZwYqFghjBtEUNYlflnBGQKBhkNU7EBcr8gJY0oJDixYLf+H2irgRjCqkwhEBgB3h9wYAxzMCixICAJNTNw41WcEIiGAMzBV2D6EvxW0aDEgoC8QoU7hvVERkDu9mAA87zL4KflBiUWBYQZSEH1REZAc6xgAG9lloeCFciCghLLhIno3qugXaTCEiCwH45HC+pwC0YszK/GAQCFMSUYBaoiLAKYZ81EtFDQeVYwYmE9gBsakx/lGxbickrTHCtoX02GtXVYyBKDEQuM3wLzKxErZO/0KEtzrKBATzAHzUwMVWowYoHxR0CozUMJpnKEQGIEXgKv9uRQdQYhFuZXjAuMsoIdqqEqRwj0QYD3Fgcbw0GIBYG53Xmquk4IFIwAg3FnhpI/CLGgQmkCRj/5JlSjVY4Q6IYA5lmHhDrQMwixDKm0fqXxWjoCU6EkgiiIIMSCbXoMPIJBF9hK7yHJXyQCW2MsHxBC8srEMucG7BJCGJUhBGpGYGOYg8eEiHavTCwsDHNjY/AgxpoBVvXtRYDnuw9UbX5lYmFhmCfe8vAYPUKgCQhQUVSe1lQmliEVz7nQIwSagMC2mGfNrNqQysSCEC+H44LrWHqEQBMQ2ACN2KNqQyoTCwKMek3PpGd0g0/VDlL+9AjAgXEEbiThpl3vpxKx4D3hwvC00WrXSU3e/aKM9SLAzbqVtpFUIhY8giRWJQHqxU+1C4GuCHBXcSVzsBKxjEdwQJ0jBBqGwKYwB4+r0qZKxGI0MMy9rasIoLxCIFMEdq4yz6pELADCE5m4JV+PEGgaAlyb9fZ2VyWWIi6aNpzUng4CjBv0dmt7EwseQd4xNGzHpdzrGpUNQmAz3vzo2x5vYsEjyLnVsBB7udd9u0H5MkVgRygQL454ZSII8AhyhVp3DGc6IiRWEAS4P2vApyRvYqEybmzUHVg+qCtPKQjsiHmW1zptFWJtBdPPq9JSUJWcrUeAl9Ol1Vhg8v6oVK721o+9RgPALVE8iNb58dJYmNBxfvUS59qUQQiUhcCGDMj1EdmLWKiI+6+CHW7oI7jyCIFECGxt7iVwqs6XWNRYOvXWCWolLhSBbUywuZP4XsSCC5IewUr7VZykVGIhUB8C22BpicEQTo8XsaitFHzrhLMSl4sAlQidGE6PF7HgEXwxallzQKfCmJzwVuLyEJjks5blRSxgM9DBR2FM5Y0USeyEAK/2cT6FzJdYlY+HcmqaEguB+hAYi6qd79X2JZZzRfXhopqFQDUEsJZ1sGsJvsRS8K0r0kpfMgKTTFCEdRuciWX2YckUtIZYCRuAwNZYYmLcoPXjTCwslrECrWFZQ6yEDUCAzjqn056diYUKeA6AE3sbAKya0G4ENoXL3en+N2diYRV6fWDsvGDW7n5R6wtHgJEXdLtbP87EorbC2pUTe62lUUIhkCcCjI112nvoQyxqK+0cznMASKo4CEyAy32WS9E+xOIkjgzWIwTahICTleZLrDYBqrYKASIw4AKDD7HkuHBBWGmbgsB4l4Y4Ewtux91dKlBaIdAQBMYjOIIecavHmVgo9UVWJSuREGgWAhMRHGG9SByFWNqj1awRpdasQYCmYFSN1XebsvZoaSg2EAEuMVl7w500FmxMstb7apMGgq0mtQeBSSbqyKrFTsQy6tDJO2IlhRIJgfwRoKVmPfZdicX0Ov02/0EgCcMjwPmVNV+sExo5RazwHaYSy0CACoXb9K0eV2J1vCNWhSuREGgQAiRVHGKZgzrlvGjQaFFTrBGwJhVLdNVYm8CVrk2O1n2hhA1CgFyx5ot1QgMQ/fjWi2QNAlVNEQKcY1k77pyIhThBaiunnZTqDyHQEAQmYvxbh/M5EctM3lzzNARXNaPlCHDcW1trriRx8uW3vCPU/GYhQOeFNV+sExqMnHz5zcJVrWk5AlG9gsT2hZYDrOa3EwGnce+qscjaP7YTV7W65QjEWyCesf3eywDuyn4Aaz9WP4T096Yj4KqxVoI0v+sHivZj9UNIfy8QAZqCz9vK7USsaS/ssxoFP2NbuNIJgQYhQFJZT4OciDVp9w1+a2MKNghMNUUIdBB4BlOhvtZaJ7ETsYxHcJWwzgOBgSkKgknYE9RWtNisHh9iWduZVhIokTcCg0v7+pG8y1bGdRDgHMva5e5KLJJKxNKoayMC1qQiOK7Eeg55+OoRAkKgBwJOxNpr89n0CFpP4IS8EGgQAlFNQeIkjZXJaJHzImlH0HFhPQ1y0limGX9I2hxVNioCcl4kHRzPuigVH2LJFZW0P0evTBoraUcMIkDCeqnJmVhYJLsTYU1OHpKkzW9RZdJYSTv7adQWj1jGeaF5VtI+7V6ZNFbSTiCprMe9s8ZC4fQMWjM3adNVmRCIh8BKhPRZT4N8iWXN3HjtVMkyBZOOAXoF4wThmmY8hZ/0kOipGQGZgkk74Dms41r7Fpw1FjwjNAVXJG2SKuuKgDRW0oHhNP1xJhbszMfRnOVJm6TKuiIgjZV0YAy61OZMLOO8UFiTC8pKWzoCjLhwGvM+xGLkhTRWBkNFpmCyTvjD9EkzbnepzZlYmMDRM7LEpRKljYOATME4uHYplcrkNy61ORPLFP6ESyVKGwcBaaw4uHYpdRARR05WmhexUMnPUfnvkzVLFcl5Ue8YoOPC6RAlL2KhkicRLyitVW9nj5HGStYBj+2z24Ekl/XjRSxU8j+ogSc26akRAc2xkoH/FHwL1uFMlMqLWMjHSpwYnAyCFlUkjZWms+ERnOdakxexwF6GNS12rUzpwyIgjRUWzx6lOSsRL2IZAR5J1ixV1BUBaawkA4Nxsc6OOm9iwTP4M1Q4zFOiyxCSdPTaSqSxkuC9AmP9IdeavImFiui8oEm49tFlCK7wV0svjVUNP5vcmF/R+z1snNvk8yYWoty5VXlYhdJYNpCHSyONFQ7L0Up6ZPmilRjr6YiFKPffgEjDQpukseJ39NAapLHi4w2N9QDGero5FprEaN/H4jdNNYyGgDRWkrHxuDmo1qkyb1PQ7KZ0ntQ5SafEPRGQxoo+QF6AKTjepxZvYrEyeEv+C+bgr3wqVp7qCEhjVcewTwlPwRS83qeWSsRCaBNJ9WufipWnOgLSWNUx7FPCr6E8FvnUUolYqJCewUGfipWnOgLSWNUx7FMCg2+9gs0rEcuENj0YvXmqoCsC0lhxBwbMwHswxr0OTqpELDPPuhE/rW9hiAtFu0qXxore397OucrEQtMehANjafQmqoJ1EJDGijoouJzkHQ9bmVjGgaEzMKL2cffCpbGigv4kHBf3+NZQmViwQZ9E5b9QOJNvF/jnk8byx65fTsyv7kcok7djrjKxzDzrB/ipHcX9eivw36WxAgM6vLh7EcrkPaaDEAvyPIzX6RSbqJC0pHBprGgdzT1Y9Ahan9U+UpIgxDK+fjkwovWz5liJoaUJ+ECVOoMQC8xm9MUvqgiivO4ISGO5Y2aZ45dHT3nbYsu0XZMFIZaZZ12Ln87h9VWEb3tezbHijAA4Ln6K+RWdct5PMGKZeRaPRdOTCAFprChA8wj1e2GFVbpcMRixMM9aApf7/ChNVaFdEZDGijIwBlFqpfkVpQpGLLMZzHtBLQpEDS9UGitKBz+OheHK8a/BiGXmWd+H1vIOA4kCkwoVAm4IPICF4WVuWdZNHZRYMAdJKm18rNoryl8XAivhuPju4bNf4Xx4zEiBgxILhXOl+v66UGlbvZpjBe9xbhHxjmgfKk1QYmGetRr26dUwBzkB1BMZAc2xggP8K6xf/TJEqUGJZQSiR6XSGkCIhqkMIeCBwP1Yvwpy8lhwYmGeRcbP92iUsgiBOhHgPcPXmKuAK8sRnFh0u8Mc/HddTFe5b1RAWgSewLh1vq5nNBGDE4sVQWvdjR/a/Jh2YKi2CghAW90LN3uwyKEoxEL7eMP4fRXaqaxCIDUCt8PNHuwovyjEgjn4B6jVr8Ec9N4olhpV1ddqBDhObwuJQBRiUUCoVa4HaLE4ZG+prCgIwAz8BdzsQS2saMSC23IxULgTWktHo0UZDio0IAJ3YLwGVQLRiMWwe5iDX0XjtbM44AhQUcER4DFnt2G8BlUA0YjF5sM7SPUaJEQkOJwqUAj8CYFfQQHMDw1GVGKZo9GCCx0aBJXXagTuhgIIEm0xFMWoxGJF+Bp8HfOsyvtbWt31anwsBJbBcXEVvdihK4hOLHwNeMjMHaEFV3lCoCoCINVCfPijjM3oxMLX4PcQ/gporcerAqH8QiAwArfjwx/FuRadWAQCa1o0BRXiFHhUqLhKCDB86cbQ3sCOREmIhTUCEuvmSjAosxAIi8BCLAoHC7odKVoSYpkNkP+Byh8Ni41KEwJeCHCLyLcRGxjFDKRESYjFimDLLsQ86zovGJRJCIRFYAnm/VHHYjJiQWs9i8Z8Sa73sCNEpXkhMM8cfOSV2SZTMmIZrbUAP6O4N20a26Q0Ou/CuzdXwAz8//jQr/QuwSJjUmLxomRorcuhtYKvdFu0tVFJdEKTd3c+iDH4E+/clhmTEstoLXpidESaZQeNlkwaywvAZ6GtvmGu9/UqwDZTcmJBaz0B4W6F1tLNJLa91CWdNJYXeHRa0AwMGsneTZLkxKIQaNw38GOxFzTKtAYBaSz3gQBt9V/mFDH3zI45aiEWGrcIct6sTZCOvTUkuTSWM3Y8j/362E6LjlS1EIuNg9b6IoRQ1Lvz+PhTBmksZ+DuRqRFMo90LcQiJOaINIU5OY8PZfBA4PcwA69ApEXQ7fe95KiNWGbB+N9gDtIsXOfB/3vgpyxCoCsCdLFfnxKb2og1RGt1XVNYvpGC4VMOhAbXtYqbGWEhLU7ZxlqJZRaML4V20rpWyl5vV13UVt8LdSa7LXS1Estorbvw80e2AiudEHBAYDW01TehrZI7yWonVsdDCK3F8971CIGQCDwEbfUtzudDFmpTVu3EMlqL52LcYCOw0ggBBwTugLaqZZqRBbGM1vo8tFaydQaHzlHSMhFYAjPwyzFOYLKBIwtiUdCTDz2XX5bv4/2jjeBKIwR6IPAC/nbrSa86/ad1oZQNsQgA7OErobVuqgsM1dsYBB6Gtvo8tBWPj67lyYpYRmv9J5AIfoBiLeiq0joQoKPiRmirn9VReafOrIhFoRDPdRW01jfxrq4TGNVdLAL3Q1t9IVWw7WgoZUcsxnPBJPwcBE6+9lDsUJLgHQSepsMC2opro7U+2RGLaJgA3auhtZ6uFR1VXhoC95qNjM/VLXiWxIIaf5p3ayFe8Mm6Acqxfm0Z6dorPBxmLubpD+fQZ1kSy2gtnkN4JX5flQNQOcmgTY5de2Phq/c88Qu59FO2xDKn514OoB7IBaxc5JDGWqcnOGXgBQfZjJVsiUXooNbvg9a6AG82gOVALmmsdXrhTmiri/Ax5sJwFk/WxCJC8PBcjR/flyPjz+NFGmsYd34DT+Al+Ag/kgWjjBDZE4ur53BkfBnyLnQFTruQXRErMv3PsPaZXbRO9sQyjgxeEv49EOXXLl2vXcguaBWZdim1FdY+s7vUsAhiQWutgtb6N3T9jUV2v4QOjgAItQKFzoW2ujV44QEKLIJYbCds6MdArouhtbh3S0/LEXhk+aLFcFh8AtqKNzNm9xRDLGMSLsBPBulqa0l2QympQDzO7HJz8GvSim0rK4pY3LQGrXUZtFaW6t8WdKWrjMCdGAdf51pn5ZIiFVAUsYxJ+BB+fhXvb7th0mRPYJPb5jC+H4W2+mdMDZIdvukg29qkxRGLkmNtixsiGZWxzoJgkz2BbFvL17C41+pH6P//9hnsKfMUSSxzHiHPyLipbV/xlkddLIDD4oI6dwbbkrNIYhmTkPu1voT3l20jl23nNizd/3ADI8PcSmhXscQyJuG3DLkGSwC7qoxt/oCAVNdgzeoHVTFMlb9oYg3Zt0WHRuMfzrFaSi5enPEVrFkVc3d10cTqeAkx2C7G78WA3vgvQNgG8pb7S+CwKOrKp+KJZUzC74BcPCej0fcao43cJbs07LjNuzSQ6lqsWV3FsLa8JR0uXSOIxYVj2N//joF3VUnge8j6OAbZB5GvLZEnDF/7Fzgssguy7dd3jSAWGwn7+1EMus/i13W8Rg1a+2F0P2Pjivp69xuEo/z9SWirT11w0uVFmYCdtjSGWGa+NR9a6+Mjb4ls0NoPCcUTiJ73HKylZONC8A0leQFHAtsoYpn51rfxk4fQJL+6JeaoNd5AxsYx2qTppuBtWAj+CKwQp/13MfF3LbtxxBoSqHs5BmNjjqo2oVokFLVVY9rVZcDeBxPwAnPcuOt4ziZ944hlTMI1e7fw+7xskK4oiNFYNAVfwMDreiF6xSpyyM7oin+Ba734Gz4bSSxDLjoxLsGAbMTisdFYg0Zjjc2BBYFl+CNI9XV8EL8Bq6P2k2yrtq2xxDLzLYY8MQq+CabTagw63h/GeVYTnRfz0a5/hQlY7LxqKBkbTSx8+Z7BYLwUWov7t4oejGgD13K4AM47n5q2EM551QfgWie5GvE0mljGJHwC5PoHXg1Uco/BFNwY8q+Y9sI+DN16ouS2jJD91yDVhU2YV7VGY3UaCvPiQZDrE/j3PaUOSHwYSKin8NIz2AhzCe1giNb16Jtrct5m7zNmGq+xhpDrbgzOj5b6tYfG2gKy84xymrf0mg36dHhGebgedwvWqz6ED1+WJy1Vwao1xCJIWMm/BuS6EG/W5yV061DITC8n51d0xDyDt/QF8J/DBDwvl2t3qpCoW95WEQsr+fzaXwEgeB1raV/JNWRCG/ilp+YqOV7wQZDqY3BW3BZ6QOdSXquIRdDxhfwtyPUZ/PqdXDrBUo5lcFx0lg3oFSx1rYeXGFwM6+EGy3YXmax1xDLkWgJy/T20FuMKS3mehLYaSiyahaU9a260B/bfRFuatmQwrC9aSSxDrofQwZ8EuW4rYLv7CrM4vKbzoLl+i69+idspboKz4n20Gkr7IrjK21piGXL9HD8vwTngWTszQPxfQs61LnZ87WkGZjlH7LFF5w6Q6r253WPlShjb9K0mFkHCwuRV+Pp/DoM35y3vXLvims/QZ9C2k1OmG2VT6QN0VoBUxa4jumLYemJxmwnIdRmA4+m6XICt7eljko70Ai6vTVC3ih8BqT4MjHmZRWue1hOLPQ1yLccc5tP49ZphKmHpSCURd1z0OB6b0ezDjtOGvHfh/2r9EFigwe31F4NU3wbGRcdqWrR1WBIRy8Bh7t86H1qDdx6veTLa0s9BOXLXMB0AOWstXrVzKdzqV5Z2wpIribqlF7GGoGJiCj+E/1oQAtyAZdBRMVJ90jNIrZXjsxqyfQ1aldeYZulkiQ2aiDUCYZBrwUGbH3saNNePY4NvU76Zd90HuYatW+HfJFqOO4mpXW/gUgZkbFIUvk13rU0jYnWBCwPiDgyM92FQ164ROO+CLN8bpVdzXCb4Edzq7wKGXCJo7SNijdL1GBiMY6MbfmGdowP186vf9fhsEO4O/I1xg7k8XAA+u/SDYEKAKWL1QBHerP+HwfteDG4uJNf10M0+WiQ751m57M36GUh1DkhV64eork4aWa+I1aMn4M16AQPlhzQLsfBZ14BhfOBod+1SW+XgGVwAgp8PrGo3nUWsXBCwkAMD5r/5NR5qFiaMLyR5ui6oMWYQf7vfogkxk9wNbM7EFpBWLQD3A1Qaqx9C5u8kF369FO+j/K8Udx0b8i4FgbpqJbiyqckWWzYhRrJ7oKk+Dmx+EqPwkssUsRx6D1/lz8AV/w5kedIhm3dSQ15uFxl1UyPM1OtQQR0OjIXQVO8AJt/wbmCDM4pYjp27z24Hcnv/BTQLY5uDKJ+E6hccTI9h6mtuqKk+AU011xG+1iQXsRy7mg4Nai5oijOR9aeO2V2TL0M9PXfawkxk5PjaMCzXCjzS/xSa6q+Awdc88rYmi4jl2dX8WmPQ/y2ye0U/WGo7Oi16hgTBTHzebIJMEZB7O0j115pT9R80IlZ/jEZNgQF2E+Zcp4MkzpN3S+cHw4NszrZgBEZsc/BWkOp0tPnOCpC1JquIVbGrMdB+DI3xN9zi71JUP41l/k5i9d1uAXNwMcxBnuse6+H5f2cyjjJWBU0rV8QK0KM0jUCud4IM1pP5fhpryH1Yoy0Or5WcW/VR/3fxH0sCNGdoEc/zBhCQ6lS08e7AZTe6OBErUPfSRDLkutGmSEuNRbe+lSsdWutOkCDkqVPcT/WvnEeibV7zSBscmppGxArYszSVMBDPAmn6mmX9NBbEegFlfQtlWsUCQmutRHoSK4TWYgziP6G8j6D+EOUFRLmMokSswP3EIFQMSIY//QeK7mvGdaveaDNGWzziIh601jwQ4lqXPF3SLmE0BXb+/nOb91NVxHCMiFUVwS75MSAfxsD8AAjyOfyZR0P7PNzYuMwlozkEkx5K3w2GC0Gq9yOq/1KU1fiz/1ywdU0rYrkiZpkeA/NXGKDngVyfQhYfVzhPinWOXAehvwNy8KI96wfpGeExF06KOVz4xSJ46RcuWLc9VkIRKxayKBcD9Hcg18ew1jUHBHM9ufZBmHbO8xsQmqfmMn5vvmXTnsWBpT82nr/GXIZu2fZoyUSsaND+qWAe+wXTkGdAnA1yXYu377oUsv0B6a8GSaw8gl2asAhE+biFKcnjyT6NtG+HjA9EhqJVxYtYibobA3ceF5JR3bCzC0epnqaYsxnYKQt1PQVtdztIc2Pn//D7yKrm895fmI4XIf2arTB6wiEgYoXDsm9JGMD3glzvgdb6IhL3cmrwgM6qDwN4vwjyrDlWAOZepzx6Kq+nlsJ86kvQik4OkqpCtSW/iJW4p0GuhzDvIrk+iapH0xQT8Lftbpp7/bgK4j0HrbUAGulckOsWowFp+n3OxPzNr1C2svZBIMSXUSB7IvCVmy+avejRuy7AYvGhnSI6ERnQNp8HMT4CjfIbl+JBxolIvxHeDfGuj3dTvJMXj503A3WN4wE5mPf5zt1cRGl1WhGr5u4HufbAgKdL/tUdUUCqP4JU3O9E7x6jybl9hEdMs7+oxWhpdF6ShyTaCu90vFPxDuClqcmoDUa+84y/J1xJWjM0RVcvYmXQfSDXriDXhyHK8XgngFjPglid8wS5z4qeRF6KQDKNNwTr/JukooaiZiKh+DufFXgfxsvA4K+CVAqiTdjX/NrpqRkBOjUWLJt7xpXXXbYapNoDpJoCkbbDS+3j+9AkJNlI0JEXKviWqXyWCMh5YQlU7GSY96yAo+H9IBVPgmI4EzVT1YfkWj1p9w0Gqxak/G4IiFhueEVNDXONB8fw1sNQF3ORUD8EabseUR21MS0vXMTKbwCQBDz9NsQzd+9Zu14RoiCV4YaAiOWGV/TUxmzzjU4fKt8KlPX5gfW2C6X9ore9SRWIWJn1Jsw2nsq0OIBY9+44sJNr4G+AalUEERCx8hwHnGsNu3PYQ8xboK249URPDQiIWDWAblElA/uqxPAxgLfnQZ8WMihJBQRErArgxcoKhwO31z9Yofw7UMaNFfIra0UERKyKAMbIbhwOTuddjJDjAZSheMAYnWNZpohlCVQNyaoQi+FMempEQMSqEfxeVcNVzosOfA50YVyhT75MkShTLBEr335jRDoj010frl/d6ppJ6cMiIGKFxTNYaViD4iKxz73H3C6S5GK8YI1tYEEiVqadCucDTTofgjAcStEWNferiFVzB/Spnuaga9zgILRdiruy8kauZulErJo7oI8D48f4u9PWfKRntIX2X9XcryJWzR3Qq3ponvvxd9eAXLraq4ZDZYxKGaKJWHn3E88XdD3z76mNxkySxqq5X0WsmjugV/VwYJAgrjGDKzdYb6LNabsZt7x80USs/PvQNULd5s7i/FtduIQiVv4dyCgKF9POJW3+rS9UQhEr845DFMUdEHHQQUyZgQ5gxUoqYsVCNly5DGtyWZcSscJh712SiOUNXZqMcLkvQU0ua1le17OmaU17ahGx8u9rutx5DobtI41li1TEdCJWRHADFU1nBA/wtH1ELFukIqYTsSKCG6JoE4zrckG4iBUC+IpliFgVAUyU3SVaXRdzJ+qUXtWIWBl0goUItl5BntPOo9P01IyAiFVzB9hUD7LwNnsbcq2//J5VvKVET80IiFg1d4Bl9VzLst2XpTmWJagxk4lYMdENVzbjBW3mTs/JFAwHepWSRKwq6CXKaxaJbYJxx8MUnJxILFXTAwERq4zhwY2LtlHrvDpVT80IiFg1d4Bl9SSWbaiSrr+1BDVmMhErJrrhynbRWLqwPRzu3iWJWN7QpcuIrfZ0XNiagiJWuq4ZtSYRK4NOsBTBdgOjiGUJaMxkIlZMdAOV/cyY5Zw32a5PiViBcK9SjIhVBb1Eec2pS7bOCxErUb/0qkbEyqATLEWwPStQfWoJaMxk6oSY6IYrm6SSKRgOz+gliVjRIQ5WgZwXwaCMX5CIFR/jEDVQY9kSy9ZkDCGXyhgFARGrjKFBM1CmYBl9tUZKEauAzsKR0S4aa1wBTWq8iCJWOV28ylLU8ZbplCwiAiJWRHADF/20ZXkKwrUEKmYyESsmumHLfhDF2WzPl8YKi7tXaSKWF2zpM2Fn8JWo9TK8d+Fd0UMC9Wn67lmnRoW/ZNAJLiIMPv/YxksGHzoMO4VPRL598U7Fu9mQMr6096xdT8V5hHK7uwAbOK3s8cCAxi4OhOFc61q+INlEkOwgkOw0/HsvvJvgdTnnPba4rS1fxCq460EyHuT5I76rnl857ie33HoGfn9Y2qrgTpXoQkAICAEhIASEgBAQAqUj8L8DuBsUobtgjQAAAABJRU5ErkJggg==;spacing=-4;fontSize=7;" parent="1" vertex="1">
          <mxGeometry x="544.63" y="287.24" width="15.37" height="31.59" as="geometry" />
        </mxCell>
        <mxCell id="r_LDuMVwWnfsW8-giX2U-32" value="Mongodb" style="shape=image;verticalLabelPosition=bottom;labelBackgroundColor=#ffffff;verticalAlign=top;aspect=fixed;imageAspect=0;image=data:image/png,iVBORw0KGgoAAAANSUhEUgAAANYAAAG4CAYAAAA5ahmwAAAwx0lEQVR4Xu19C7heRXl1QggkIHDCPQRIImi4E0CuIVwUxSpQ/kdE1CgKFLAoqOWvWkW8QlvBp9UqQn+rFouIt1+RorQgGEAQMSFIIFxjJFzUJocoREKErhXni+ecfOf7ZmbPzJ7Ze+3n2c85yZnLO2tm7fedd96ZGTNGjxAQAkJACAgBISAEhIAQEAJCQAgIASEgBISAEBACQkAICAEhIASaj8BNc68/YsGyuS9tfkub08L1mtOU5rZk8dh5h89bePsbBp9/TP1VSDero8roqI0WPXrXEUsGH9qpDHElpYhVxhjYAGJutfyeVdPLEFdSilgFjAFoq/0g5g4/XPrls2AOjitA5NaLKGJlPgRApLEQcQLegUeWL9ob5qCcGJn3GcUTsTLvJEOkLZdvtISSTr3yuss+KK2VeaeJWPl3ELyBx4BUQ+dWu911y70z85e83RJKY2Xc/9BM69NpMVREmIO7w/3+MmMiZix9u0UTsTLuf5iB0+G4eOUIETfA/x2Dv03NWPTWiyZiZTwEYAa+Bmbgvh0RB6ZMXPMrtNYh+NvLMha99aKJWJkOAYQw7QDNdOJQ8QaXruz8c3P87U1Is12m4rdeLBEr0yEAjfRqaKv9h4rX0VhGa82W1sq08+QVzLNjoIk4t3o7pBvfQ8ItkeYkODH+ZB/qyQoBaaysumPMGJBqE2iik6GtDu4nGuZax/zjVe87p186/T09AiJWesx71ghSnXTbsqvPthRrE6SbBTJOtkyvZIkQELESAW1TzVduvugEmHcfQNpJNunNXOsgzbVs0UqXTsRKh3XPmqB19iSpRkRZ2EjHudZfI/9LbBIrTRoERKw0OPcj1R6IAfzs0DUrF7Ew1zoK+c9QDKELanHTilhx8e1bOjTNDJDi0yDV4X0Tj55gfZDrtYgh1KJxBRBDZhWxQqLpWBZItQfmR+eDVCPDlhxLWpN8F+zXOhNlbuqTWXnCIsAgTz01IAAC7ENNhaoPH7NRGAGgtV6OXcYHobTrwpSoUnwR4CY6PQkRMOtUc+BwOBuaahfXqoeENXXNOn3SjP886VWnv2OvzWev2cClpx4EZAomxB2k2hym3zkg1fk03SY9s2Pw2qG1XgNN+G6d6BQcWqcCZQo6weWfGKTaBqQ6F6Q6DZpqwL+k/jlBrtd/99Yrvo+UN/RPrRQxEJDGioHqiDJBqp3opEBExVn400AMTTWiyu1B4HNQ7xYJmqcquiAgjRV5WHDhF6bZxajmSDgp1jdnV3jXygj3fvMsFg6tdRjIfCR+/aZ3ZcrojYA0ljd0/TOCVHuBVJ+hOx1vkI+YDamMZAPQWn+HMKlZ/SVVitAIiFihETXlgVT7gVSXgFBHhKqCJuTQPVn9yoXW2gfk+ghN0X5p9fewCMjdHhbPMTwABhEQx2KxlnF/wzYqhqjKQWOtrQ4u+K/CBf8+uOAfCyGDyuiPQBDzpH817UgBUm0Ib9ycRUvvOtdnjcoGJds51oiyjoX2/B3kO3tgve1W29SjNNUQkClYDb+1uTFoJ4BUb4Xp9cFYpPIVFSbhZniPh3xvNEeq+RalfJYISGNZAtUrGQbrRhi0p4JU/xek2iFAkTGKmPyDu6+6EDLujMK5QK0nIgLSWBXB5ZkTINVpGLB/mzGpOq2cgl9OgqfwmIrNVvY+CMh5UWGIGFKdYTRVsqPIfBwYI5p536v3PPE9Jx967g8qNF9ZeyAgjeU5PECq8dBUbwap3gNNlYxUnuKOzLYLzMJPQXMdEag8FTMCARHLY0jw3HSQ6kTjqAgfSeshk0eWPSD/xSBXlQ2WHtW2I4uI5dHPWKc6jlENyDrNI3s2WeAp3Bft+LQ0V/gu0RzLEVMMwldiMF6EbHtVjftzrHpt8gBzrGFVYwF5/ozt9+ac60ZfmZRvOAIilsOIAKn2B6kuBaH2ccgWPGloYlFAkOtOkOvdINfNwQVuYYEyBS07nYe+cE4ylFQJtn9YSlc9GczC/YxZeEj10lSCiGUxBkCqHRESdCGSzmbyDqHqMgUtRPZKAnLtD2/hP90093qem6GnAgIiVh/wQKqtsK/p3Uh2dIdITSPUCAj2/8IvPnAhPyYVxlXrs4pYPYaAOfjldJhIbwOZAp2lVMSYOwIa+h9ELv++ErFGwQ6DagI01dtBqneCVNZnqft3RV45YRaeAHJ9AjgwDEqPIwIiVhfAMJjWA6mON1EV2zpi2pTkPF339SDX+TwIpymNStUOEasL0iDVUTyiDJpqWqqOcKnHZRexS7ld0k4Aud4Acr0f5Gqd1q6CnYg1Aj2sVTEa4ZO57akaKmaMdaweg2hTkGsOyGV7Z1eV8diYvCLWkK7kZB2kugCkyvpygYQaq4POliDXWxh10piRH7khIpYBmJcJ4Kt8Hkj1qsiYVy4+scbqyLsT1rguArnWrOXp6Y2AiAV8QKpxmFcdh19fizf7MK8aNFZnFO0FcjFod18RS8TqOwZAqtlmC0gRd/nWpLE6OL4M5PosyDWjL7AtTtB6jYUBwitKGa7kfPNHXeOmRo3VafJBwOw8hD5NrQuD3OttNbFgAm5rnBUHlRSmVLPG4pheD86M43B24ntAriK0fGoitpZYDFeCs4IeQM6rinoy0FjEaxO64UGus4Dli4oCMIGwrSUW5lVHA1+6j7N3ViQYB75VbAFynYIP1Ckgl3AcgmIriYV51QHcWg9ttb3viFK+tQhMBrnOxIfqUGHyZwRaRyzMCfYGqT4OCGrdBVxlEGYwxxop/q7m1Cd5Cg0yrSIWzJUBzAn+Bm0v+mSiTOZYI8l1ID5YH4M1IGcGvTtVvpyl5eV6FWQ+AibghiV5AUvBGSbhsSDXu/ABa9Peta7d0xpimfWqDxVwDHQpPOom50SQ62Q4M95QciNCyN4KYnGzHr6kHwZgWQfX2nZohnOsoaJvB3K9lyda2banieka7yIFqTbEF/QiaKrT0YEbNKUTMycXYb4J58O/GcepLW0K5i7taLzGwryK3j+uWTWGVC4dXGNahj0xMmOrGmWorepGE8uYgLyy9CW2CDfprEDbNkdKtyHnW/DCvjlS+VkX21hi8TAYmIDvBPpO+4fkLQw6XrlB8nTMtw4OWmoBhTWWWDABXwaSzGnjCUuZjTsuHnOD5K6ZyRVVnEYSC524A/dXATmFLEUdPtaFHwJy/SPmW1tb5yg8YeOIxcVJkOpcVxOw8H4sQfxDMd86oQRBQ8jYOGLBBOS28dfCBNw4BEAqIxgCA5hvnQVrohFrif1QaRSx0Gnbmy32O/VruP5eCwK7mflWaVfLOoPVGGLBBBxvTq59uTMKypASAQbrvoMbTVNWmrquxhALJuCeNAHxaiE49Shyq4+n63Jz5Ilu2cpK3Qhi8VATfAXfj3mV9gOVMf4YT/hOmO67lyGuu5SNIBa8TW8FqY5xb75y1IjATMy3PgaTcLMaZYhWdfHEwldvN6DzOrwTo6GkgmMhMBsmIfuucU/RxOIEGCYgD+tv1ap+g0bhVjAJz8bHcecGtWlNU4omFhwWe6ANR8EMHNVhoaDa7Ifs3ozKaJpJWCyx0BFbQFudg2HTc81KQbXZE4sCHg6T8KQiJLUUslhiQVvxQJhZIo5lT+edbHMTldGYhf0iiQWbfBdoq/fqXMC82eIoHc/QP7MpB9EURywTZEtSzXLsOCXPHAForTfCJDw+czGtxCuOWMZhobAlq+4tLtEUkOtdWPC33vGdawuLIhY9RyYecCd5+3IdUpXlmokF/zcx9rNySTUWUBSxoK32hwl4JPGi00LkqnHkxKuasYRvQV8fGK+K+CUXQyx8wSYb9/o2HVjkEYw/QGqqgfcdn4c+37Km+itXWwyxMKl9G4h0VOUWq4BSEJiFPn99KcKOlLMIYsG9/mIIziDbCaUCLbmdEeAO8Dmm750z152hCGLBBDwF2qrVRxbXPVDqqB9zrf3R92+to+6qdWZPLLheeZLtX+At2ktUtaNamn8817ZKPCcja2Jh8joRrtdTMKgYbKunnQi8FI6Mj5bmyMiaWHC5ckfwkb2i19s51lrX6gNKi8jIllg8IpqHjoBUjd2+3Tp6eDZ4+qQZPKr6FEwLdvAsInm2bIm1/J5VM4HGQckRUYXZIQBSUaY9MC04LjvhRhEoS2Ix0BYgct1qr1KAlJzREdgEBHs7tFYRW0uyJBbmVtyqfWj0rlIFpSGwCz64x5cgdJbEwtzqVM2tShg+yWXcmFoL7vfpyWt2rDA7YsEMnCZt5diL7Uq+Kz+8GCdZH8yaFbEA1npwq54BbbVvu8aKWuuAwHrQWieZfXkO2dImzYpYaPpkaau0A6DQ2naC1jqLSzK5yp8VsbgHB9pqZq5gSa6sEDjMBBBkJVRHmGyIZfZbnQHBXpQlUhIqKwRgDu4MrfVXDHvLSjAjTDbE4lHD0FaH5QiSZMoTAZDrNdBaWUbmZEEsfHW2Qte9Bm+2NnOeQ6v1Uk2H1nobxs+GuSGRBbHo4YG2asUVmrkNgNLlMVoru1OdaieWOSfwVHQwtZYeIeCKALXWKblprdqJZTw7B7uiqfRCoIMAtNZf5jbXqpVY/MrQRgZA2YeoaBhnjcCLMY7m5CRhrcTC1pCpAOMgzK/G5gSKZCkPAWit4xBDmM09abUSa/HYeSQWT2DSIwSqIsBojDmwgsZVLShE/tqIBQBexGBKNKLYQxlDdIBvGQNTslwX9W1OkHxmrpXF7ZC1EQuTzZcCzQN0mq3fmBpcutIvY7Nz7YiP9StzaGItxIK2Wh8AvAWkktMih1HQHBm4y/hNOZyNUQux0I9cszqgOf2ZviUyBUfFnLuMa787rRZiwQzcF9pqz/TDsTk1yhQctS8n4S9/Aatokzp7Ozmx2GCYgaeh0bU2vE7QVXdcBGAOHomP9y5xa+ldenJiGadF1x3Cuu/KfijIFOyJ1Q5mS8lG9oiGTZmUWIPPPzYWDT4ZZuCO3Zqhy+TsO1emYG+soLWOwkd8mj2iYVMmJdaSwYem9HNayP1u18HSWH1xYnDu6/qmipQgKbFoBoI4PI9dT0UEpLH6A8gFY7je+TFP/iQlFr4gb0ILB5K3soEVSmNZdeoUhM3VslaajFjwBm4LKHRktNV46J9IGqs/RkixLT7mb6zjDMJkxDJmIMOY9ARAQBrLDkSYg0dj7CUP9E5CLHgDx+HL8WZAsZkdHErVDwFprH4Irf0792r9pXXqQAmTEMt4A3W6baBOYzHSWNZgjoXWOgFOjK5LPNalOCZMQiyzKJy0YY44FJdcGsupy3ZG/OAhTjkqJo5OLB6oaLZNb11RVmUfgoA0ltNwGIDWOjnlkdTRiYXt99sDgr218Os0EPomlsbqC9HIBLvAckpmNUUnFtYRtgOpstjV6dwVGWeQxnLunKmwnI5yzuWZISqxzIbGN0A2ncfu2UGjZZPGcgaUTozX8UgI55weGaISC/LwPAstCnt0TL8s0lj9EOr6951TrWlFJRYasQ2al8yu9YK60EzSWF4dtz3MwWO9cjpmikosRhdjfrWDo0xKboGANJYFSOsm4W2QJ+D8we28cjtkikYs2LIbQ479HWRRUgcEpLEcwBqelJEY0S/giEYsmoHQVlneXeTdJRlllMby7oxNkfMVsQNzoxELwtPFrhtEvPu/d0ZpLH9gYQ6+KvaaVhRi8WsAdft6NF0Xyfn3f8+c0liVgJ2G8fmKSiX0yRyFWIi2oJt9t5iCq2whUAEBfvAPNX6ACsWMnjUKsRBtITd7lO76c6EyBasBDHPwYLMcVK2gUXJHIRbU7NGaX0Xpr7WFyhSshu/0STO2xDiNduFhcGLx6lM0mSH62V24XK0rlLtJCEBjcdPtLIzX8THaFZxYUK/0BO6maPYY3SVTMCSqINds+AOmhSyzU1ZwYqFghjBtEUNYlflnBGQKBhkNU7EBcr8gJY0oJDixYLf+H2irgRjCqkwhEBgB3h9wYAxzMCixICAJNTNw41WcEIiGAMzBV2D6EvxW0aDEgoC8QoU7hvVERkDu9mAA87zL4KflBiUWBYQZSEH1REZAc6xgAG9lloeCFciCghLLhIno3qugXaTCEiCwH45HC+pwC0YszK/GAQCFMSUYBaoiLAKYZ81EtFDQeVYwYmE9gBsakx/lGxbickrTHCtoX02GtXVYyBKDEQuM3wLzKxErZO/0KEtzrKBATzAHzUwMVWowYoHxR0CozUMJpnKEQGIEXgKv9uRQdQYhFuZXjAuMsoIdqqEqRwj0QYD3Fgcbw0GIBYG53Xmquk4IFIwAg3FnhpI/CLGgQmkCRj/5JlSjVY4Q6IYA5lmHhDrQMwixDKm0fqXxWjoCU6EkgiiIIMSCbXoMPIJBF9hK7yHJXyQCW2MsHxBC8srEMucG7BJCGJUhBGpGYGOYg8eEiHavTCwsDHNjY/AgxpoBVvXtRYDnuw9UbX5lYmFhmCfe8vAYPUKgCQhQUVSe1lQmliEVz7nQIwSagMC2mGfNrNqQysSCEC+H44LrWHqEQBMQ2ACN2KNqQyoTCwKMek3PpGd0g0/VDlL+9AjAgXEEbiThpl3vpxKx4D3hwvC00WrXSU3e/aKM9SLAzbqVtpFUIhY8giRWJQHqxU+1C4GuCHBXcSVzsBKxjEdwQJ0jBBqGwKYwB4+r0qZKxGI0MMy9rasIoLxCIFMEdq4yz6pELADCE5m4JV+PEGgaAlyb9fZ2VyWWIi6aNpzUng4CjBv0dmt7EwseQd4xNGzHpdzrGpUNQmAz3vzo2x5vYsEjyLnVsBB7udd9u0H5MkVgRygQL454ZSII8AhyhVp3DGc6IiRWEAS4P2vApyRvYqEybmzUHVg+qCtPKQjsiHmW1zptFWJtBdPPq9JSUJWcrUeAl9Ol1Vhg8v6oVK721o+9RgPALVE8iNb58dJYmNBxfvUS59qUQQiUhcCGDMj1EdmLWKiI+6+CHW7oI7jyCIFECGxt7iVwqs6XWNRYOvXWCWolLhSBbUywuZP4XsSCC5IewUr7VZykVGIhUB8C22BpicEQTo8XsaitFHzrhLMSl4sAlQidGE6PF7HgEXwxallzQKfCmJzwVuLyEJjks5blRSxgM9DBR2FM5Y0USeyEAK/2cT6FzJdYlY+HcmqaEguB+hAYi6qd79X2JZZzRfXhopqFQDUEsJZ1sGsJvsRS8K0r0kpfMgKTTFCEdRuciWX2YckUtIZYCRuAwNZYYmLcoPXjTCwslrECrWFZQ6yEDUCAzjqn056diYUKeA6AE3sbAKya0G4ENoXL3en+N2diYRV6fWDsvGDW7n5R6wtHgJEXdLtbP87EorbC2pUTe62lUUIhkCcCjI112nvoQyxqK+0cznMASKo4CEyAy32WS9E+xOIkjgzWIwTahICTleZLrDYBqrYKASIw4AKDD7HkuHBBWGmbgsB4l4Y4Ewtux91dKlBaIdAQBMYjOIIecavHmVgo9UVWJSuREGgWAhMRHGG9SByFWNqj1awRpdasQYCmYFSN1XebsvZoaSg2EAEuMVl7w500FmxMstb7apMGgq0mtQeBSSbqyKrFTsQy6tDJO2IlhRIJgfwRoKVmPfZdicX0Ov02/0EgCcMjwPmVNV+sExo5RazwHaYSy0CACoXb9K0eV2J1vCNWhSuREGgQAiRVHGKZgzrlvGjQaFFTrBGwJhVLdNVYm8CVrk2O1n2hhA1CgFyx5ot1QgMQ/fjWi2QNAlVNEQKcY1k77pyIhThBaiunnZTqDyHQEAQmYvxbh/M5EctM3lzzNARXNaPlCHDcW1trriRx8uW3vCPU/GYhQOeFNV+sExqMnHz5zcJVrWk5AlG9gsT2hZYDrOa3EwGnce+qscjaP7YTV7W65QjEWyCesf3eywDuyn4Aaz9WP4T096Yj4KqxVoI0v+sHivZj9UNIfy8QAZqCz9vK7USsaS/ssxoFP2NbuNIJgQYhQFJZT4OciDVp9w1+a2MKNghMNUUIdBB4BlOhvtZaJ7ETsYxHcJWwzgOBgSkKgknYE9RWtNisHh9iWduZVhIokTcCg0v7+pG8y1bGdRDgHMva5e5KLJJKxNKoayMC1qQiOK7Eeg55+OoRAkKgBwJOxNpr89n0CFpP4IS8EGgQAlFNQeIkjZXJaJHzImlH0HFhPQ1y0limGX9I2hxVNioCcl4kHRzPuigVH2LJFZW0P0evTBoraUcMIkDCeqnJmVhYJLsTYU1OHpKkzW9RZdJYSTv7adQWj1jGeaF5VtI+7V6ZNFbSTiCprMe9s8ZC4fQMWjM3adNVmRCIh8BKhPRZT4N8iWXN3HjtVMkyBZOOAXoF4wThmmY8hZ/0kOipGQGZgkk74Dms41r7Fpw1FjwjNAVXJG2SKuuKgDRW0oHhNP1xJhbszMfRnOVJm6TKuiIgjZV0YAy61OZMLOO8UFiTC8pKWzoCjLhwGvM+xGLkhTRWBkNFpmCyTvjD9EkzbnepzZlYmMDRM7LEpRKljYOATME4uHYplcrkNy61ORPLFP6ESyVKGwcBaaw4uHYpdRARR05WmhexUMnPUfnvkzVLFcl5Ue8YoOPC6RAlL2KhkicRLyitVW9nj5HGStYBj+2z24Ekl/XjRSxU8j+ogSc26akRAc2xkoH/FHwL1uFMlMqLWMjHSpwYnAyCFlUkjZWms+ERnOdakxexwF6GNS12rUzpwyIgjRUWzx6lOSsRL2IZAR5J1ixV1BUBaawkA4Nxsc6OOm9iwTP4M1Q4zFOiyxCSdPTaSqSxkuC9AmP9IdeavImFiui8oEm49tFlCK7wV0svjVUNP5vcmF/R+z1snNvk8yYWoty5VXlYhdJYNpCHSyONFQ7L0Up6ZPmilRjr6YiFKPffgEjDQpukseJ39NAapLHi4w2N9QDGero5FprEaN/H4jdNNYyGgDRWkrHxuDmo1qkyb1PQ7KZ0ntQ5SafEPRGQxoo+QF6AKTjepxZvYrEyeEv+C+bgr3wqVp7qCEhjVcewTwlPwRS83qeWSsRCaBNJ9WufipWnOgLSWNUx7FPCr6E8FvnUUolYqJCewUGfipWnOgLSWNUx7FMCg2+9gs0rEcuENj0YvXmqoCsC0lhxBwbMwHswxr0OTqpELDPPuhE/rW9hiAtFu0qXxore397OucrEQtMehANjafQmqoJ1EJDGijoouJzkHQ9bmVjGgaEzMKL2cffCpbGigv4kHBf3+NZQmViwQZ9E5b9QOJNvF/jnk8byx65fTsyv7kcok7djrjKxzDzrB/ipHcX9eivw36WxAgM6vLh7EcrkPaaDEAvyPIzX6RSbqJC0pHBprGgdzT1Y9Ahan9U+UpIgxDK+fjkwovWz5liJoaUJ+ECVOoMQC8xm9MUvqgiivO4ISGO5Y2aZ45dHT3nbYsu0XZMFIZaZZ12Ln87h9VWEb3tezbHijAA4Ln6K+RWdct5PMGKZeRaPRdOTCAFprChA8wj1e2GFVbpcMRixMM9aApf7/ChNVaFdEZDGijIwBlFqpfkVpQpGLLMZzHtBLQpEDS9UGitKBz+OheHK8a/BiGXmWd+H1vIOA4kCkwoVAm4IPICF4WVuWdZNHZRYMAdJKm18rNoryl8XAivhuPju4bNf4Xx4zEiBgxILhXOl+v66UGlbvZpjBe9xbhHxjmgfKk1QYmGetRr26dUwBzkB1BMZAc2xggP8K6xf/TJEqUGJZQSiR6XSGkCIhqkMIeCBwP1Yvwpy8lhwYmGeRcbP92iUsgiBOhHgPcPXmKuAK8sRnFh0u8Mc/HddTFe5b1RAWgSewLh1vq5nNBGDE4sVQWvdjR/a/Jh2YKi2CghAW90LN3uwyKEoxEL7eMP4fRXaqaxCIDUCt8PNHuwovyjEgjn4B6jVr8Ec9N4olhpV1ddqBDhObwuJQBRiUUCoVa4HaLE4ZG+prCgIwAz8BdzsQS2saMSC23IxULgTWktHo0UZDio0IAJ3YLwGVQLRiMWwe5iDX0XjtbM44AhQUcER4DFnt2G8BlUA0YjF5sM7SPUaJEQkOJwqUAj8CYFfQQHMDw1GVGKZo9GCCx0aBJXXagTuhgIIEm0xFMWoxGJF+Bp8HfOsyvtbWt31anwsBJbBcXEVvdihK4hOLHwNeMjMHaEFV3lCoCoCINVCfPijjM3oxMLX4PcQ/gporcerAqH8QiAwArfjwx/FuRadWAQCa1o0BRXiFHhUqLhKCDB86cbQ3sCOREmIhTUCEuvmSjAosxAIi8BCLAoHC7odKVoSYpkNkP+Byh8Ni41KEwJeCHCLyLcRGxjFDKRESYjFimDLLsQ86zovGJRJCIRFYAnm/VHHYjJiQWs9i8Z8Sa73sCNEpXkhMM8cfOSV2SZTMmIZrbUAP6O4N20a26Q0Ou/CuzdXwAz8//jQr/QuwSJjUmLxomRorcuhtYKvdFu0tVFJdEKTd3c+iDH4E+/clhmTEstoLXpidESaZQeNlkwaywvAZ6GtvmGu9/UqwDZTcmJBaz0B4W6F1tLNJLa91CWdNJYXeHRa0AwMGsneTZLkxKIQaNw38GOxFzTKtAYBaSz3gQBt9V/mFDH3zI45aiEWGrcIct6sTZCOvTUkuTSWM3Y8j/362E6LjlS1EIuNg9b6IoRQ1Lvz+PhTBmksZ+DuRqRFMo90LcQiJOaINIU5OY8PZfBA4PcwA69ApEXQ7fe95KiNWGbB+N9gDtIsXOfB/3vgpyxCoCsCdLFfnxKb2og1RGt1XVNYvpGC4VMOhAbXtYqbGWEhLU7ZxlqJZRaML4V20rpWyl5vV13UVt8LdSa7LXS1Estorbvw80e2AiudEHBAYDW01TehrZI7yWonVsdDCK3F8971CIGQCDwEbfUtzudDFmpTVu3EMlqL52LcYCOw0ggBBwTugLaqZZqRBbGM1vo8tFaydQaHzlHSMhFYAjPwyzFOYLKBIwtiUdCTDz2XX5bv4/2jjeBKIwR6IPAC/nbrSa86/ad1oZQNsQgA7OErobVuqgsM1dsYBB6Gtvo8tBWPj67lyYpYRmv9J5AIfoBiLeiq0joQoKPiRmirn9VReafOrIhFoRDPdRW01jfxrq4TGNVdLAL3Q1t9IVWw7WgoZUcsxnPBJPwcBE6+9lDsUJLgHQSepsMC2opro7U+2RGLaJgA3auhtZ6uFR1VXhoC95qNjM/VLXiWxIIaf5p3ayFe8Mm6Acqxfm0Z6dorPBxmLubpD+fQZ1kSy2gtnkN4JX5flQNQOcmgTY5de2Phq/c88Qu59FO2xDKn514OoB7IBaxc5JDGWqcnOGXgBQfZjJVsiUXooNbvg9a6AG82gOVALmmsdXrhTmiri/Ax5sJwFk/WxCJC8PBcjR/flyPjz+NFGmsYd34DT+Al+Ag/kgWjjBDZE4ur53BkfBnyLnQFTruQXRErMv3PsPaZXbRO9sQyjgxeEv49EOXXLl2vXcguaBWZdim1FdY+s7vUsAhiQWutgtb6N3T9jUV2v4QOjgAItQKFzoW2ujV44QEKLIJYbCds6MdArouhtbh3S0/LEXhk+aLFcFh8AtqKNzNm9xRDLGMSLsBPBulqa0l2QympQDzO7HJz8GvSim0rK4pY3LQGrXUZtFaW6t8WdKWrjMCdGAdf51pn5ZIiFVAUsYxJ+BB+fhXvb7th0mRPYJPb5jC+H4W2+mdMDZIdvukg29qkxRGLkmNtixsiGZWxzoJgkz2BbFvL17C41+pH6P//9hnsKfMUSSxzHiHPyLipbV/xlkddLIDD4oI6dwbbkrNIYhmTkPu1voT3l20jl23nNizd/3ADI8PcSmhXscQyJuG3DLkGSwC7qoxt/oCAVNdgzeoHVTFMlb9oYg3Zt0WHRuMfzrFaSi5enPEVrFkVc3d10cTqeAkx2C7G78WA3vgvQNgG8pb7S+CwKOrKp+KJZUzC74BcPCej0fcao43cJbs07LjNuzSQ6lqsWV3FsLa8JR0uXSOIxYVj2N//joF3VUnge8j6OAbZB5GvLZEnDF/7Fzgssguy7dd3jSAWGwn7+1EMus/i13W8Rg1a+2F0P2Pjivp69xuEo/z9SWirT11w0uVFmYCdtjSGWGa+NR9a6+Mjb4ls0NoPCcUTiJ73HKylZONC8A0leQFHAtsoYpn51rfxk4fQJL+6JeaoNd5AxsYx2qTppuBtWAj+CKwQp/13MfF3LbtxxBoSqHs5BmNjjqo2oVokFLVVY9rVZcDeBxPwAnPcuOt4ziZ944hlTMI1e7fw+7xskK4oiNFYNAVfwMDreiF6xSpyyM7oin+Ba734Gz4bSSxDLjoxLsGAbMTisdFYg0Zjjc2BBYFl+CNI9XV8EL8Bq6P2k2yrtq2xxDLzLYY8MQq+CabTagw63h/GeVYTnRfz0a5/hQlY7LxqKBkbTSx8+Z7BYLwUWov7t4oejGgD13K4AM47n5q2EM551QfgWie5GvE0mljGJHwC5PoHXg1Uco/BFNwY8q+Y9sI+DN16ouS2jJD91yDVhU2YV7VGY3UaCvPiQZDrE/j3PaUOSHwYSKin8NIz2AhzCe1giNb16Jtrct5m7zNmGq+xhpDrbgzOj5b6tYfG2gKy84xymrf0mg36dHhGebgedwvWqz6ED1+WJy1Vwao1xCJIWMm/BuS6EG/W5yV061DITC8n51d0xDyDt/QF8J/DBDwvl2t3qpCoW95WEQsr+fzaXwEgeB1raV/JNWRCG/ilp+YqOV7wQZDqY3BW3BZ6QOdSXquIRdDxhfwtyPUZ/PqdXDrBUo5lcFx0lg3oFSx1rYeXGFwM6+EGy3YXmax1xDLkWgJy/T20FuMKS3mehLYaSiyahaU9a260B/bfRFuatmQwrC9aSSxDrofQwZ8EuW4rYLv7CrM4vKbzoLl+i69+idspboKz4n20Gkr7IrjK21piGXL9HD8vwTngWTszQPxfQs61LnZ87WkGZjlH7LFF5w6Q6r253WPlShjb9K0mFkHCwuRV+Pp/DoM35y3vXLvims/QZ9C2k1OmG2VT6QN0VoBUxa4jumLYemJxmwnIdRmA4+m6XICt7eljko70Ai6vTVC3ih8BqT4MjHmZRWue1hOLPQ1yLccc5tP49ZphKmHpSCURd1z0OB6b0ezDjtOGvHfh/2r9EFigwe31F4NU3wbGRcdqWrR1WBIRy8Bh7t86H1qDdx6veTLa0s9BOXLXMB0AOWstXrVzKdzqV5Z2wpIribqlF7GGoGJiCj+E/1oQAtyAZdBRMVJ90jNIrZXjsxqyfQ1aldeYZulkiQ2aiDUCYZBrwUGbH3saNNePY4NvU76Zd90HuYatW+HfJFqOO4mpXW/gUgZkbFIUvk13rU0jYnWBCwPiDgyM92FQ164ROO+CLN8bpVdzXCb4Edzq7wKGXCJo7SNijdL1GBiMY6MbfmGdowP186vf9fhsEO4O/I1xg7k8XAA+u/SDYEKAKWL1QBHerP+HwfteDG4uJNf10M0+WiQ751m57M36GUh1DkhV64eork4aWa+I1aMn4M16AQPlhzQLsfBZ14BhfOBod+1SW+XgGVwAgp8PrGo3nUWsXBCwkAMD5r/5NR5qFiaMLyR5ui6oMWYQf7vfogkxk9wNbM7EFpBWLQD3A1Qaqx9C5u8kF369FO+j/K8Udx0b8i4FgbpqJbiyqckWWzYhRrJ7oKk+Dmx+EqPwkssUsRx6D1/lz8AV/w5kedIhm3dSQ15uFxl1UyPM1OtQQR0OjIXQVO8AJt/wbmCDM4pYjp27z24Hcnv/BTQLY5uDKJ+E6hccTI9h6mtuqKk+AU011xG+1iQXsRy7mg4Nai5oijOR9aeO2V2TL0M9PXfawkxk5PjaMCzXCjzS/xSa6q+Awdc88rYmi4jl2dX8WmPQ/y2ye0U/WGo7Oi16hgTBTHzebIJMEZB7O0j115pT9R80IlZ/jEZNgQF2E+Zcp4MkzpN3S+cHw4NszrZgBEZsc/BWkOp0tPnOCpC1JquIVbGrMdB+DI3xN9zi71JUP41l/k5i9d1uAXNwMcxBnuse6+H5f2cyjjJWBU0rV8QK0KM0jUCud4IM1pP5fhpryH1Yoy0Or5WcW/VR/3fxH0sCNGdoEc/zBhCQ6lS08e7AZTe6OBErUPfSRDLkutGmSEuNRbe+lSsdWutOkCDkqVPcT/WvnEeibV7zSBscmppGxArYszSVMBDPAmn6mmX9NBbEegFlfQtlWsUCQmutRHoSK4TWYgziP6G8j6D+EOUFRLmMokSswP3EIFQMSIY//QeK7mvGdaveaDNGWzziIh601jwQ4lqXPF3SLmE0BXb+/nOb91NVxHCMiFUVwS75MSAfxsD8AAjyOfyZR0P7PNzYuMwlozkEkx5K3w2GC0Gq9yOq/1KU1fiz/1ywdU0rYrkiZpkeA/NXGKDngVyfQhYfVzhPinWOXAehvwNy8KI96wfpGeExF06KOVz4xSJ46RcuWLc9VkIRKxayKBcD9Hcg18ew1jUHBHM9ufZBmHbO8xsQmqfmMn5vvmXTnsWBpT82nr/GXIZu2fZoyUSsaND+qWAe+wXTkGdAnA1yXYu377oUsv0B6a8GSaw8gl2asAhE+biFKcnjyT6NtG+HjA9EhqJVxYtYibobA3ceF5JR3bCzC0epnqaYsxnYKQt1PQVtdztIc2Pn//D7yKrm895fmI4XIf2arTB6wiEgYoXDsm9JGMD3glzvgdb6IhL3cmrwgM6qDwN4vwjyrDlWAOZepzx6Kq+nlsJ86kvQik4OkqpCtSW/iJW4p0GuhzDvIrk+iapH0xQT8Lftbpp7/bgK4j0HrbUAGulckOsWowFp+n3OxPzNr1C2svZBIMSXUSB7IvCVmy+avejRuy7AYvGhnSI6ERnQNp8HMT4CjfIbl+JBxolIvxHeDfGuj3dTvJMXj503A3WN4wE5mPf5zt1cRGl1WhGr5u4HufbAgKdL/tUdUUCqP4JU3O9E7x6jybl9hEdMs7+oxWhpdF6ShyTaCu90vFPxDuClqcmoDUa+84y/J1xJWjM0RVcvYmXQfSDXriDXhyHK8XgngFjPglid8wS5z4qeRF6KQDKNNwTr/JukooaiZiKh+DufFXgfxsvA4K+CVAqiTdjX/NrpqRkBOjUWLJt7xpXXXbYapNoDpJoCkbbDS+3j+9AkJNlI0JEXKviWqXyWCMh5YQlU7GSY96yAo+H9IBVPgmI4EzVT1YfkWj1p9w0Gqxak/G4IiFhueEVNDXONB8fw1sNQF3ORUD8EabseUR21MS0vXMTKbwCQBDz9NsQzd+9Zu14RoiCV4YaAiOWGV/TUxmzzjU4fKt8KlPX5gfW2C6X9ore9SRWIWJn1Jsw2nsq0OIBY9+44sJNr4G+AalUEERCx8hwHnGsNu3PYQ8xboK249URPDQiIWDWAblElA/uqxPAxgLfnQZ8WMihJBQRErArgxcoKhwO31z9Yofw7UMaNFfIra0UERKyKAMbIbhwOTuddjJDjAZSheMAYnWNZpohlCVQNyaoQi+FMempEQMSqEfxeVcNVzosOfA50YVyhT75MkShTLBEr335jRDoj010frl/d6ppJ6cMiIGKFxTNYaViD4iKxz73H3C6S5GK8YI1tYEEiVqadCucDTTofgjAcStEWNferiFVzB/Spnuaga9zgILRdiruy8kauZulErJo7oI8D48f4u9PWfKRntIX2X9XcryJWzR3Qq3ponvvxd9eAXLraq4ZDZYxKGaKJWHn3E88XdD3z76mNxkySxqq5X0WsmjugV/VwYJAgrjGDKzdYb6LNabsZt7x80USs/PvQNULd5s7i/FtduIQiVv4dyCgKF9POJW3+rS9UQhEr845DFMUdEHHQQUyZgQ5gxUoqYsVCNly5DGtyWZcSscJh712SiOUNXZqMcLkvQU0ua1le17OmaU17ahGx8u9rutx5DobtI41li1TEdCJWRHADFU1nBA/wtH1ELFukIqYTsSKCG6JoE4zrckG4iBUC+IpliFgVAUyU3SVaXRdzJ+qUXtWIWBl0goUItl5BntPOo9P01IyAiFVzB9hUD7LwNnsbcq2//J5VvKVET80IiFg1d4Bl9VzLst2XpTmWJagxk4lYMdENVzbjBW3mTs/JFAwHepWSRKwq6CXKaxaJbYJxx8MUnJxILFXTAwERq4zhwY2LtlHrvDpVT80IiFg1d4Bl9SSWbaiSrr+1BDVmMhErJrrhynbRWLqwPRzu3iWJWN7QpcuIrfZ0XNiagiJWuq4ZtSYRK4NOsBTBdgOjiGUJaMxkIlZMdAOV/cyY5Zw32a5PiViBcK9SjIhVBb1Eec2pS7bOCxErUb/0qkbEyqATLEWwPStQfWoJaMxk6oSY6IYrm6SSKRgOz+gliVjRIQ5WgZwXwaCMX5CIFR/jEDVQY9kSy9ZkDCGXyhgFARGrjKFBM1CmYBl9tUZKEauAzsKR0S4aa1wBTWq8iCJWOV28ylLU8ZbplCwiAiJWRHADF/20ZXkKwrUEKmYyESsmumHLfhDF2WzPl8YKi7tXaSKWF2zpM2Fn8JWo9TK8d+Fd0UMC9Wn67lmnRoW/ZNAJLiIMPv/YxksGHzoMO4VPRL598U7Fu9mQMr6096xdT8V5hHK7uwAbOK3s8cCAxi4OhOFc61q+INlEkOwgkOw0/HsvvJvgdTnnPba4rS1fxCq460EyHuT5I76rnl857ie33HoGfn9Y2qrgTpXoQkAICAEhIASEgBAQAqUj8L8DuBsUobtgjQAAAABJRU5ErkJggg==;spacing=-4;fontSize=7;" parent="1" vertex="1">
          <mxGeometry x="359.63" y="289.12" width="15.37" height="31.59" as="geometry" />
        </mxCell>
      </root>
    </mxGraphModel>
  </diagram>
</mxfile>
